<?xml version="1.0" encoding="utf-8"?>
<!-- Generator: Adobe Illustrator 26.2.1, SVG Export Plug-In . SVG Version: 6.00 Build 0)  -->
<svg version="1.1" id="Camada_1" xmlns="http://www.w3.org/2000/svg" xmlns:xlink="http://www.w3.org/1999/xlink" x="0px" y="0px"
	 viewBox="0 0 2500 2500" style="enable-background:new 0 0 2500 2500;" xml:space="preserve">
<style type="text/css">
	.st0{fill-rule:evenodd;clip-rule:evenodd;fill:#0077A6;}
</style>
<g>
	<path class="st0" d="M2332.2,1562.22c0,53.68-33.99,78.7-94.83,78.7h-116.27v-53.68h116.27c10.74,0,19.69-1.78,23.28-5.34
		c3.57-3.59,7.15-8.96,7.15-16.11c0-7.17-3.57-14.32-7.15-17.89c-3.59-3.59-10.74-5.37-21.48-5.37
		c-55.45-1.8-125.24,1.78-125.24-76.94c0-35.8,23.25-75.16,85.87-75.16h119.87v53.68h-110.93c-10.71,0-17.89,0-23.25,3.57
		c-5.37,5.37-8.94,10.74-8.94,19.69c0,8.95,5.37,14.32,12.52,17.91c7.17,1.78,14.33,3.57,23.28,3.57h32.19
		c33.99,0,55.47,7.15,69.79,19.69C2325.04,1521.05,2332.2,1537.18,2332.2,1562.22z M2079.92,1508.54
		c-14.32-12.54-35.8-19.69-69.79-19.69h-32.19c-8.94,0-16.11-1.8-23.25-3.57c-7.17-3.59-12.52-8.96-12.52-17.91
		c0-8.95,1.78-14.32,8.94-19.69c5.37-3.57,12.52-3.57,23.25-3.57h110.93v-53.68h-119.87c-64.42,0-85.9,39.36-85.9,75.16
		c0,78.7,69.79,75.13,125.26,76.94c10.71,0,17.89,1.78,21.45,5.37c3.57,3.57,7.17,10.71,7.17,17.89c0,7.15-3.59,12.52-7.17,16.11
		c-5.37,3.57-12.52,5.34-23.25,5.34h-116.3v53.68h116.3c60.82,0,94.82-25.03,94.82-78.7
		C2097.81,1537.18,2090.66,1521.05,2079.92,1508.54L2079.92,1508.54z M1850.9,1589.06h-141.32v-50.1h137.75v-50.08h-137.75v-46.54
		h141.32v-51.88h-200.37v250.47h200.37L1850.9,1589.06L1850.9,1589.06z M1586.11,1402.99c-19.69-10.74-42.94-12.54-73.36-12.54H1375
		v250.47h60.82v-91.24h64.42c21.45,0,33.99,1.8,42.94,10.74c10.74,12.52,10.74,33.99,10.74,50.1v30.4h59.03v-48.31
		c0-23.25-1.78-33.99-8.94-46.51c-5.37-7.17-16.08-16.11-30.4-21.48c16.08-5.34,42.94-26.82,42.94-66.2
		C1616.54,1429.81,1605.8,1413.7,1586.11,1402.99z M1246.17,1390.45h-191.45l-76.94,82.31l-73.36-82.31H662.9v250.47h237.97
		l76.94-82.31l73.36,82.31h116.3v-84.07h75.15c51.88,0,103.78-14.32,103.78-84.1C1346.38,1404.77,1292.7,1390.45,1246.17,1390.45
		L1246.17,1390.45z M1537.8,1494.23c-8.94,3.57-17.89,3.57-28.62,3.57l-73.36,1.8v-57.27h73.36c10.74,0,21.48,0,28.62,5.37
		c7.17,3.59,12.52,10.74,12.52,21.48S1544.97,1488.86,1537.8,1494.23z M1246.17,1506.75h-78.73v-64.42h78.73
		c21.48,0,35.78,8.96,35.78,30.43C1281.96,1494.23,1267.64,1506.75,1246.17,1506.75z M1015.36,1515.69l93.03-98.39v202.17
		L1015.36,1515.69z M870.44,1589.06h-148.5v-50.1h132.4v-50.08h-132.4v-46.54h150.29l66.2,73.36L870.44,1589.06L870.44,1589.06z
		 M2165.79,1209.74h-85.87l-112.72-187.87v187.87h-121.64l-23.28-55.47h-125.24l-23.25,55.47H1604c-28.62,0-66.2-7.16-87.65-28.64
		c-19.69-21.46-30.43-50.09-30.43-94.82c0-37.57,5.37-71.57,32.19-98.4c17.89-19.69,50.1-28.62,91.24-28.62h57.25v53.68h-57.25
		c-21.45,0-33.99,3.58-46.51,14.32c-10.74,10.74-16.11,30.41-16.11,57.25s5.37,46.52,16.11,59.05c8.94,8.94,25.06,12.52,41.14,12.52
		h26.85l85.87-196.8h89.47l100.19,236.17V959.26h93.05l105.56,173.55V959.26h60.82v250.49L2165.79,1209.74L2165.79,1209.74z
		 M1455.51,959.26h-60.82v250.49h60.82V959.26L1455.51,959.26z M1328.47,970c-19.69-10.74-41.14-10.74-71.55-10.74h-137.78v250.49
		h59.04v-91.26h64.41c21.48,0,35.8,1.79,44.73,10.74c10.74,12.53,8.94,34.01,8.94,48.31v32.2h60.82v-50.1
		c0-21.46-1.78-32.2-10.71-44.73c-5.37-7.16-16.11-16.11-28.62-21.46c16.08-7.16,42.94-26.83,42.94-66.2
		C1360.68,998.62,1348.14,982.51,1328.47,970L1328.47,970z M1076.19,1157.86H936.64v-50.1h137.76v-51.88H936.64v-44.73h139.55
		v-51.88H875.81v250.49h200.38L1076.19,1157.86L1076.19,1157.86z M831.08,959.26h-98.4l-73.36,169.97l-78.73-169.97h-96.61v236.17
		L382,959.26h-89.45L185.2,1209.74h64.41l23.25-55.47h125.24l23.25,55.47h121.67v-196.8l87.66,196.8h51.88l87.68-196.8v196.8h60.83
		V959.26H831.08L831.08,959.26z M1800.83,1100.6l-41.17-98.4l-41.14,98.4H1800.83z M1281.96,1061.25
		c-8.94,5.37-17.89,5.37-30.41,5.37h-73.37v-55.46h73.36c10.74,0,23.24,0,30.41,3.58c7.15,5.37,10.74,12.53,10.74,23.25
		S1289.1,1057.66,1281.96,1061.25z M294.32,1100.6l41.15-98.4l41.15,98.4H294.32z M2317.89,173.81H183.39v901.75l73.36-166.39H412.4
		l21.48,41.15v-41.15h182.5l41.15,89.45l39.36-89.45h581.49c26.82,0,50.08,5.37,67.99,19.68v-19.68h159.23v19.68
		c26.82-14.32,60.82-19.68,100.19-19.68h230.8l21.48,41.15v-41.15h169.97l25.06,41.15v-41.15h166.38v350.68H2051.3l-32.19-53.67
		v53.67h-209.35l-23.25-57.25h-51.91l-23.25,57.25h-109.13c-42.94,0-75.16-10.74-96.61-21.46v21.46h-259.43v-80.52
		c0-10.74-1.79-12.53-8.95-12.53h-8.94v93.03H727.31v-44.73l-17.89,44.73H603.86l-17.89-42.94v42.94H383.79l-21.46-57.25h-51.89
		l-23.25,57.25H183.39v1057.41h2134.5v-642.33c-23.25,10.74-55.47,16.11-87.68,16.11h-155.66v-21.48
		c-17.89,14.33-50.1,21.48-80.5,21.48h-490.24v-80.5c0-10.74-1.78-10.74-10.74-10.74h-8.94v91.24H1323.1v-94.82
		c-26.82,12.52-57.25,12.52-84.08,12.52h-17.9v82.31h-196.8l-46.51-53.68l-51.88,53.68H609.22v-350.66h322.05l46.52,53.66
		l50.1-53.66h216.49c25.03,0,66.2,3.57,84.08,21.45v-21.45h193.22c19.69,0,57.27,3.57,82.31,21.45v-21.45h291.64v21.46
		c16.11-14.32,46.54-21.45,73.36-21.45h162.81v21.45c17.91-12.52,42.94-21.45,75.16-21.45h110.93V173.81L2317.89,173.81z"/>
</g>
</svg>
