<?xml version="1.0" encoding="utf-8"?>
<!-- Generator: Adobe Illustrator 26.2.1, SVG Export Plug-In . SVG Version: 6.00 Build 0)  -->
<svg version="1.1" id="Camada_1" xmlns="http://www.w3.org/2000/svg" xmlns:xlink="http://www.w3.org/1999/xlink" x="0px" y="0px"
	 viewBox="0 0 2093.54 2149.58" style="enable-background:new 0 0 2093.54 2149.58;" xml:space="preserve">
<style type="text/css">
	.st0{fill-rule:evenodd;clip-rule:evenodd;fill:#D0D1D3;}
	.st1{fill-rule:evenodd;clip-rule:evenodd;fill:#234B8D;}
	.st2{fill-rule:evenodd;clip-rule:evenodd;}
</style>
<path class="st0" d="M638.76,10.53c347.47,0,631.76,289.52,631.76,645.74c0,354.46-284.3,644-631.76,644
	c-349.21,0-633.51-289.54-633.51-644C5.25,300.06,289.55,10.53,638.76,10.53L638.76,10.53z"/>
<path class="st1" d="M647.54,0C291.3,0,3.51,293.04,3.51,656.27c0,361.48,286.04,654.53,644.03,654.53v1.75h801.97
	c359.73,0,644.03-293.05,644.03-656.28S1802.23,0,1442.5,0C1447.78,1.75,652.81,0,647.54,0L647.54,0z M647.54,26.33
	c343.96,0,617.71,280.76,617.71,629.94c0,349.2-273.77,629.97-617.71,629.97c-342.19,0-619.46-280.77-619.46-629.97
	C28.08,307.09,305.35,26.33,647.54,26.33L647.54,26.33z M756.33,1087.94V224.61c189.53,49.13,328.15,221.1,328.15,431.66
	C1084.49,866.85,945.87,1040.56,756.33,1087.94L756.33,1087.94z M540.49,222.86v866.82c-191.28-47.37-328.16-221.08-328.16-433.41
	C212.33,445.71,349.21,270.23,540.49,222.86z"/>
<path class="st2" d="M1.75,1703.85c14.05-1.75,24.58-7.02,28.08-17.54c1.75-7.04,3.51-14.06,7.02-21.08l36.86-136.87
	c3.51-14.03,5.25-22.8,8.77-31.59v-8.77c0-8.77-7.02-14.03-19.3-14.03l-10.53-1.78l3.51-8.77h80.72c28.08,0,52.64,1.75,68.44,7.02
	c21.06,7.02,36.85,19.3,47.38,36.86c10.53,17.56,15.8,36.86,15.8,59.66c0,35.11-12.28,66.68-38.61,94.77
	c-24.58,24.58-54.4,40.35-91.26,47.37c-17.55,3.51-36.85,3.51-56.16,3.51H0L1.75,1703.85L1.75,1703.85z M77.21,1652.96l-5.27,22.83
	c-1.75,3.5-1.75,5.27-1.75,8.77c0,7.02,3.51,10.53,10.53,10.53c3.51,1.75,8.77,1.75,15.8,1.75c56.16,0,94.76-24.58,117.57-75.43
	c8.77-21.08,12.28-40.38,12.28-61.42c0-24.58-7.03-43.88-19.31-57.91c-14.05-15.78-31.58-22.8-56.16-22.8
	c-10.53,0-15.8,1.75-21.06,3.5l-3.51,1.75c0,1.78-1.75,1.78-1.75,3.51l-8.78,28.07L77.21,1652.96L77.21,1652.96z M357.99,1675.78
	l-3.51,5.27c-5.27,5.27-8.77,12.28-14.03,17.54c-10.53,12.28-21.06,19.3-33.35,19.3c-14.03,0-21.06-8.77-19.3-24.55
	c0-7.02,1.75-19.3,5.27-33.36l24.56-84.23c1.76-3.5,1.76-7.02,1.76-10.52c0-5.27-1.76-8.79-8.78-10.53h-14.05l3.51-7.02l59.66-10.52
	l-36.85,129.85l-3.51,15.78c-1.76,3.51-1.76,7.02-1.76,8.77c-1.75,3.51,1.76,5.27,5.27,5.27s8.78-1.75,14.05-7.02
	c3.51-5.27,7.02-8.77,10.53-14.03l3.51-5.27L357.99,1675.78L357.99,1675.78z M335.18,1479.25c0-14.06,7.02-22.83,19.3-22.83
	s17.55,7.02,17.55,21.05c0,5.27-1.75,10.53-5.27,15.81c-3.51,3.5-8.78,5.27-14.05,5.27
	C340.44,1498.57,335.18,1491.52,335.18,1479.25L335.18,1479.25z M394.84,1663.5l12.28-43.88l10.53-43.88
	c1.75-5.24,1.75-8.77,1.75-10.52c0-7.02-3.51-10.53-8.78-10.53h-14.03l1.76-7.02l61.41-10.52l-21.06,73.69l5.27-8.77l10.53-15.81
	c24.58-33.33,47.38-50.89,66.69-49.12c14.03,0,21.06,7.02,22.81,21.05v8.77l-1.75,12.28l-3.51,12.28l-21.06,78.96l-5.27,17.56v5.28
	c0,3.5,1.75,3.5,3.51,3.5c5.27,0,14.03-5.27,22.81-17.56l8.78-8.77l5.27,3.51l-7.03,12.28c-3.51,3.5-7.02,8.77-12.28,12.26
	c-3.51,3.51-7.02,7.04-12.28,10.53c-3.51,1.75-7.03,5.27-10.53,5.27c-3.51,3.5-7.02,3.5-10.53,3.5c-12.28,0-17.55-7.02-17.55-19.3
	v-12.26c1.75-10.53,3.5-17.56,7.02-24.58l19.3-70.19l1.75-12.28c1.75-5.27,1.75-8.77,1.75-12.28v-5.27
	c-1.75-3.5-3.51-5.27-7.02-5.27c-8.78,1.78-17.55,7.04-28.08,17.56l-8.77,10.53c-8.78,12.28-17.55,24.58-24.58,36.86
	c-5.27,8.77-8.77,17.54-12.28,24.55l-7.02,21.08l-14.05,45.63h-29.83L394.84,1663.5L394.84,1663.5z M608.93,1649.47
	c-1.75,5.27-1.75,10.52-1.75,15.78c0,3.51,0,7.02,1.75,10.53c0,3.5,3.51,8.77,7.02,12.28c5.27,5.27,14.05,8.77,24.58,8.77
	c8.77,0,14.03,0,21.06-3.5c5.27-1.78,10.53-5.27,19.3-10.53l8.78-7.02l5.27-3.51l5.27,5.27l-8.77,8.79
	c-5.27,3.5-10.53,7.02-15.8,12.26c-17.55,12.28-35.1,19.3-50.89,19.3c-8.78,0-17.55-1.75-22.81-5.24
	c-19.31-8.79-29.84-24.58-29.84-49.14c0-29.84,12.28-57.91,35.11-84.23c24.56-28.07,50.89-42.1,78.96-42.1
	c22.81,0,33.35,8.77,33.35,28.07c0,21.05-12.28,38.61-38.61,54.38c-15.8,10.53-36.85,17.56-64.93,21.05h-5.27L608.93,1649.47
	L608.93,1649.47z M628.24,1626.64c29.83-8.77,49.13-26.32,59.66-52.64c1.76-3.5,1.76-8.77,1.76-12.28c0-8.77-3.51-14.03-12.3-14.03
	c-12.28,0-26.32,12.28-40.35,33.33c-7.03,10.53-12.28,19.3-15.8,26.32c-1.76,5.27-3.51,12.28-7.03,22.83L628.24,1626.64z
	 M747.56,1670.52l17.55-61.4l8.78-33.36c1.75-3.5,1.75-7.02,1.75-10.52v-5.27c-3.14-3.46-7.63-5.38-12.3-5.27h-14.03l3.51-7.02
	l59.67-10.52l-17.55,66.68l8.77-14.03l14.05-21.08c15.8-21.05,28.08-31.57,40.36-31.57s19.3,7.02,19.3,19.27
	c0,7.04-1.75,12.28-5.27,15.81c-3.51,3.5-8.77,5.27-12.28,5.27c-7.03,0-10.53-1.78-14.05-5.27l-3.51-7.02h-3.5l-3.51,1.75
	l-8.78,8.77c-7.02,10.53-15.8,21.08-24.56,36.86c-3.51,7.02-7.02,15.81-12.28,26.32c-3.51,12.28-8.78,22.83-12.28,35.11
	l-12.28,38.61h-28.08L747.56,1670.52L747.56,1670.52z M884.45,1658.22l1.75,7.02c0,5.27,1.75,10.53,3.51,14.03
	c5.27,19.3,15.8,28.09,33.35,26.34c7.02,0,14.03-1.78,19.3-7.04c3.51-5.24,7.03-12.26,7.03-21.05c0-3.5,0-7.02-1.76-12.28
	c-3.51-5.27-7.02-12.28-10.53-19.3l-17.55-26.32c-5.27-7.02-8.78-14.03-10.53-19.3c-3.39-6.5-5.19-13.72-5.27-21.05
	c0-5.27,1.75-10.53,3.51-15.78c1.75-5.27,5.27-8.79,8.77-12.28c3.39-4.96,8.33-8.67,14.05-10.53c7.02-3.5,12.28-3.5,19.3-3.5
	s12.28,0,19.3,1.75c8.78,1.75,14.05,3.5,17.55,3.5s7.03-1.75,8.77-3.5l1.76-1.75h5.27l-8.77,52.64h-7.03v-8.79
	c-3.51-21.05-15.8-33.33-33.35-33.33c-12.28,0-19.3,7.02-19.3,21.05c0,8.79,3.51,19.3,12.28,33.36l17.55,24.55
	c5.27,7.02,8.78,12.28,10.53,17.56c3.51,7.02,5.27,14.03,5.27,21.05c0,15.81-7.02,28.09-17.55,38.61
	c-10.53,8.79-24.58,14.03-40.36,14.03c-5.27,0-12.28,0-17.55-1.75c-10.53-3.5-17.55-3.5-19.3-3.5h-3.51l-1.75,1.75l-3.51,3.5h-7.03
	l8.77-61.4L884.45,1658.22L884.45,1658.22z M1347.74,1659.97l-8.79,10.53c-28.07,31.59-57.91,47.37-92.99,47.37
	c-28.09,0-52.64-10.52-71.94-29.82c-8.79-8.79-14.06-19.3-17.56-29.84c-5.78-13.28-8.77-27.61-8.79-42.1
	c0-15.81,3.51-31.59,8.79-49.14c10.52-29.82,29.82-54.38,56.16-75.46c26.32-21.05,56.13-31.57,87.73-33.33
	c14.06,1.78,31.59,3.51,50.89,8.79c5.27,0,8.79,1.75,12.28,1.75c3.7,0.07,7.11-1.98,8.79-5.27l1.75-3.5l8.77,1.75l-15.78,75.46
	h-8.77v-7.04c-1.78-7.02-1.78-12.26-3.51-19.27c-1.75-7.04-5.27-12.28-10.53-17.56c-10.52-12.28-24.58-17.56-45.63-17.56
	c-24.58,0-45.63,10.53-64.93,31.59c-16.76,18.5-28.81,40.77-35.11,64.93c-5.24,17.56-8.77,35.08-7.02,50.89
	c-1.75,19.3,3.51,36.83,15.81,50.89c10.52,15.78,26.32,22.8,47.37,22.8c26.32,0,52.64-12.28,78.99-38.61l5.24-5.27L1347.74,1659.97
	L1347.74,1659.97z M1428.44,1498.57c1.78-5.27,3.51-10.53,3.51-14.06l-1.75-3.5c-1.78-3.51-5.27-5.27-12.28-5.27h-10.53l1.75-7.02
	l61.42-10.53l-57.91,214.08c-3.51,8.79-3.51,15.81-3.51,19.3v1.78c0,3.5,1.78,3.5,5.27,3.5c1.78,0,7.02-1.75,14.03-8.77l8.79-8.79
	l7.02-8.77l3.51-3.5l7.02,3.5l-5.27,8.77c-5.27,5.27-8.79,10.53-14.03,15.81c-12.28,15.78-24.58,22.8-36.86,22.8
	c-5.27,0-10.53-1.75-15.81-5.24c-3.5-3.51-5.27-8.79-5.27-14.06c0-3.5,0-8.77,1.78-12.26l7.02-26.34L1428.44,1498.57
	L1428.44,1498.57z M1568.82,1656.49c-10.52,15.78-19.27,28.07-29.82,38.61c-14.03,15.78-28.09,22.8-42.13,22.8
	c-5.27,0-10.52-1.75-14.03-7.02c-3.57-5.14-5.41-11.28-5.27-17.54c0-5.27,0-10.53,1.75-17.56l5.27-17.56l21.08-82.47
	c1.75-3.5,1.75-7.02,1.75-10.52c0-7.02-1.75-10.53-8.79-10.53h-14.03l3.51-7.02l59.66-10.52l-36.86,135.09
	c-1.75,8.79-3.5,14.06-3.5,17.56c0,5.27,1.75,7.02,7.02,7.02c5.27,0,14.03-5.27,22.8-15.78l14.06-17.56l10.52-17.56
	c5.27-7.02,10.53-15.78,15.81-26.32c7.02-10.52,12.28-22.8,17.56-35.08c3.5-10.53,7.02-19.3,10.52-29.84l3.51-14.03h29.84
	l-5.27,21.05l-12.28,43.88c-5.27,19.3-10.53,35.08-14.03,49.14l-5.27,21.05c-1.78,7.02-1.78,12.28-1.78,15.78
	c0,3.51,1.78,5.27,3.51,5.27c3.51,0,8.77-3.5,14.03-10.52l10.53-12.28l5.27-5.27l7.02,5.27l-5.27,5.24l-12.28,17.56
	c-3.5,3.51-8.77,8.79-12.28,12.28c-7.02,5.27-14.03,8.77-21.05,8.77c-14.03,0-21.08-7.02-21.08-19.3c0-5.24,0-8.77,1.78-15.78
	l3.5-14.03l8.79-33.33L1568.82,1656.49L1568.82,1656.49z M1721.5,1582.79c5.27-8.79,10.53-15.81,15.81-21.08
	c15.78-17.54,33.33-24.55,50.89-24.55c5.27,0,10.53,0,17.56,3.5c17.54,7.02,24.58,22.83,26.32,47.37
	c-1.75,31.59-14.03,61.42-40.35,87.75c-15.81,15.78-31.59,28.07-47.39,35.08c-10.52,5.27-22.83,7.02-35.08,7.02
	c-19.3,0-35.11-5.24-45.65-15.78l-1.75-3.51c-1.75,0-1.75-1.75-1.75-1.75v-5.27l3.5-10.52l49.14-180.75
	c1.75-7.02,3.51-12.28,3.51-15.81v-3.5c-1.78-3.51-7.02-5.27-14.03-5.27h-10.53l1.75-7.02l61.42-10.53L1721.5,1582.79
	L1721.5,1582.79z M1693.44,1691.57c0,10.53,5.27,15.81,19.3,14.06c15.81,0,29.84-7.04,43.88-22.83
	c14.03-15.78,22.83-31.59,31.59-50.89c5.27-15.78,8.77-31.59,8.77-45.63c0-19.3-8.77-28.07-24.55-29.84
	c-12.28,0-24.58,8.79-36.86,24.58c-10.28,11.76-18.05,25.5-22.83,40.37l-8.77,24.55C1696.95,1667.02,1693.44,1682.8,1693.44,1691.57
	L1693.44,1691.57z M10.53,2135.52l5.27-1.75c8.77-1.78,14.05-5.27,15.8-8.79c3.51-3.5,5.27-7.02,5.27-10.52l7.03-24.58l43.86-154.42
	l1.75-8.77c1.76-1.78,1.76-5.27,1.76-7.02c0-8.79-7.03-12.28-17.55-14.06l-8.78-1.75l1.75-8.77h94.77l-1.75,8.77l-7.03,1.75
	c-10.53,1.78-17.55,7.02-21.06,15.81c-1.75,7.02-5.27,15.78-7.02,24.58L80.72,2100.4c-1.76,8.79-3.51,14.06-3.51,17.56
	c0,8.77,5.27,14.03,19.3,15.81l7.02,1.75l-1.75,8.77H7.02L10.53,2135.52z M149.17,2095.17l12.28-43.88l12.28-43.88
	c0-5.27,0-8.77,1.76-12.28c-1.76-5.27-3.51-8.77-10.53-8.77l-8.77-1.75h-5.27l3.51-7.02l59.67-10.53l-21.06,75.46l5.27-8.79
	l10.53-15.78c26.33-33.33,47.38-50.89,66.69-50.89c14.05,1.75,21.06,8.77,22.81,22.8v8.78l-1.76,10.52l-3.5,14.06l-21.06,78.96
	l-5.27,17.54v5.27c1.75,3.51,3.51,3.51,5.27,3.51c5.27,0,12.28-5.27,21.06-17.56l8.77-10.53l7.03,5.27l-8.78,10.53
	c-3.51,5.27-7.02,10.52-10.53,14.03c-3.51,3.51-8.77,7.02-12.28,10.53l-10.53,5.27c-5.27,1.75-8.78,3.5-12.28,3.5
	c-10.53,0-17.55-7.02-17.55-19.3c0-5.27,0-8.77,1.75-14.03c1.75-8.77,3.51-15.81,5.27-22.83l19.3-70.17l1.76-12.28
	c1.75-5.27,1.75-8.79,1.75-12.28v-5.27c-1.75-3.51-3.51-5.27-7.03-5.27c-7.02,0-15.8,5.27-26.32,17.56l-10.53,10.52
	c-8.77,10.53-15.8,22.83-24.56,36.86c-5.27,8.79-8.78,15.81-10.53,22.83l-8.77,21.05l-14.05,47.37h-29.83L149.17,2095.17
	L149.17,2095.17z M335.18,1986.37l1.75-8.77c14.05-3.51,24.56-8.79,33.35-17.56c6.26-4.14,12.13-8.84,17.55-14.03l12.28-15.81h7.03
	l-10.53,42.13h29.83l-3.51,14.03h-29.83l-33.35,119.31l-1.75,8.79l-1.75,7.02c0,1.75,0,3.5,1.75,5.24l1.75,1.78
	c5.27,0,10.53-5.27,19.31-15.81c3.51-3.5,5.27-7.02,8.77-10.52l1.75-3.51l7.02,3.51l-3.51,7.02l-12.28,14.03
	c-3.51,5.27-7.02,10.53-10.53,14.03c-8.78,7.02-17.55,12.28-28.08,12.28c-12.28,0-17.55-7.02-17.55-19.3c0-3.51,0-7.02,1.75-12.28
	l7.02-22.8l29.84-108.8h-28.07L335.18,1986.37L335.18,1986.37z M466.78,2081.14c-1.75,5.24-3.51,10.52-3.51,15.78
	c0,3.5,1.75,7.02,1.75,10.53c1.75,3.5,3.51,7.02,8.78,10.52c5.27,7.02,14.05,10.53,24.56,10.53c7.03,0,14.05-1.78,19.3-3.51
	c5.27-3.5,12.28-7.02,19.31-10.52l10.53-8.79l3.5-1.75l7.03,5.27l-8.78,7.02c-5.27,5.27-10.53,8.77-15.8,12.28
	c-17.55,14.03-35.1,21.05-52.64,21.05c-7.92,0.13-15.75-1.68-22.81-5.27c-19.3-8.77-28.08-24.58-28.08-49.12
	c0-29.84,12.28-57.91,33.35-84.23c26.33-28.09,52.66-43.88,80.72-43.88c21.06,1.75,33.35,10.53,33.35,29.84
	c-1.75,21.05-14.05,38.59-38.61,54.38c-17.55,8.77-38.61,15.78-64.93,21.05h-5.27L466.78,2081.14L466.78,2081.14z M484.34,2056.56
	c29.83-7.02,50.88-24.58,59.66-50.89c1.75-5.27,3.51-8.77,3.51-12.28c0-10.53-3.51-14.03-12.3-14.03
	c-12.28,0-26.32,12.28-42.11,33.33c-5.27,8.77-10.53,17.56-14.05,26.32c-1.75,5.27-5.27,12.28-7.02,21.05L484.34,2056.56
	L484.34,2056.56z M605.43,2102.19l17.55-61.42l8.78-33.33v-15.78c0-3.51-3.51-5.27-10.53-5.27l-8.78-1.75h-5.27l1.75-7.02
	l61.41-10.53l-19.3,68.42l10.53-14.03l14.05-21.05c14.05-21.05,28.08-33.33,40.36-33.33s17.55,7.02,19.3,21.05
	c-1.75,7.02-1.75,12.28-5.27,14.03c-3.51,5.27-8.78,7.02-14.03,7.02c-5.27,0-10.53-1.75-12.3-7.02l-5.27-5.24h-3.51l-1.76,1.75
	l-8.77,8.77c-8.78,8.77-15.8,21.05-24.58,36.86c-3.51,7.02-8.78,15.78-12.28,26.32c-5.27,10.53-8.78,22.8-12.28,33.33l-12.28,40.35
	h-29.83L605.43,2102.19L605.43,2102.19z M742.3,2095.17l12.28-43.88l10.53-43.88c0-5.27,1.75-8.77,1.75-12.28
	c0-5.27-3.51-8.77-8.78-8.77l-8.77-1.75h-5.27l1.75-7.02l61.41-10.53l-22.81,75.46l7.02-8.79l10.53-15.78
	c24.56-33.33,47.38-50.89,64.93-50.89c14.05,1.75,22.81,8.77,24.58,22.8v3.51l-1.76,5.27l-1.75,10.52l-1.75,14.06l-22.81,78.96
	l-3.51,17.54v5.27c0,3.51,1.75,3.51,3.51,3.51c5.27,0,12.28-5.27,22.81-17.56l7.02-10.53l7.02,5.27l-8.77,10.53
	c-3.51,5.27-7.03,10.52-10.53,14.03c-3.51,3.51-8.78,7.02-12.28,10.53l-10.53,5.27c-3.51,1.75-8.77,3.5-12.28,3.5
	c-10.53,0-15.78-7.02-17.55-19.3c0-5.27,0-8.77,1.75-14.03c1.75-8.77,3.51-15.81,5.27-22.83l19.3-70.17l3.51-12.28
	c0-5.27,1.76-8.79,1.76-12.28l-1.76-5.27c0-3.51-3.51-5.27-7.02-5.27c-7.02,0-15.8,5.27-26.32,17.56l-10.53,10.52
	c-8.78,10.53-15.8,22.83-24.56,36.86c-5.27,8.79-8.78,15.81-10.53,22.83l-7.02,21.05l-15.8,47.37h-28.08L742.3,2095.17z
	 M1017.82,2102.19c-12.28,15.78-22.81,26.32-29.83,31.59c-12.28,10.52-26.32,15.78-38.61,15.78c-12.3,0-21.06-5.27-28.08-15.78
	c-7.02-8.79-10.53-19.3-10.53-31.59c0-12.3,3.51-26.32,8.78-42.13c12.28-28.07,28.08-50.89,49.14-68.42
	c8.78-7.02,17.55-14.03,28.08-17.56c8.77-5.27,17.55-7.02,26.32-7.02c8.77,0,17.55,3.5,24.58,10.53l3.51,7.02l3.51-12.28h28.08
	l-3.5,14.03l-10.53,38.61l-14.05,52.64l-7.02,28.07c-1.76,7.02-3.51,12.28-3.51,17.56c0,1.75,1.75,1.75,1.75,3.5l1.76,1.78h1.75
	c3.51,0,12.3-7.02,22.83-19.3l5.24-8.79l5.25,7.02l-5.27,8.77l-12.28,12.28c-14.03,14.03-24.56,21.05-33.33,21.05
	c-12.28-1.75-17.56-7.02-17.56-17.56c0-1.75,1.76-7.02,1.76-12.28l5.27-24.55L1017.82,2102.19L1017.82,2102.19z M945.87,2100.41
	c0,17.56,7.02,28.09,21.06,28.09c15.8,0,33.35-14.03,49.14-40.35c5.27-8.79,8.77-17.56,14.03-29.84c3.51-8.77,7.03-19.3,8.78-29.84
	c3.51-10.52,5.27-19.3,5.27-26.32c0-7.02-1.75-12.28-5.27-15.78c-5.27-5.27-8.78-7.02-15.8-7.02c-8.78,0-19.3,5.27-29.83,14.03
	c-8.86,7.12-16.06,16.11-21.06,26.32c-5.27,10.53-10.53,19.3-14.05,29.84C949.37,2068.85,945.87,2084.63,945.87,2100.41z
	 M1110.83,1986.37l1.75-8.77c14.03-3.51,24.58-8.79,33.33-17.56c5.27-3.51,10.53-8.79,17.56-14.03l12.28-15.81h7.02l-10.53,42.13
	h29.84l-3.51,14.03h-29.82l-33.36,119.31l-1.75,8.79l-1.75,7.02c0,1.75,0,3.5,1.75,5.24l1.75,1.78c3.51,0,10.53-5.27,19.3-15.81
	c3.51-3.5,5.27-7.02,8.79-10.52l1.75-3.51l7.02,3.51l-5.27,7.02l-10.52,14.03c-3.51,5.27-7.02,10.53-10.53,14.03
	c-8.77,7.02-17.56,12.28-28.07,12.28c-12.28,0-17.56-7.02-17.56-19.3c0-3.51,0-7.02,1.75-12.28l7.02-22.8l29.84-108.8h-28.09
	L1110.83,1986.37L1110.83,1986.37z M1275.77,2107.46l-3.5,3.5c-3.66,7.11-8.39,13.62-14.03,19.3c-10.53,12.28-21.08,19.3-33.36,19.3
	c-14.03,0-19.27-8.77-19.27-26.32c0-7.02,1.75-17.56,7.02-33.33l24.55-82.47c0-3.5,1.78-7.02,1.78-10.52
	c0-7.04-3.51-10.53-10.53-10.53l-8.77-1.75h-5.27l3.5-7.02l61.42-10.53l-38.61,131.59l-3.51,14.03c-1.75,5.27-1.75,7.02-1.75,10.53
	c0,3.5,1.75,5.27,5.27,5.27c5.27,0,8.77-1.78,14.03-7.02c3.51-5.27,7.02-10.53,12.28-15.81l1.75-3.5L1275.77,2107.46
	L1275.77,2107.46z M1252.97,1909.16c0-14.03,7.02-21.05,19.3-21.05s19.3,7.02,19.3,21.05c0,5.27-1.75,10.53-5.27,14.03
	c-3.5,5.27-8.77,7.02-15.78,7.02C1259.99,1930.21,1252.97,1923.2,1252.97,1909.16z M1303.86,2091.65c0-21.05,5.27-40.35,17.56-57.91
	c10.52-19.3,22.8-33.33,38.61-45.63c17.54-14.03,36.86-21.05,56.16-21.05c15.78,0,29.82,7.02,40.35,17.56
	c10.53,10.52,14.03,22.8,14.03,40.35c0,21.05-5.27,40.35-17.56,59.66c-10.52,17.56-22.8,33.33-38.61,43.88
	c-17.54,14.03-35.08,21.05-54.38,21.05c-9.62,0.12-19.17-1.67-28.09-5.27C1312.63,2135.52,1303.86,2117.98,1303.86,2091.65z
	 M1337.2,2100.41c0,10.53,1.75,19.3,7.02,26.32c5.27,7.04,12.28,10.53,22.83,10.53c17.56,0,33.33-12.28,45.63-38.61
	c15.78-28.07,24.58-56.13,24.58-82.47c0-24.55-8.79-36.83-26.32-36.83c-19.3,0-38.61,15.78-54.41,49.12
	C1344.21,2054.81,1337.2,2079.36,1337.2,2100.41L1337.2,2100.41z M1496.89,2095.17l12.28-43.88l10.53-43.88
	c1.75-5.27,1.75-8.77,1.75-12.28c0-5.27-3.5-8.77-8.77-8.77l-8.79-1.75h-5.27l1.78-7.02l61.4-10.53l-21.05,75.46l5.27-8.79
	l10.53-15.78c24.58-33.33,47.37-50.89,66.68-50.89c14.03,1.75,21.05,8.77,22.83,22.8v8.78l-1.78,10.52l-3.5,14.06l-21.05,78.96
	l-5.27,17.54v5.27c0,3.51,1.75,3.51,5.27,3.51c3.5,0,12.26-5.27,21.05-17.56l8.77-10.53l5.27,5.27l-7.02,10.53
	c-3.51,5.27-7.02,10.52-12.28,14.03c-3.51,3.51-7.02,7.02-12.28,10.53l-10.53,5.27c-3.5,1.75-7.02,3.5-10.52,3.5
	c-12.28,0-17.56-7.02-17.56-19.3v-14.03c1.75-8.77,3.51-15.81,7.02-22.83l19.3-70.17l1.75-12.28c1.78-5.27,1.78-8.79,1.78-12.28
	v-5.27c-1.78-3.51-3.51-5.27-7.02-5.27c-8.79,0-17.56,5.27-28.09,17.56l-8.77,10.52c-8.79,10.53-17.56,22.83-24.58,36.86
	c-4.41,7.43-8.51,15.05-12.28,22.83l-7.02,21.05l-14.03,47.37h-29.84L1496.89,2095.17L1496.89,2095.17z M1772.42,2102.19
	c-12.28,15.78-21.08,26.32-28.09,31.59c-14.03,10.52-26.32,15.78-40.35,15.78c-12.28,0-21.08-5.27-28.09-15.78
	c-5.24-8.79-8.77-19.3-8.77-31.59c0-12.3,1.75-26.32,8.77-42.13c10.53-28.07,26.34-50.89,49.14-68.42
	c8.79-7.02,17.56-14.03,26.32-17.56c8.79-5.27,17.56-7.02,26.32-7.02c10.53,0,17.56,3.5,24.58,10.53l5.27,7.02l3.51-12.28h28.07
	l-5.27,14.03l-10.53,38.61l-14.03,52.64l-7.02,28.07c-1.75,7.02-1.75,12.28-1.75,17.56v3.5l1.75,1.78h1.78
	c5.24,0,12.26-7.02,22.8-19.3l5.27-8.79l7,7.02l-7.02,8.77l-10.53,12.28c-14.03,14.03-26.32,21.05-35.08,21.05
	c-10.53-1.75-15.81-7.02-15.81-17.56c0-1.75,0-7.02,1.78-12.28l5.24-24.55L1772.42,2102.19L1772.42,2102.19z M1700.45,2100.41
	c0,17.56,8.79,28.09,22.83,28.09c15.78,0,31.59-14.03,47.37-40.35c5.27-8.79,10.53-17.56,14.03-29.84
	c3.51-8.77,7.04-19.3,10.53-29.84c1.75-10.52,3.51-19.3,3.51-26.32c0-7.02-1.78-12.28-5.27-15.78c-3.51-5.27-8.79-7.02-14.03-7.02
	c-10.53,0-21.08,5.27-31.59,14.03c-7.02,7.02-14.03,15.78-21.08,26.32c-5.27,10.53-10.52,19.3-14.03,29.84
	C1703.97,2068.85,1700.45,2084.63,1700.45,2100.41L1700.45,2100.41z M1911.03,1930.21c1.78-7.02,3.51-10.52,3.51-14.03v-3.51
	c-1.75-3.5-7.02-5.24-14.03-5.24h-10.53l3.51-7.02l59.66-10.53l-57.91,214.08c-1.75,8.77-3.51,15.78-3.51,17.56l1.78,3.5
	c0,3.51,1.75,3.51,3.5,3.51c3.51,0,7.02-3.51,14.03-8.79l8.79-10.52l7.02-7.02l3.5-5.27l7.02,5.27l-5.24,7.02
	c-3.51,7.02-8.79,12.28-12.28,17.54c-14.06,14.06-26.32,22.83-36.86,22.83c-7.02,0-12.28-1.75-15.81-5.27
	c-5.24-3.5-7.02-8.77-7.02-14.03c0-5.27,1.78-8.77,1.78-14.03l7.02-24.58L1911.03,1930.21L1911.03,1930.21z M2014.59,1881.1
	c5.24,0,8.77,1.75,14.03,3.5c3.5,1.75,7.02,5.27,8.77,8.79c3.51,5.24,3.51,8.77,3.51,14.03c0,5.24,0,8.77-3.51,12.28
	c-1.43,4.52-4.58,8.3-8.77,10.52c-5.27,1.75-8.79,3.51-14.03,3.51c-5.27,0-8.79-1.78-12.28-3.51c-5.05-1.53-9-5.47-10.53-10.52
	c-1.75-3.51-3.51-7.04-3.51-12.28c0-5.27,1.78-8.79,3.51-14.03c1.75-3.51,5.27-7.04,10.53-8.79
	C2005.8,1881.1,2011.07,1881.1,2014.59,1881.1z M2014.59,1886.34c-3.51,0-7.04,0-10.53,1.78c-3.51,1.75-5.27,5.27-7.02,8.77
	c-1.75,3.51-3.51,7.02-3.51,10.53c0,3.5,1.78,7.02,3.51,10.52c1.75,3.51,3.5,5.27,7.02,7.02c3.5,1.78,7.02,3.51,10.53,3.51
	c3.5,0,7.02-1.75,10.52-3.51c3.51-1.75,7.02-3.5,8.79-7.02c1.75-3.5,1.75-7.02,1.75-10.52c0-3.51,0-7.02-1.75-10.53
	c-1.99-3.73-5.05-6.79-8.79-8.77C2021.61,1886.34,2018.08,1886.34,2014.59,1886.34z M2002.3,1921.44v-28.07h15.78
	c1.75,0,3.51,0,3.51,1.75c1.75,0,1.75,1.75,3.5,1.75v3.51c0,3.5,0,5.24-1.75,5.24c-1.75,1.78-3.51,3.51-5.27,3.51
	c0,0,1.75,0,1.75,1.75c0,0,1.78,0,1.78,1.75c0,0,1.75,1.78,1.75,3.51l3.5,5.27h-7.02l-1.75-5.27c-1.75-1.75-3.5-3.51-3.5-5.27
	c-1.78,0-3.51-1.75-5.27-1.75v12.28h-7.03L2002.3,1921.44L2002.3,1921.44z M2009.32,1905.63h7.02c1.75,0,1.75-1.75,1.75-1.75
	c1.75,0,1.75-1.75,1.75-1.75c0-1.75,0-1.75-1.75-3.51h-1.75h-7.02V1905.63L2009.32,1905.63z"/>
</svg>
