<?xml version="1.0" encoding="utf-8"?>
<!-- Generator: Adobe Illustrator 26.2.1, SVG Export Plug-In . SVG Version: 6.00 Build 0)  -->
<svg version="1.1" id="Camada_1" xmlns="http://www.w3.org/2000/svg" xmlns:xlink="http://www.w3.org/1999/xlink" x="0px" y="0px"
	 viewBox="0 0 146.78 120.64" style="enable-background:new 0 0 146.78 120.64;" xml:space="preserve">
<style type="text/css">
	.st0{fill:none;}
	.st1{fill:#7375CF;}
	.st2{fill:#EB001B;}
	.st3{fill:#00A2E5;}
</style>
<g>
	<rect class="st0" width="146.78" height="120.64"/>
	<g>
		<path d="M50.36,105.24v-5.99c0.14-1.96-1.34-3.66-3.3-3.79c-0.15-0.01-0.3-0.01-0.46,0c-1.34-0.09-2.63,0.56-3.36,1.7
			c-0.66-1.1-1.87-1.75-3.16-1.7c-1.12-0.06-2.18,0.48-2.8,1.42v-1.18h-2.08v9.55h2.1v-5.29c-0.17-1.22,0.68-2.35,1.9-2.52
			c0.14-0.02,0.29-0.03,0.43-0.02c1.38,0,2.08,0.9,2.08,2.52v5.31h2.1v-5.29c-0.16-1.23,0.71-2.36,1.95-2.52
			c0.13-0.02,0.26-0.02,0.39-0.02c1.42,0,2.1,0.9,2.1,2.52v5.31H50.36z M62.06,100.47v-4.77h-2.08v1.16
			c-0.72-0.93-1.84-1.45-3.02-1.4c-2.77,0.14-4.9,2.49-4.77,5.26c0.13,2.58,2.19,4.64,4.77,4.77c1.17,0.05,2.3-0.47,3.02-1.4v1.16
			h2.08V100.47z M54.33,100.47c0.09-1.59,1.46-2.81,3.05-2.72c1.59,0.09,2.81,1.46,2.72,3.05c-0.09,1.53-1.35,2.72-2.88,2.73
			c-1.58,0.02-2.88-1.24-2.9-2.82C54.33,100.62,54.33,100.54,54.33,100.47z M106.51,95.44c0.7-0.01,1.4,0.12,2.05,0.38
			c0.61,0.24,1.16,0.6,1.63,1.06c0.46,0.45,0.83,0.99,1.08,1.59c0.52,1.28,0.52,2.71,0,3.99c-0.25,0.6-0.61,1.14-1.08,1.59
			c-0.47,0.46-1.02,0.81-1.63,1.06c-1.32,0.51-2.78,0.51-4.1,0c-0.61-0.24-1.16-0.6-1.62-1.06c-0.46-0.45-0.82-0.99-1.07-1.59
			c-0.52-1.28-0.52-2.71,0-3.99c0.25-0.6,0.61-1.14,1.07-1.59c0.47-0.46,1.02-0.82,1.62-1.06C105.11,95.57,105.8,95.44,106.51,95.44
			z M106.51,97.41c-0.41,0-0.81,0.07-1.19,0.22c-0.36,0.14-0.68,0.36-0.95,0.63c-0.27,0.28-0.48,0.61-0.63,0.97
			c-0.31,0.8-0.31,1.68,0,2.48c0.14,0.36,0.36,0.69,0.63,0.97c0.27,0.27,0.59,0.49,0.95,0.63c0.76,0.3,1.61,0.3,2.37,0
			c0.36-0.14,0.68-0.36,0.95-0.63c0.27-0.28,0.49-0.61,0.63-0.97c0.31-0.8,0.31-1.68,0-2.48c-0.14-0.36-0.36-0.69-0.63-0.97
			c-0.27-0.27-0.6-0.48-0.95-0.63C107.31,97.48,106.91,97.4,106.51,97.41z M73.36,100.47c-0.02-2.98-1.86-5.01-4.53-5.01
			c-2.77,0.15-4.89,2.51-4.75,5.27c0.14,2.62,2.27,4.69,4.89,4.75c1.42,0.05,2.82-0.43,3.91-1.34l-1.02-1.54
			c-0.79,0.63-1.77,0.98-2.78,1c-1.43,0.12-2.69-0.91-2.86-2.34h7.09C73.34,101.01,73.36,100.75,73.36,100.47z M66.25,99.63
			c0.08-1.33,1.2-2.36,2.54-2.32c1.31-0.03,2.39,1.01,2.42,2.32H66.25z M82.11,98.13c-0.91-0.52-1.93-0.8-2.98-0.82
			c-1.14,0-1.82,0.42-1.82,1.12c0,0.64,0.72,0.82,1.62,0.94l0.98,0.14c2.08,0.3,3.34,1.18,3.34,2.86c0,1.82-1.6,3.12-4.35,3.12
			c-1.48,0.04-2.92-0.39-4.13-1.24l0.98-1.62c0.92,0.68,2.03,1.03,3.18,1c1.42,0,2.18-0.42,2.18-1.16c0-0.54-0.54-0.84-1.68-1
			l-0.98-0.14c-2.14-0.3-3.3-1.26-3.3-2.82c0-1.9,1.56-3.06,3.97-3.06c1.37-0.05,2.72,0.3,3.89,1L82.11,98.13z M92.09,97.59H88.7
			v4.31c0,0.96,0.34,1.6,1.38,1.6c0.65-0.02,1.28-0.21,1.84-0.54l0.6,1.78c-0.78,0.49-1.68,0.74-2.6,0.74
			c-2.46,0-3.32-1.32-3.32-3.54v-4.35h-1.94v-1.9h1.94l0-2.9h2.1l0,2.9h3.39L92.09,97.59z M99.28,95.45c0.5,0,1,0.09,1.48,0.26
			l-0.64,1.96c-0.41-0.16-0.85-0.25-1.3-0.24c-1.36,0-2.04,0.88-2.04,2.46v5.35h-2.08v-9.55h2.06v1.16
			C97.28,95.96,98.25,95.42,99.28,95.45L99.28,95.45z M113.66,103.85c0.13,0,0.26,0.02,0.38,0.07c0.11,0.05,0.22,0.12,0.31,0.2
			c0.09,0.09,0.16,0.19,0.21,0.3c0.1,0.24,0.1,0.5,0,0.74c-0.05,0.11-0.12,0.22-0.21,0.3c-0.09,0.09-0.19,0.16-0.31,0.2
			c-0.12,0.05-0.25,0.08-0.38,0.08c-0.39,0-0.74-0.23-0.9-0.58c-0.1-0.24-0.1-0.5,0-0.74c0.05-0.11,0.12-0.22,0.21-0.3
			c0.09-0.09,0.19-0.16,0.31-0.2C113.4,103.87,113.53,103.85,113.66,103.85z M113.66,105.54c0.1,0,0.2-0.02,0.29-0.06
			c0.09-0.04,0.17-0.09,0.23-0.16c0.29-0.29,0.29-0.76,0-1.05c-0.07-0.07-0.15-0.12-0.23-0.16c-0.09-0.04-0.19-0.06-0.29-0.06
			c-0.1,0-0.2,0.02-0.29,0.06c-0.09,0.04-0.17,0.09-0.24,0.16c-0.29,0.29-0.29,0.76,0,1.05
			C113.27,105.46,113.46,105.54,113.66,105.54z M113.71,104.35c0.09-0.01,0.19,0.02,0.26,0.08c0.06,0.05,0.1,0.13,0.09,0.21
			c0,0.07-0.02,0.13-0.07,0.18c-0.06,0.05-0.13,0.08-0.21,0.09l0.29,0.33h-0.23l-0.27-0.33h-0.09v0.33h-0.19v-0.88H113.71z
			 M113.5,104.52v0.24h0.22c0.04,0,0.08-0.01,0.12-0.03c0.03-0.02,0.05-0.05,0.04-0.09c0-0.03-0.01-0.07-0.04-0.09
			c-0.04-0.02-0.08-0.03-0.12-0.03H113.5z"/>
		<g>
			<rect x="57.64" y="22.83" class="st1" width="31.5" height="56.61"/>
			<path class="st2" d="M59.64,51.14c-0.01-11.05,5.06-21.48,13.75-28.3c-15.63-12.29-38.26-9.58-50.55,6.06s-9.58,38.26,6.06,50.55
				c13.06,10.26,31.44,10.26,44.49,0C64.7,72.62,59.63,62.18,59.64,51.14z"/>
			<path class="st3" d="M128.2,73.45v-1.16h0.47v-0.24h-1.19v0.24h0.47v1.16H128.2z M130.51,73.45v-1.4h-0.36l-0.42,0.96l-0.42-0.96
				h-0.36v1.4h0.26v-1.05l0.39,0.91h0.27l0.39-0.91v1.06H130.51z"/>
			<path class="st3" d="M131.63,51.14c0,19.88-16.12,36-36,36c-8.07,0-15.9-2.71-22.25-7.7c15.63-12.29,18.34-34.93,6.05-50.56
				c-1.77-2.25-3.8-4.28-6.05-6.05c15.63-12.29,38.26-9.58,50.55,6.06C128.92,35.23,131.63,43.07,131.63,51.14z"/>
		</g>
	</g>
</g>
</svg>
