<?xml version="1.0" encoding="utf-8"?>
<!-- Generator: Adobe Illustrator 26.2.1, SVG Export Plug-In . SVG Version: 6.00 Build 0)  -->
<svg version="1.1" id="Camada_1" xmlns="http://www.w3.org/2000/svg" xmlns:xlink="http://www.w3.org/1999/xlink" x="0px" y="0px"
	 viewBox="0 0 952.77 338.7" style="enable-background:new 0 0 952.77 338.7;" xml:space="preserve">
<style type="text/css">
	.st0{fill:none;stroke:#939598;stroke-width:12;stroke-linecap:round;stroke-linejoin:round;}
	.st1{fill:#32BCAD;}
	.st2{fill:#939598;}
</style>
<path class="st0" d="M383.22,321.26V127c0-35.74,28.97-64.71,64.71-64.71l57.35,0.08c35.64,0.07,64.5,28.99,64.49,64.63v41.34
	c0,35.74-28.97,64.71-64.71,64.72H424"/>
<path class="st0" d="M585.8,62.28h24.88c14.67,0,26.56,11.89,26.56,26.56v145.1"/>
<path class="st1" d="M631.9,39.8l-11.28-11.29c-2.8-2.79-2.8-7.33,0-10.13c0,0,0,0,0,0L631.9,7.1c2.8-2.8,7.35-2.8,10.15,0
	l11.27,11.28c2.8,2.79,2.8,7.33,0,10.13c0,0,0,0,0,0L642,39.8c-2.8,2.8-7.34,2.8-10.14,0c0,0,0,0,0,0"/>
<path class="st0" d="M685,62.15h24.67c12.69-0.01,24.86,5.03,33.84,14l57.71,57.71c7.47,7.48,19.58,7.48,27.05,0.02
	c0.01-0.01,0.01-0.01,0.02-0.02l57.5-57.49c8.97-8.97,21.14-14.01,33.83-14h20.06"/>
<path class="st0" d="M685,232.67h24.67c12.69,0,24.86-5.03,33.84-14l57.71-57.71c7.48-7.47,19.59-7.47,27.07,0l57.5,57.5
	c8.97,8.97,21.14,14,33.83,14h20.06"/>
<path class="st1" d="M258.13,254.53c-12.29,0.04-24.1-4.83-32.78-13.53L178,193.62c-3.48-3.33-8.96-3.33-12.44,0l-47.51,47.51
	c-8.68,8.72-20.48,13.6-32.78,13.57H76l60,60c18.74,18.7,49.07,18.7,67.81,0l60.12-60.13L258.13,254.53z"/>
<path class="st1" d="M85.28,87.09c12.3-0.03,24.1,4.85,32.78,13.57l47.51,47.52c3.44,3.43,9,3.43,12.44,0l47.34-47.34
	c8.67-8.73,20.48-13.62,32.78-13.58h5.7l-60.12-60.12c-18.72-18.73-49.07-18.73-67.8-0.01c0,0-0.01,0.01-0.01,0.01L76,87.09H85.28z"
	/>
<path class="st1" d="M313.56,137l-36.33-36.33c-0.82,0.33-1.69,0.51-2.58,0.52h-16.52c-8.6,0.02-16.84,3.44-22.93,9.5L187.86,158
	c-8.88,8.86-23.25,8.86-32.13,0l-47.52-47.49c-6.09-6.07-14.33-9.49-22.93-9.51H65c-0.84-0.02-1.66-0.18-2.44-0.49L26,137
	c-18.7,18.74-18.7,49.07,0,67.81l36.48,36.48c0.78-0.31,1.6-0.48,2.44-0.49h20.36c8.6-0.03,16.84-3.44,22.93-9.51l47.51-47.51
	c8.59-8.58,23.56-8.58,32.14,0l47.34,47.33c6.09,6.06,14.33,9.48,22.93,9.5h16.52c0.89,0.01,1.76,0.18,2.58,0.52l36.33-36.33
	c18.73-18.72,18.73-49.07,0.01-67.8C313.57,137,313.56,136.99,313.56,137"/>
<path class="st2" d="M432.54,304.75c-3,0.13-5.98,0.58-8.89,1.35v11.84c2.22,0.78,4.56,1.17,6.92,1.16c5.94,0,8.75-2,8.75-7.23
	C439.32,306.95,437.02,304.75,432.54,304.75 M421.65,326.75v-23.43h1.63l0.17,1c3.03-0.81,6.13-1.3,9.26-1.49
	c2.17-0.15,4.32,0.47,6.07,1.76c2,1.66,2.68,4.34,2.68,7.26s-1,5.94-3.8,7.53c-2.14,1.07-4.5,1.59-6.89,1.53
	c-2.41-0.02-4.81-0.38-7.12-1.09v6.89L421.65,326.75z"/>
<path class="st2" d="M456.36,304.68c-5.93,0-8.58,1.86-8.58,7.09c0,5.05,2.61,7.33,8.58,7.33s8.55-1.84,8.55-7.06
	C464.91,306.99,462.3,304.68,456.36,304.68 M464,319.1c-2,1.42-4.62,1.83-7.64,1.83s-5.73-0.44-7.66-1.83
	c-2.17-1.53-3.06-4-3.06-7.19s0.89-5.67,3.06-7.23c1.93-1.39,4.58-1.83,7.66-1.83s5.67,0.44,7.64,1.83c2.2,1.56,3.05,4.1,3.05,7.19
	S466.17,317.57,464,319.1"/>
<path class="st2" d="M492.1,320.45l-6.62-14.21h-0.13l-6.52,14.21H477l-7-17.13h2.2l5.87,14.38h0.14l6.38-14.38h1.83l6.54,14.38
	h0.14l5.73-14.38H501l-7.06,17.13H492.1z"/>
<path class="st2" d="M513.75,304.64c-5.5,0-7.36,2.45-7.7,6h15.4C521.28,306.74,519.28,304.64,513.75,304.64 M513.68,320.93
	c-3.29,0-5.43-0.48-7.13-1.9c-2-1.73-2.67-4.24-2.67-7.12s0.91-5.67,3.19-7.33c1.99-1.25,4.33-1.86,6.68-1.73
	c2.4-0.14,4.78,0.43,6.85,1.66c2.47,1.66,2.95,4.58,2.95,7.9H506c0.07,3.53,1.22,6.65,7.87,6.65c2.97-0.08,5.93-0.41,8.85-1v1.8
	c-2.96,0.61-5.98,0.96-9,1.05"/>
<path class="st2" d="M529.3,320.45v-17.13h1.62l0.17,1c3.63-0.92,5.33-1.49,8.52-1.49h0.24v1.9h-0.48c-2.68,0-4.31,0.37-8.07,1.35
	v14.35L529.3,320.45z"/>
<path class="st2" d="M551.47,304.64c-5.49,0-7.36,2.45-7.7,6h15.4C559,306.74,557,304.64,551.47,304.64 M551.4,320.93
	c-3.29,0-5.42-0.48-7.12-1.9c-2-1.73-2.68-4.24-2.68-7.12s0.92-5.67,3.19-7.33c1.99-1.25,4.33-1.86,6.68-1.73
	c2.4-0.14,4.78,0.43,6.85,1.66c2.48,1.66,3,4.58,3,7.9H543.7c0.07,3.53,1.22,6.65,7.87,6.65c2.98-0.08,5.94-0.41,8.86-1v1.8
	c-2.96,0.61-5.98,0.96-9,1.05"/>
<path class="st2" d="M583.2,305.83c-2.22-0.78-4.56-1.17-6.92-1.15c-5.94,0-8.75,2-8.75,7.23c0,4.95,2.31,7.12,6.78,7.12
	c3-0.14,5.98-0.58,8.89-1.33L583.2,305.83z M583.58,320.45l-0.18-1c-3.03,0.81-6.13,1.32-9.26,1.5c-2.17,0.16-4.33-0.47-6.07-1.77
	c-2-1.66-2.68-4.34-2.68-7.25c0-3.06,1-5.94,3.8-7.5c2.14-1.09,4.52-1.63,6.92-1.56c2.4,0.03,4.79,0.4,7.09,1.08v-7.85h2v24.35
	L583.58,320.45z"/>
<path class="st2" d="M614.55,304.75c-3,0.13-5.98,0.58-8.89,1.35v11.81c2.22,0.8,4.56,1.2,6.92,1.19c5.94,0,8.75-2,8.75-7.23
	C621.33,306.95,619.03,304.75,614.55,304.75 M619.67,319.4c-2.13,1.07-4.5,1.59-6.88,1.53c-2.61-0.02-5.2-0.45-7.67-1.29l-0.1,0.81
	h-1.36V296.1h2v8.17c2.97-0.76,6-1.23,9.06-1.42c2.17-0.15,4.32,0.47,6.07,1.76c2,1.66,2.68,4.34,2.68,7.26
	S622.47,317.81,619.67,319.4"/>
<path class="st2" d="M626.13,327v-1.86c1,0.1,1.9,0.17,2.54,0.17c2.48,0,4-0.72,5.36-3.53l0.65-1.36l-9-17.13H628l7.67,14.79h0.13
	l7.29-14.79h2.28l-9.64,19.24c-1.76,3.49-3.66,4.64-7.16,4.64c-0.83,0-1.65-0.06-2.47-0.17"/>
<path class="st2" d="M673,310.68h-6.64v6H673c4.58,0,6.31-0.51,6.31-3c0-2.68-2.38-3-6.35-3 M671.76,301h-5.42v6.1h5.46
	c4.51,0,6.31-0.54,6.31-3.08c0-2.72-2.28-3-6.35-3 M682.08,318.9c-2.45,1.56-5.4,1.62-10.79,1.62h-10.15v-23.3h9.91
	c4.65,0,7.5,0.06,9.87,1.49c1.61,0.96,2.53,2.75,2.38,4.61c0,2.44-1,4.07-3.67,5.16v0.13c3,0.68,4.92,2.21,4.92,5.5
	c0.15,1.92-0.81,3.75-2.47,4.72"/>
<path class="st2" d="M704.84,313.26c-2-0.17-4-0.27-6.17-0.27c-3.49,0-4.72,0.71-4.72,2.31s1,2.3,3.7,2.3
	c2.43-0.08,4.84-0.41,7.19-1L704.84,313.26z M705.84,320.45l-0.13-1c-3.03,0.85-6.15,1.36-9.3,1.5c-1.82,0.12-3.63-0.32-5.19-1.26
	c-2.24-1.88-2.53-5.23-0.65-7.47c0.46-0.54,1.02-0.99,1.65-1.31c1.8-0.85,4.21-0.92,6.42-0.92c1.79,0,4.2,0.1,6.2,0.24v-0.31
	c0-2.68-1.76-3.56-6.58-3.56c-1.86,0-4.14,0.1-6.31,0.3v-3.46c2.41-0.2,5.13-0.33,7.37-0.33c3,0,6.07,0.23,8,1.59
	s2.34,3.33,2.34,5.87v10.14L705.84,320.45z"/>
<path class="st2" d="M732,320.45V311c0-3.12-1.59-4.24-4.44-4.24c-2.37,0.1-4.71,0.47-7,1.08v12.62h-4.78v-17.14h3.9l0.17,1.09
	c2.98-0.88,6.06-1.4,9.16-1.56c2.11-0.17,4.2,0.46,5.87,1.76c1.35,1.22,1.86,2.92,1.86,5.36v10.48H732z"/>
<path class="st2" d="M750.26,320.93c-2.21,0-4.62-0.31-6.38-1.8c-2.1-1.7-2.71-4.37-2.71-7.26c0-2.71,0.88-5.67,3.49-7.33
	c2.14-1.39,4.78-1.69,7.53-1.69c2,0,3.9,0.13,6,0.33v3.67c-1.73-0.17-3.8-0.3-5.46-0.3c-4.55,0-6.69,1.42-6.69,5.36
	c0,3.69,1.6,5.29,5.33,5.29c2.42-0.08,4.82-0.37,7.19-0.88v3.52c-2.74,0.64-5.53,1-8.34,1.09"/>
<path class="st2" d="M772.73,306.44c-4.55,0-6.55,1.43-6.55,5.33s2,5.56,6.55,5.56s6.48-1.39,6.48-5.29S777.28,306.44,772.73,306.44
	 M780.94,319.13c-2.1,1.42-4.85,1.8-8.21,1.8s-6.17-0.41-8.24-1.8c-2.38-1.56-3.23-4.14-3.23-7.22s0.85-5.71,3.23-7.27
	c2.07-1.39,4.81-1.79,8.24-1.79s6.11,0.4,8.21,1.79c2.37,1.56,3.19,4.18,3.19,7.23S783.28,317.57,780.94,319.13"/>
<path class="st2" d="M811.74,320.93c-2.88,0-6-0.48-8.34-2.41c-2.78-2.31-3.63-5.87-3.63-9.7c0-3.43,1.09-7.5,4.71-9.87
	c2.82-1.83,6.31-2.21,9.84-2.21c2.58,0,5.23,0.17,8.11,0.41v4.17c-2.47-0.2-5.53-0.37-7.9-0.37c-6.62,0-9.43,2.51-9.43,7.87
	s2.61,7.9,7.49,7.9c3.49-0.12,6.95-0.59,10.35-1.39v4.14C819.26,320.32,815.51,320.81,811.74,320.93"/>
<path class="st2" d="M837,305.9c-4,0-5.5,1.43-5.81,4h11.54C842.59,307.12,840.96,305.9,837,305.9 M836.28,320.9
	c-2.81,0-5.36-0.34-7.26-1.9s-2.75-4.24-2.75-7.16c0-2.61,0.85-5.53,3.23-7.23c2.1-1.49,4.78-1.79,7.5-1.79
	c2.44,0,5.32,0.27,7.42,1.73c2.75,1.93,3,4.92,3,8.44h-16.26c0.1,2.62,1.49,4.31,6.31,4.31c3.06-0.07,6.11-0.36,9.13-0.88v3.36
	C843.2,320.43,839.74,320.8,836.28,320.9"/>
<path class="st2" d="M868.72,320.45V311c0-3.12-1.59-4.24-4.44-4.24c-2.37,0.1-4.71,0.47-7,1.08v12.62h-4.78v-17.14h3.9l0.17,1.09
	c2.98-0.88,6.06-1.4,9.16-1.56c2.11-0.17,4.2,0.46,5.87,1.76c1.35,1.22,1.86,2.92,1.86,5.36v10.48H868.72z"/>
<path class="st2" d="M887.09,320.93c-2.31,0-4.41-0.65-5.56-2.45c-0.94-1.56-1.38-3.36-1.26-5.18v-6.42h-3.46v-3.56h3.46l0.51-5.19
	H885v5.19h6.75v3.56H885v5.5c-0.06,1.11,0.1,2.22,0.47,3.26c0.51,1.15,1.63,1.59,3.13,1.59c1.15-0.02,2.29-0.13,3.42-0.34v3.43
	c-1.63,0.35-3.28,0.56-4.95,0.61"/>
<path class="st2" d="M896.44,320.45v-17.13h3.9l0.17,1.09c2.74-0.93,5.59-1.45,8.48-1.56c0.2-0.01,0.41-0.01,0.61,0V307
	c-0.54,0-1.19,0-1.66,0c-2.27,0.01-4.53,0.3-6.72,0.88v12.65L896.44,320.45z"/>
<path class="st2" d="M927,313.26c-2-0.17-4-0.27-6.18-0.27c-3.49,0-4.71,0.71-4.71,2.31s1,2.3,3.69,2.3c2.43-0.08,4.84-0.41,7.2-1
	V313.26z M928,320.45l-0.14-1c-3.03,0.85-6.15,1.36-9.3,1.5c-1.82,0.12-3.63-0.32-5.19-1.26c-1.28-0.98-1.99-2.53-1.9-4.14
	c-0.09-2,1.06-3.84,2.89-4.64c1.8-0.85,4.2-0.92,6.41-0.92c1.8,0,4.21,0.1,6.21,0.24v-0.31c0-2.68-1.77-3.56-6.58-3.56
	c-1.87,0-4.14,0.1-6.31,0.3v-3.46c2.41-0.2,5.12-0.33,7.36-0.33c3,0,6.07,0.23,8,1.59s2.34,3.33,2.34,5.87v10.14L928,320.45z"/>
<path class="st2" d="M937.92,296.1h4.79v24.35h-4.79V296.1z"/>
</svg>
