<?xml version="1.0" encoding="utf-8"?>
<!-- Generator: Adobe Illustrator 26.2.1, SVG Export Plug-In . SVG Version: 6.00 Build 0)  -->
<svg version="1.1" id="Layer_1" xmlns="http://www.w3.org/2000/svg" xmlns:xlink="http://www.w3.org/1999/xlink" x="0px" y="0px"
	 viewBox="0 0 1045.96 275.14" style="enable-background:new 0 0 1045.96 275.14;" xml:space="preserve">
<style type="text/css">
	.st0{fill:#002169;}
	.st1{fill:#FFFFFF;}
	.st2{fill:#FEFEFE;}
	.st3{fill:#FBFBFC;}
	.st4{fill:#F9F9FB;}
	.st5{fill:#F6F6F9;}
	.st6{fill:#F4F4F8;}
	.st7{fill:#F1F1F6;}
	.st8{fill:#F0EFF5;}
	.st9{fill:#EDECF3;}
	.st10{fill:#EBEAF2;}
	.st11{fill:#E8E7F0;}
	.st12{fill:#E5E4EE;}
	.st13{fill:#E3E3ED;}
	.st14{fill:#E0E0EB;}
	.st15{fill:#DEDEEA;}
	.st16{fill:#DCDBE8;}
	.st17{fill:#DAD9E7;}
	.st18{fill:#D7D6E5;}
	.st19{fill:#D5D4E4;}
	.st20{fill:#D2D1E2;}
	.st21{fill:#D0CFE1;}
	.st22{fill:#CDCDDF;}
	.st23{fill:#CBCADD;}
	.st24{fill:#C9C8DC;}
	.st25{fill:#C6C5DB;}
	.st26{fill:#C4C3D9;}
	.st27{fill:#C1C0D8;}
	.st28{fill:#BFBED6;}
	.st29{fill:#BDBCD5;}
	.st30{fill:#BBBAD3;}
	.st31{fill:#B8B7D2;}
	.st32{fill:#B5B4D0;}
	.st33{fill:#B3B2CF;}
	.st34{fill:#B1B0CD;}
	.st35{fill:#AFAECC;}
	.st36{fill:#ACABCA;}
	.st37{fill:#AAA9C9;}
	.st38{fill:#A7A6C7;}
	.st39{fill:#A6A5C6;}
	.st40{fill:#A3A2C4;}
	.st41{fill:#A1A0C3;}
	.st42{fill:#9E9DC1;}
	.st43{fill:#9C9BBF;}
	.st44{fill:#9A99BE;}
	.st45{fill:#9796BC;}
	.st46{fill:#9594BB;}
	.st47{fill:#9292B9;}
	.st48{fill:#9190B8;}
	.st49{fill:#8E8DB7;}
	.st50{fill:#8C8BB5;}
	.st51{fill:#8989B4;}
	.st52{fill:#8786B2;}
	.st53{fill:#8584B1;}
	.st54{fill:#8282AF;}
	.st55{fill:#8080AE;}
	.st56{fill:#7E7DAC;}
	.st57{fill:#7C7CAB;}
	.st58{fill:#7979A9;}
	.st59{fill:#7777A8;}
	.st60{fill:#7575A6;}
	.st61{fill:#7373A5;}
	.st62{fill:#7071A3;}
	.st63{fill:#6D6EA2;}
	.st64{fill:#6B6CA0;}
	.st65{fill:#696A9F;}
	.st66{fill:#67689E;}
	.st67{fill:#64669C;}
	.st68{fill:#62649B;}
	.st69{fill:#606299;}
	.st70{fill:#5E6098;}
	.st71{fill:#5B5D96;}
	.st72{fill:#595C95;}
	.st73{fill:#575993;}
	.st74{fill:#545791;}
	.st75{fill:#525590;}
	.st76{fill:#4F538F;}
	.st77{fill:#4D518D;}
	.st78{fill:#4B4F8C;}
	.st79{fill:#494D8B;}
	.st80{fill:#464B89;}
	.st81{fill:#444988;}
	.st82{fill:#414786;}
	.st83{fill:#3E4584;}
	.st84{fill:#3C4383;}
	.st85{fill:#394181;}
	.st86{fill:#373F80;}
	.st87{fill:#343D7F;}
	.st88{fill:#323B7D;}
	.st89{fill:#2F397C;}
	.st90{fill:#2D387B;}
	.st91{fill:#2A3579;}
	.st92{fill:#273478;}
	.st93{fill:#243276;}
	.st94{fill:#203074;}
	.st95{fill:#1E2E73;}
	.st96{fill:#1A2C72;}
	.st97{fill:#172B70;}
	.st98{fill:#12286F;}
	.st99{fill:#0E276E;}
	.st100{fill:#08256C;}
	.st101{fill:#03236B;}
	.st102{fill:#E40F1C;}
	.st103{fill:#E51F21;}
	.st104{fill:#E52723;}
	.st105{fill:#E63028;}
	.st106{fill:#E7362B;}
	.st107{fill:#E83E30;}
	.st108{fill:#E84333;}
	.st109{fill:#E94C39;}
	.st110{fill:#EA523D;}
	.st111{fill:#EA5741;}
	.st112{fill:#EC5F48;}
	.st113{fill:#EC644C;}
	.st114{fill:#ED6C52;}
	.st115{fill:#EE7157;}
	.st116{fill:#EF785D;}
	.st117{fill:#EF7C61;}
	.st118{fill:#F08469;}
	.st119{fill:#F1886D;}
	.st120{fill:#F18C72;}
	.st121{fill:#F29479;}
	.st122{fill:#F3987E;}
	.st123{fill:#F49F86;}
	.st124{fill:#F5A48A;}
	.st125{fill:#F5A991;}
	.st126{fill:#F6AE96;}
	.st127{fill:#F7B39C;}
	.st128{fill:#F7B9A3;}
	.st129{fill:#F8BDA8;}
	.st130{fill:#F9C3B0;}
	.st131{fill:#F9C7B5;}
	.st132{fill:#FACEBD;}
	.st133{fill:#FBD2C2;}
	.st134{fill:#FBD7C9;}
	.st135{fill:#FCDCCF;}
	.st136{fill:#FCE0D4;}
	.st137{fill:#FDE5DB;}
	.st138{fill:#FDE9E0;}
	.st139{fill:#FEEEE8;}
	.st140{fill:#FEF2EE;}
	.st141{fill:#FFF8F5;}
	.st142{fill:#FFFCFA;}
</style>
<g>
	<g>
		<path class="st0" d="M269.08,148.85l28.3-124.33h-47.46l5.3-23.05h126.74l-3.54,16.55c-0.89,4.72-3.24,6.5-7.96,6.5h-38.61
			l-28.3,124.33H269.08z"/>
		<path class="st0" d="M391.4,45.77c1.17-5.02,4.42-7.38,9.43-7.38h25.05l-25.34,110.46h-32.72L391.4,45.77L391.4,45.77z
			 M430.59,17.42c-1.18,5.02-3.83,7.09-8.84,7.09h-25.64l3.83-16.55c0.89-4.13,3.54-6.5,8.55-6.5h25.64L430.59,17.42z"/>
		<path class="st0" d="M536.1,45.48c-2.65,11.22-8.55,14.47-18.56,14.47h-15.33c-15.03,0-25.64,3.84-30.95,15.66
			c-4.13,8.86-7.67,23.33-7.67,32.18c0,14.18,7.08,19.5,25.06,19.5h27.41l-5.01,21.56h-32.12c-34.49,0-52.17-14.76-49.23-44.29
			c1.18-12.41,3.54-20.68,6.79-29.54c9.72-25.4,31.24-36.63,69.26-36.63h32.12L536.1,45.48z"/>
		<path class="st0" d="M528.43,148.85L560.86,6.79c0.59-2.95,2.36-4.43,5.6-4.72L595.05,0l-17.38,75.61
			c24.16-6.79,38.31-18.02,48.63-37.22h37.13c-12.37,25.11-31.24,41.35-59.53,51.1c15.03,16.24,28.88,35.15,45.98,59.36H609.2
			c-12.98-18.9-24.17-33.66-37.13-48.14l-10.91,48.14H528.43z"/>
		<path class="st0" d="M729.74,36.92c35.37,0,45.39,15.36,45.39,28.94c0,6.79-1.18,13.3-3.24,18.9
			c-5.6,15.95-18.56,21.26-40.96,21.26h-40.09c-1.77,15.95,6.19,21.27,21.22,21.27h43.91l-4.13,16.84
			c-0.58,2.65-2.06,4.72-5.89,4.72h-40.67c-29.18,0-46.87-12.7-46.87-42.52c0-12.11,2.65-21.27,6.2-31.61
			c8.55-24.51,32.42-37.8,60.12-37.8H729.74L729.74,36.92z M726.79,85.06c7.67,0,12.09-2.36,14.45-7.97
			c1.17-2.95,1.47-5.02,1.76-8.86c0.29-5.02-2.36-10.63-15.03-10.63h-4.72c-17.09,0-25.34,10.34-28.59,27.47H726.79z"/>
		<path class="st0" d="M856.47,53.45c-0.88,4.74-3.54,6.5-8.84,6.5h-28.6l-10.91,48.14c-2.65,11.52,2.37,19.2,13.56,19.2h20.34
			l-4.72,21.56H809.9c-26.52,0-40.37-15.65-33.9-43.42l19.45-84.76c0.6-2.95,2.07-4.72,5.61-5.02l28.59-2.07l-5.9,24.81h35.96
			L856.47,53.45z"/>
		<path class="st0" d="M242.21,269.72l20.67-92.04c0.97-4.1,4.29-5.47,7.61-5.47h39.39c19.51,0,31.4,10.55,28.67,26.57l-0.58,3.32
			c-2.15,12.12-10.34,19.15-22.43,23.25l19.11,44.36h-19.7c-4.29,0-6.04-0.78-7.8-4.3l-15.02-36.93h-17.94l-9.36,41.23H242.21
			L242.21,269.72z M295.84,213.25c11.11,0,16.96-3.91,18.72-12.31l0.39-1.95c1.17-5.86-0.78-11.53-10.33-11.53h-21.06l-5.85,25.8
			H295.84z"/>
		<path class="st0" d="M388.86,195.65c23.4,0,30.02,10.16,30.02,19.15c0,4.5-0.78,8.8-2.14,12.51
			c-3.71,10.56-12.28,14.07-27.1,14.07h-26.52c-1.17,10.56,4.09,14.07,14.04,14.07h29.06l-2.72,11.14c-0.39,1.75-1.37,3.13-3.9,3.13
			h-26.91c-19.31,0-31.01-8.4-31.01-28.14c0-8.01,1.76-14.07,4.1-20.91c5.65-16.22,21.45-25.03,39.77-25.03H388.86L388.86,195.65z
			 M386.91,227.51c5.07,0,8-1.57,9.55-5.27c0.79-1.96,0.98-3.32,1.17-5.87c0.19-3.32-1.56-7.04-9.95-7.04h-3.12
			c-11.31,0-16.77,6.85-18.92,18.18H386.91z"/>
		<path class="st0" d="M493.38,201.72c-1.75,6.64-6.63,9.19-13.64,9.19h-17.95c-10.14,0-13.07,2.54-13.07,5.47
			c0,2.54,1.96,3.91,5.66,5.47l13.84,5.87c11.51,4.88,16.38,10.94,16.38,17.79c0,12.69-9.36,24.22-37.64,24.22h-34.71l1.17-5.08
			c1.17-5.47,5.46-10.15,15.6-10.15h18.73c12.09,0,13.65-3.33,13.65-6.26c0-1.95-1.95-3.71-5.07-5.08l-18.53-8.01
			c-6.83-2.93-12.87-7.62-12.48-16.22c0.78-15.64,17.94-22.28,38.81-22.28h30.62L493.38,201.72z"/>
		<path class="st0" d="M546.81,206.61c-0.58,3.13-2.34,4.3-5.84,4.3h-18.92l-7.22,31.85c-1.76,7.62,1.56,12.7,8.97,12.7h13.46
			l-3.12,14.26h-18.13c-17.55,0-26.72-10.35-22.43-28.73l12.87-56.08c0.39-1.95,1.37-3.13,3.71-3.32l18.92-1.37l-3.9,16.41h23.78
			L546.81,206.61z"/>
		<path class="st0" d="M588.94,196.64c32.77,0,32.38,13.48,27.5,34.39l-8.58,36.94c-9.75,1.57-20.28,2.74-31.4,2.74
			c-17.16,0-31.79-5.47-31.79-21.89c0-18.56,15.41-25.21,31.79-25.21h20.08l0.39-2.16c0.97-5.47,1.37-10.54-8.19-10.54h-28.27
			c-1.57,0-2.74-0.98-2.34-2.74l2.73-11.53H588.94L588.94,196.64z M593.43,237.09h-16c-7.21,0-11.11,4.11-11.11,10.17
			c0,7.42,7.21,8.78,13.26,8.78c4.09,0,7.21-0.58,9.94-1.55L593.43,237.09z"/>
		<path class="st0" d="M713.36,196.64l-16.19,70.75c-10.92,1.75-27.3,3.32-41.93,3.32c-22.42,0-32.56-10.36-28.08-29.71l10.14-44.36
			h21.65l-10.14,44.17c-2.15,9.57-0.59,15.05,11.5,15.05c6.24,0,12.48-0.39,18.33-1.36l13.26-57.85H713.36z"/>
		<path class="st0" d="M712.77,269.72c0,0,14.03-61.36,15.8-68.79c10.52-3.32,23.01-5.28,36.26-5.28h10.92l-3.7,18.38
			c-3.5-1.17-6.83-1.96-11.7-1.96c-4.68,0-9.55,0.59-13.06,1.96l-12.88,55.69H712.77z"/>
		<path class="st0" d="M814.17,196.64c32.76,0,32.38,13.48,27.51,34.39l-8.59,36.94c-9.75,1.57-20.28,2.74-31.4,2.74
			c-17.16,0-31.79-5.47-31.79-21.89c0-18.56,15.41-25.21,31.79-25.21h20.08l0.39-2.16c0.98-5.47,1.37-10.54-8.19-10.54h-28.28
			c-1.56,0-2.73-0.98-2.35-2.74l2.74-11.53H814.17L814.17,196.64z M818.67,237.09h-16c-7.21,0-11.11,4.11-11.11,10.17
			c0,7.42,7.21,8.78,13.26,8.78c4.1,0,7.21-0.58,9.95-1.55L818.67,237.09z"/>
		<path class="st0" d="M846.15,269.72l16.18-70.74c10.93-1.76,27.31-3.33,41.93-3.33c22.43,0,32.57,10.36,28.08,29.71l-10.14,44.36
			h-21.64l10.14-44.16c2.15-9.58,0.58-15.05-11.5-15.05c-6.24,0-12.48,0.4-18.33,1.37l-13.26,57.85H846.15z"/>
		<path class="st0" d="M995.15,206.61c-0.59,3.13-2.34,4.3-5.86,4.3h-18.92l-7.21,31.85c-1.76,7.62,1.56,12.7,8.97,12.7h13.46
			l-3.11,14.26h-18.15c-17.56,0-26.72-10.35-22.42-28.73l12.86-56.08c0.39-1.95,1.37-3.13,3.7-3.32l18.91-1.37l-3.89,16.41h23.79
			L995.15,206.61z"/>
		<path class="st0" d="M1028.06,170.14c12.84,0,19.41,8.23,17.61,19.92c-1.88,12-8.92,20-23.79,20c-11.5,0-19.33-8.7-17.22-20.55
			C1006.77,177.75,1014.75,170.14,1028.06,170.14L1028.06,170.14z M1022.66,205.9c10.57,0,16.11-5.02,18.16-16
			c1.72-9.41-2.98-15.76-13.39-15.76c-10.71,0-16.51,6.04-17.99,15.68C1007.79,200.33,1013.11,205.9,1022.66,205.9L1022.66,205.9z
			 M1013.57,200.18h5.1l1.95-8.47h3.99l3.3,7.29c0.39,0.78,0.86,1.18,1.88,1.18h4.54l-4.47-9.1c2.67-0.94,4.31-2.59,4.93-5.41
			l0.31-1.32c0.79-3.78-1.57-5.97-6.57-5.97h-6.58c-2.5,0-3.68,1.1-4.07,2.9L1013.57,200.18L1013.57,200.18z M1025.47,188.34
			c2.43,0,3.75-0.94,4.23-3.06l0.15-0.86c0.39-1.57-0.38-2.59-2.58-2.59h-4.46l-1.49,6.51H1025.47z"/>
		<path class="st1" d="M198.52,251.67c0,10.24-41.31,23.47-89.86,23.47c-48.55,0-89.85-13.22-89.85-23.47
			c0-10.31,41.31-19.63,89.85-19.63C157.21,232.04,198.52,241.36,198.52,251.67z"/>
		<path class="st2" d="M198.04,251.65c0,10.18-41.1,23.31-89.39,23.31c-48.28,0-89.38-13.13-89.38-23.31
			c0-10.26,41.09-19.49,89.38-19.49C156.94,232.16,198.04,241.39,198.04,251.65z"/>
		<path class="st3" d="M197.57,251.62c0,10.14-40.9,23.18-88.91,23.18c-48.01,0-88.9-13.04-88.9-23.18
			c0-10.18,40.89-19.35,88.9-19.35C156.67,232.27,197.57,241.43,197.57,251.62z"/>
		<path class="st4" d="M197.09,251.6c0,10.08-40.68,23.03-88.43,23.03c-47.74,0-88.43-12.95-88.43-23.03
			c0-10.14,40.69-19.23,88.43-19.23C156.41,232.37,197.09,241.46,197.09,251.6z"/>
		<path class="st4" d="M196.61,251.58c0,10.03-40.46,22.88-87.95,22.88c-47.48,0-87.95-12.85-87.95-22.88
			c0-10.08,40.46-19.09,87.95-19.09C156.15,232.49,196.61,241.5,196.61,251.58z"/>
		<path class="st5" d="M196.14,251.56c0,9.97-40.26,22.74-87.48,22.74c-47.21,0-87.48-12.77-87.48-22.74
			c0-10.02,40.27-18.96,87.48-18.96C155.88,232.6,196.14,241.54,196.14,251.56z"/>
		<path class="st6" d="M195.66,251.53c0,9.92-40.05,22.6-87.01,22.6c-46.95,0-87-12.69-87-22.6c0-9.96,40.05-18.82,87-18.82
			C155.61,232.71,195.66,241.57,195.66,251.53z"/>
		<path class="st6" d="M195.19,251.52c0,9.85-39.85,22.45-86.53,22.45c-46.68,0-86.52-12.6-86.52-22.45
			c0-9.91,39.84-18.7,86.52-18.7C155.34,232.82,195.19,241.61,195.19,251.52z"/>
		<path class="st7" d="M194.72,251.49c0,9.81-39.64,22.31-86.06,22.31c-46.42,0-86.05-12.5-86.05-22.31
			c0-9.85,39.64-18.56,86.05-18.56C155.08,232.93,194.72,241.65,194.72,251.49z"/>
		<path class="st8" d="M194.24,251.47c0,9.75-39.42,22.15-85.58,22.15c-46.15,0-85.58-12.41-85.58-22.15
			c0-9.79,39.43-18.42,85.58-18.42C154.82,233.05,194.24,241.68,194.24,251.47z"/>
		<path class="st9" d="M193.76,251.45c0,9.69-39.22,22.01-85.11,22.01c-45.88,0-85.1-12.33-85.1-22.01c0-9.74,39.22-18.3,85.1-18.3
			C154.55,233.15,193.76,241.71,193.76,251.45z"/>
		<path class="st9" d="M193.29,251.43c0,9.63-39.02,21.86-84.64,21.86c-45.62,0-84.63-12.23-84.63-21.86
			c0-9.69,39.01-18.16,84.63-18.16C154.27,233.27,193.29,241.75,193.29,251.43z"/>
		<path class="st10" d="M192.82,251.41c0,9.58-38.8,21.72-84.16,21.72c-45.35,0-84.15-12.14-84.15-21.72
			c0-9.62,38.8-18.02,84.15-18.02C154.02,233.39,192.82,241.79,192.82,251.41z"/>
		<path class="st11" d="M192.34,251.39c0,9.52-38.6,21.58-83.69,21.58c-45.08,0-83.68-12.06-83.68-21.58
			c0-9.56,38.59-17.89,83.68-17.89C153.74,233.5,192.34,241.83,192.34,251.39z"/>
		<path class="st11" d="M191.87,251.37c0,9.46-38.39,21.42-83.21,21.42c-44.82,0-83.2-11.96-83.2-21.42
			c0-9.51,38.38-17.75,83.2-17.75C153.48,233.61,191.87,241.86,191.87,251.37z"/>
		<path class="st12" d="M191.39,251.35c0,9.41-38.18,21.28-82.74,21.28c-44.55,0-82.73-11.88-82.73-21.28
			c0-9.46,38.18-17.63,82.73-17.63C153.22,233.72,191.39,241.89,191.39,251.35z"/>
		<path class="st13" d="M190.92,251.32c0,9.36-37.97,21.14-82.26,21.14c-44.29,0-82.26-11.78-82.26-21.14
			c0-9.39,37.97-17.49,82.26-17.49C152.94,233.83,190.92,241.93,190.92,251.32z"/>
		<path class="st13" d="M190.44,251.31c0,9.3-37.75,20.99-81.78,20.99c-44.02,0-81.78-11.69-81.78-20.99
			c0-9.35,37.76-17.36,81.78-17.36C152.68,233.94,190.44,241.96,190.44,251.31z"/>
		<path class="st14" d="M189.97,251.28c0,9.24-37.56,20.85-81.31,20.85c-43.75,0-81.3-11.6-81.3-20.85
			c0-9.29,37.55-17.23,81.3-17.23C152.41,234.05,189.97,241.99,189.97,251.28z"/>
		<path class="st15" d="M189.49,251.26c0,9.18-37.35,20.69-80.84,20.69c-43.49,0-80.83-11.51-80.83-20.69
			c0-9.23,37.34-17.1,80.83-17.1C152.15,234.16,189.49,242.03,189.49,251.26z"/>
		<path class="st16" d="M189.01,251.24c0,9.12-37.13,20.55-80.36,20.55c-43.22,0-80.35-11.43-80.35-20.55
			c0-9.18,37.13-16.96,80.35-16.96C151.88,234.28,189.01,242.06,189.01,251.24z"/>
		<path class="st16" d="M188.54,251.21c0,9.07-36.92,20.41-79.88,20.41c-42.95,0-79.88-11.34-79.88-20.41
			c0-9.12,36.93-16.83,79.88-16.83C151.61,234.39,188.54,242.1,188.54,251.21z"/>
		<path class="st17" d="M188.06,251.19c0,9.02-36.71,20.26-79.41,20.26c-42.69,0-79.41-11.25-79.41-20.26
			c0-9.06,36.72-16.69,79.41-16.69C151.35,234.5,188.06,242.14,188.06,251.19z"/>
		<path class="st18" d="M187.59,251.17c0,8.96-36.51,20.11-78.94,20.11c-42.42,0-78.93-11.15-78.93-20.11
			c0-9,36.51-16.56,78.93-16.56C151.08,234.61,187.59,242.17,187.59,251.17z"/>
		<path class="st18" d="M187.12,251.15c0,8.9-36.3,19.96-78.46,19.96c-42.16,0-78.45-11.07-78.45-19.96
			c0-8.95,36.29-16.43,78.45-16.43C150.81,234.73,187.12,242.2,187.12,251.15z"/>
		<path class="st19" d="M186.64,251.13c0,8.84-36.09,19.82-77.98,19.82c-41.89,0-77.98-10.98-77.98-19.82
			c0-8.9,36.09-16.3,77.98-16.3C150.55,234.83,186.64,242.24,186.64,251.13z"/>
		<path class="st20" d="M186.17,251.11c0,8.78-35.89,19.66-77.51,19.66c-41.62,0-77.5-10.88-77.5-19.66
			c0-8.84,35.88-16.16,77.5-16.16C150.28,234.95,186.17,242.28,186.17,251.11z"/>
		<path class="st20" d="M185.69,251.09c0,8.73-35.67,19.53-77.03,19.53c-41.36,0-77.03-10.8-77.03-19.53
			c0-8.78,35.67-16.02,77.03-16.02C150.02,235.06,185.69,242.31,185.69,251.09z"/>
		<path class="st21" d="M185.22,251.07c0,8.67-35.47,19.38-76.56,19.38c-41.09,0-76.55-10.71-76.55-19.38
			c0-8.72,35.47-15.9,76.55-15.9C149.75,235.17,185.22,242.35,185.22,251.07z"/>
		<path class="st22" d="M184.74,251.05c0,8.61-35.26,19.24-76.09,19.24c-40.83,0-76.08-10.63-76.08-19.24
			c0-8.66,35.25-15.76,76.08-15.76C149.48,235.28,184.74,242.38,184.74,251.05z"/>
		<path class="st23" d="M184.27,251.03c0,8.55-35.05,19.09-75.61,19.09c-40.56,0-75.6-10.54-75.6-19.09
			c0-8.61,35.04-15.64,75.6-15.64C149.22,235.39,184.27,242.42,184.27,251.03z"/>
		<path class="st23" d="M183.79,251.01c0,8.5-34.84,18.94-75.14,18.94c-40.29,0-75.13-10.44-75.13-18.94
			c0-8.57,34.85-15.5,75.13-15.5C148.95,235.51,183.79,242.44,183.79,251.01z"/>
		<path class="st24" d="M183.32,250.99c0,8.45-34.63,18.8-74.66,18.8c-40.03,0-74.66-10.35-74.66-18.8
			c0-8.5,34.63-15.37,74.66-15.37C148.69,235.62,183.32,242.49,183.32,250.99z"/>
		<path class="st25" d="M182.84,250.96c0,8.4-34.42,18.65-74.19,18.65c-39.76,0-74.18-10.25-74.18-18.65
			c0-8.44,34.42-15.23,74.18-15.23C148.42,235.73,182.84,242.52,182.84,250.96z"/>
		<path class="st25" d="M182.37,250.93c0,8.33-34.22,18.51-73.71,18.51c-39.49,0-73.71-10.18-73.71-18.51
			c0-8.38,34.22-15.09,73.71-15.09C148.15,235.84,182.37,242.55,182.37,250.93z"/>
		<path class="st26" d="M181.89,250.91c0,8.29-34.01,18.36-73.24,18.36c-39.22,0-73.23-10.08-73.23-18.36
			c0-8.33,34.01-14.96,73.23-14.96C147.89,235.95,181.89,242.59,181.89,250.91z"/>
		<path class="st27" d="M181.42,250.9c0,8.22-33.8,18.2-72.76,18.2c-38.96,0-72.76-9.98-72.76-18.2c0-8.28,33.8-14.84,72.76-14.84
			C147.62,236.07,181.42,242.62,181.42,250.9z"/>
		<path class="st27" d="M180.94,250.87c0,8.17-33.58,18.07-72.28,18.07c-38.69,0-72.28-9.9-72.28-18.07
			c0-8.22,33.59-14.7,72.28-14.7C147.36,236.18,180.94,242.65,180.94,250.87z"/>
		<path class="st28" d="M180.47,250.85c0,8.12-33.38,17.93-71.81,17.93c-38.43,0-71.81-9.81-71.81-17.93
			c0-8.15,33.38-14.56,71.81-14.56C147.09,236.29,180.47,242.69,180.47,250.85z"/>
		<path class="st29" d="M179.99,250.84c0,8.05-33.17,17.77-71.34,17.77c-38.16,0-71.34-9.71-71.34-17.77
			c0-8.11,33.18-14.44,71.34-14.44C146.82,236.4,179.99,242.73,179.99,250.84z"/>
		<path class="st30" d="M179.52,250.81c0,8-32.96,17.63-70.86,17.63c-37.89,0-70.85-9.63-70.85-17.63c0-8.04,32.96-14.3,70.85-14.3
			C146.56,236.51,179.52,242.77,179.52,250.81z"/>
		<path class="st30" d="M179.04,250.78c0,7.95-32.75,17.49-70.39,17.49c-37.63,0-70.38-9.54-70.38-17.49
			c0-7.98,32.76-14.15,70.38-14.15C146.29,236.63,179.04,242.8,179.04,250.78z"/>
		<path class="st31" d="M178.57,250.76c0,7.9-32.54,17.34-69.91,17.34c-37.36,0-69.9-9.45-69.9-17.34c0-7.93,32.54-14.02,69.9-14.02
			C146.02,236.74,178.57,242.83,178.57,250.76z"/>
		<path class="st32" d="M178.09,250.75c0,7.83-32.34,17.19-69.44,17.19c-37.09,0-69.43-9.36-69.43-17.19
			c0-7.88,32.33-13.89,69.43-13.89C145.76,236.86,178.09,242.87,178.09,250.75z"/>
		<path class="st32" d="M177.62,250.72c0,7.78-32.13,17.05-68.96,17.05c-36.82,0-68.95-9.27-68.95-17.05
			c0-7.81,32.13-13.76,68.95-13.76C145.49,236.96,177.62,242.91,177.62,250.72z"/>
		<path class="st33" d="M177.14,250.7c0,7.72-31.92,16.9-68.49,16.9c-36.56,0-68.48-9.18-68.48-16.9c0-7.76,31.92-13.63,68.48-13.63
			C145.23,237.08,177.14,242.94,177.14,250.7z"/>
		<path class="st34" d="M176.67,250.68c0,7.66-31.71,16.76-68.01,16.76c-36.29,0-68.01-9.1-68.01-16.76
			c0-7.7,31.71-13.49,68.01-13.49C144.96,237.19,176.67,242.98,176.67,250.68z"/>
		<path class="st34" d="M176.2,250.66c0,7.6-31.5,16.61-67.54,16.61c-36.03,0-67.53-9-67.53-16.61c0-7.65,31.5-13.37,67.53-13.37
			C144.7,237.29,176.2,243.01,176.2,250.66z"/>
		<path class="st35" d="M175.72,250.64c0,7.55-31.3,16.46-67.07,16.46c-35.76,0-67.06-8.91-67.06-16.46
			c0-7.58,31.3-13.23,67.06-13.23C144.43,237.41,175.72,243.05,175.72,250.64z"/>
		<path class="st36" d="M175.25,250.62c0,7.49-31.09,16.31-66.59,16.31c-35.49,0-66.58-8.82-66.58-16.31
			c0-7.54,31.09-13.1,66.58-13.1C144.16,237.52,175.25,243.08,175.25,250.62z"/>
		<path class="st37" d="M174.77,250.59c0,7.44-30.88,16.17-66.12,16.17c-35.23,0-66.11-8.74-66.11-16.17
			c0-7.48,30.88-12.96,66.11-12.96C143.9,237.63,174.77,243.11,174.77,250.59z"/>
		<path class="st37" d="M174.3,250.57c0,7.38-30.67,16.02-65.64,16.02c-34.96,0-65.63-8.64-65.63-16.02
			c0-7.42,30.67-12.83,65.63-12.83C143.63,237.74,174.3,243.15,174.3,250.57z"/>
		<path class="st38" d="M173.82,250.55c0,7.32-30.46,15.88-65.17,15.88c-34.7,0-65.16-8.56-65.16-15.88
			c0-7.36,30.46-12.69,65.16-12.69C143.36,237.86,173.82,243.19,173.82,250.55z"/>
		<path class="st39" d="M173.35,250.53c0,7.27-30.25,15.73-64.69,15.73c-34.43,0-64.68-8.46-64.68-15.73
			c0-7.31,30.25-12.57,64.68-12.57C143.1,237.96,173.35,243.22,173.35,250.53z"/>
		<path class="st39" d="M172.86,250.51c0,7.21-30.03,15.59-64.21,15.59c-34.16,0-64.21-8.37-64.21-15.59
			c0-7.25,30.05-12.43,64.21-12.43C142.83,238.08,172.86,243.26,172.86,250.51z"/>
		<path class="st40" d="M172.39,250.49c0,7.16-29.83,15.44-63.74,15.44c-33.9,0-63.74-8.28-63.74-15.44
			c0-7.2,29.84-12.31,63.74-12.31C142.57,238.18,172.39,243.29,172.39,250.49z"/>
		<path class="st41" d="M171.92,250.46c0,7.11-29.63,15.29-63.26,15.29c-33.63,0-63.25-8.19-63.25-15.29
			c0-7.14,29.62-12.16,63.25-12.16C142.29,238.3,171.92,243.32,171.92,250.46z"/>
		<path class="st42" d="M171.44,250.44c0,7.05-29.41,15.15-62.79,15.15c-33.36,0-62.78-8.11-62.78-15.15
			c0-7.08,29.42-12.03,62.78-12.03C142.03,238.42,171.44,243.36,171.44,250.44z"/>
		<path class="st42" d="M171.14,250.44c0,7.02-29.28,15.06-62.49,15.06c-33.2,0-62.49-8.04-62.49-15.06
			c0-7.06,29.25-11.96,62.5-11.96C141.92,238.48,171.14,243.38,171.14,250.44z"/>
		<path class="st43" d="M170.85,250.44c0,7-29.16,14.97-62.2,14.97c-33.04,0-62.19-7.97-62.19-14.97c0-7.03,29.08-11.9,62.21-11.9
			C141.81,238.54,170.85,243.41,170.85,250.44z"/>
		<path class="st43" d="M170.56,250.44c0,6.97-29.03,14.88-61.9,14.88c-32.86,0-61.89-7.91-61.89-14.88
			c0-7.01,28.91-11.84,61.92-11.84C141.69,238.61,170.56,243.44,170.56,250.44z"/>
		<path class="st44" d="M170.27,250.44c0,6.95-28.9,14.79-61.61,14.79c-32.7,0-61.6-7.84-61.6-14.79c0-6.98,28.74-11.77,61.63-11.77
			C141.58,238.67,170.27,243.46,170.27,250.44z"/>
		<path class="st44" d="M169.97,250.44c0,6.92-28.77,14.7-61.32,14.7c-32.53,0-61.31-7.78-61.31-14.7
			c0-6.95,28.58-11.71,61.34-11.71C141.46,238.73,169.97,243.49,169.97,250.44z"/>
		<path class="st45" d="M169.67,250.44c0,6.89-28.63,14.62-61.01,14.62c-32.37,0-61.01-7.73-61.01-14.62
			c0-6.93,28.41-11.64,61.05-11.64C141.35,238.8,169.67,243.52,169.67,250.44z"/>
		<path class="st45" d="M169.38,250.44c0,6.87-28.51,14.52-60.72,14.52c-32.2,0-60.71-7.65-60.71-14.52
			c0-6.91,28.24-11.58,60.76-11.58C141.24,238.87,169.38,243.54,169.38,250.44z"/>
		<path class="st46" d="M169.08,250.44c0,6.84-28.38,14.43-60.42,14.43c-32.04,0-60.42-7.59-60.42-14.43
			c0-6.88,28.06-11.52,60.47-11.52C141.12,238.93,169.08,243.56,169.08,250.44z"/>
		<path class="st46" d="M168.78,250.44c0,6.82-28.25,14.33-60.13,14.33c-31.87,0-60.12-7.51-60.12-14.33
			c0-6.86,27.9-11.45,60.19-11.45C141.02,238.99,168.78,243.58,168.78,250.44z"/>
		<path class="st47" d="M168.49,250.45c0,6.79-28.13,14.24-59.83,14.24c-31.71,0-59.83-7.46-59.83-14.24
			c0-6.83,27.73-11.4,59.89-11.4C140.9,239.05,168.49,243.62,168.49,250.45z"/>
		<path class="st47" d="M168.19,250.44c0,6.77-27.99,14.16-59.54,14.16c-31.53,0-59.53-7.39-59.53-14.16
			c0-6.8,27.56-11.33,59.6-11.33C140.79,239.12,168.19,243.64,168.19,250.44z"/>
		<path class="st48" d="M167.9,250.45c0,6.73-27.86,14.06-59.24,14.06c-31.37,0-59.23-7.32-59.23-14.06
			c0-6.78,27.38-11.27,59.31-11.27C140.67,239.18,167.9,243.67,167.9,250.45z"/>
		<path class="st48" d="M167.6,250.45c0,6.71-27.74,13.97-58.95,13.97c-31.2,0-58.94-7.26-58.94-13.97
			c0-6.75,27.22-11.21,59.03-11.21C140.56,239.24,167.6,243.7,167.6,250.45z"/>
		<path class="st49" d="M167.31,250.45c0,6.69-27.6,13.88-58.65,13.88c-31.04,0-58.64-7.19-58.64-13.88
			c0-6.73,27.05-11.14,58.74-11.14C140.45,239.31,167.31,243.72,167.31,250.45z"/>
		<path class="st49" d="M167.01,250.45c0,6.67-27.48,13.79-58.35,13.79c-30.87,0-58.34-7.13-58.34-13.79
			c0-6.7,26.88-11.08,58.44-11.08C140.33,239.37,167.01,243.75,167.01,250.45z"/>
		<path class="st50" d="M166.72,250.45c0,6.63-27.35,13.71-58.06,13.71c-30.71,0-58.05-7.07-58.05-13.71
			c0-6.67,26.7-11.01,58.16-11.01C140.22,239.44,166.72,243.78,166.72,250.45z"/>
		<path class="st50" d="M166.42,250.45c0,6.62-27.22,13.61-57.77,13.61c-30.54,0-57.76-7-57.76-13.61
			c0-6.65,26.54-10.95,57.87-10.95C140.11,239.5,166.42,243.8,166.42,250.45z"/>
		<path class="st51" d="M166.12,250.45c0,6.59-27.09,13.52-57.47,13.52c-30.37,0-57.46-6.93-57.46-13.52
			c0-6.63,26.37-10.89,57.58-10.89C139.99,239.56,166.12,243.82,166.12,250.45z"/>
		<path class="st52" d="M165.83,250.45c0,6.56-26.96,13.44-57.17,13.44c-30.2,0-57.16-6.87-57.16-13.44
			c0-6.59,26.2-10.82,57.29-10.82C139.88,239.63,165.83,243.86,165.83,250.45z"/>
		<path class="st52" d="M165.53,250.45c0,6.54-26.83,13.34-56.87,13.34c-30.04,0-56.87-6.81-56.87-13.34
			c0-6.58,26.03-10.75,57-10.75C139.77,239.7,165.53,243.87,165.53,250.45z"/>
		<path class="st53" d="M165.24,250.45c0,6.51-26.7,13.25-56.58,13.25c-29.87,0-56.57-6.74-56.57-13.25
			c0-6.55,25.86-10.69,56.71-10.69C139.65,239.76,165.24,243.9,165.24,250.45z"/>
		<path class="st53" d="M164.94,250.45c0,6.49-26.57,13.16-56.29,13.16c-29.71,0-56.28-6.67-56.28-13.16
			c0-6.52,25.69-10.63,56.43-10.63C139.54,239.82,164.94,243.93,164.94,250.45z"/>
		<path class="st54" d="M164.65,250.45c0,6.46-26.44,13.07-55.99,13.07c-29.54,0-55.98-6.61-55.98-13.07
			c0-6.5,25.52-10.56,56.14-10.56C139.43,239.89,164.65,243.95,164.65,250.45z"/>
		<path class="st54" d="M164.35,250.45c0,6.44-26.31,12.98-55.69,12.98c-29.38,0-55.68-6.54-55.68-12.98
			c0-6.47,25.35-10.5,55.85-10.5C139.31,239.95,164.35,243.98,164.35,250.45z"/>
		<path class="st55" d="M164.06,250.45c0,6.41-26.19,12.89-55.4,12.89c-29.21,0-55.39-6.48-55.39-12.89
			c0-6.45,25.19-10.44,55.56-10.44C139.2,240.01,164.06,244,164.06,250.45z"/>
		<path class="st55" d="M163.76,250.45c0,6.39-26.05,12.81-55.1,12.81c-29.04,0-55.09-6.42-55.09-12.81
			c0-6.42,25.01-10.38,55.27-10.38C139.09,240.07,163.76,244.03,163.76,250.45z"/>
		<path class="st56" d="M163.46,250.45c0,6.36-25.92,12.71-54.81,12.71c-28.87,0-54.8-6.36-54.8-12.71
			c0-6.4,24.84-10.31,54.98-10.31C138.98,240.14,163.46,244.05,163.46,250.45z"/>
		<path class="st56" d="M163.17,250.45c0,6.34-25.8,12.62-54.52,12.62c-28.71,0-54.5-6.28-54.5-12.62
			c0-6.38,24.67-10.25,54.69-10.25C138.86,240.2,163.17,244.07,163.17,250.45z"/>
		<path class="st57" d="M162.87,250.45c0,6.31-25.67,12.53-54.22,12.53c-28.55,0-54.2-6.22-54.2-12.53
			c0-6.34,24.5-10.18,54.39-10.18C138.75,240.27,162.87,244.11,162.87,250.45z"/>
		<path class="st57" d="M162.58,250.45c0,6.29-25.54,12.44-53.92,12.44c-28.38,0-53.91-6.15-53.91-12.44
			c0-6.32,24.34-10.12,54.11-10.12C138.64,240.33,162.58,244.13,162.58,250.45z"/>
		<path class="st58" d="M162.28,250.45c0,6.26-25.4,12.35-53.62,12.35c-28.2,0-53.61-6.08-53.61-12.35
			c0-6.3,24.17-10.06,53.82-10.06C138.53,240.39,162.28,244.15,162.28,250.45z"/>
		<path class="st58" d="M161.98,250.45c0,6.23-25.27,12.26-53.33,12.26c-28.05,0-53.32-6.03-53.32-12.26c0-6.27,24-9.98,53.53-9.98
			C138.41,240.47,161.98,244.18,161.98,250.45z"/>
		<path class="st59" d="M161.69,250.45c0,6.21-25.15,12.17-53.04,12.17c-27.88,0-53.03-5.96-53.03-12.17
			c0-6.25,23.84-9.93,53.25-9.93C138.3,240.52,161.69,244.2,161.69,250.45z"/>
		<path class="st59" d="M161.39,250.45c0,6.19-25.02,12.08-52.74,12.08c-27.71,0-52.73-5.88-52.73-12.08
			c0-6.22,23.67-9.87,52.96-9.87C138.19,240.58,161.39,244.23,161.39,250.45z"/>
		<path class="st60" d="M161.1,250.45c0,6.16-24.88,12-52.44,12c-27.55,0-52.43-5.83-52.43-12c0-6.2,23.49-9.8,52.67-9.8
			C138.07,240.65,161.1,244.25,161.1,250.45z"/>
		<path class="st60" d="M160.81,250.45c0,6.13-24.76,11.9-52.15,11.9c-27.38,0-52.14-5.77-52.14-11.9c0-6.17,23.32-9.74,52.38-9.74
			C137.96,240.71,160.81,244.28,160.81,250.45z"/>
		<path class="st61" d="M160.51,250.45c0,6.11-24.63,11.81-51.85,11.81c-27.21,0-51.84-5.7-51.84-11.81
			c0-6.14,23.15-9.67,52.09-9.67C137.85,240.78,160.51,244.31,160.51,250.45z"/>
		<path class="st62" d="M160.21,250.45c0,6.08-24.5,11.72-51.55,11.72c-27.04,0-51.55-5.64-51.55-11.72c0-6.12,22.99-9.61,51.8-9.61
			C137.73,240.84,160.21,244.33,160.21,250.45z"/>
		<path class="st62" d="M159.91,250.45c0,6.06-24.37,11.63-51.26,11.63c-26.88,0-51.25-5.57-51.25-11.63
			c0-6.09,22.82-9.55,51.51-9.55C137.62,240.9,159.91,244.36,159.91,250.45z"/>
		<path class="st63" d="M159.62,250.45c0,6.03-24.24,11.54-50.96,11.54c-26.71,0-50.95-5.51-50.95-11.54
			c0-6.07,22.64-9.47,51.22-9.47S159.62,244.38,159.62,250.45z"/>
		<path class="st63" d="M159.33,250.45c0,6.01-24.11,11.45-50.67,11.45c-26.55,0-50.66-5.44-50.66-11.45
			c0-6.04,22.48-9.41,50.94-9.41C137.4,241.04,159.33,244.41,159.33,250.45z"/>
		<path class="st64" d="M159.03,250.45c0,5.98-23.98,11.36-50.37,11.36c-26.38,0-50.36-5.38-50.36-11.36
			c0-6.01,22.31-9.35,50.65-9.35C137.28,241.1,159.03,244.44,159.03,250.45z"/>
		<path class="st64" d="M158.73,250.45c0,5.96-23.85,11.27-50.08,11.27c-26.22,0-50.07-5.3-50.07-11.27
			c0-5.99,22.14-9.29,50.36-9.29S158.73,244.46,158.73,250.45z"/>
		<path class="st65" d="M158.44,250.45c0,5.94-23.73,11.19-49.79,11.19c-26.05,0-49.77-5.25-49.77-11.19
			c0-5.96,21.97-9.22,50.07-9.22S158.44,244.49,158.44,250.45z"/>
		<path class="st65" d="M158.14,250.45c0,5.91-23.6,11.09-49.49,11.09c-25.89,0-49.47-5.18-49.47-11.09c0-5.93,21.8-9.16,49.77-9.16
			C136.94,241.29,158.14,244.52,158.14,250.45z"/>
		<path class="st66" d="M157.85,250.45c0,5.89-23.47,11-49.19,11c-25.71,0-49.18-5.12-49.18-11c0-5.91,21.64-9.1,49.49-9.1
			C136.83,241.35,157.85,244.54,157.85,250.45z"/>
		<path class="st66" d="M157.55,250.45c0,5.86-23.33,10.91-48.89,10.91c-25.55,0-48.88-5.06-48.88-10.91
			c0-5.88,21.46-9.03,49.2-9.03C136.71,241.42,157.55,244.57,157.55,250.45z"/>
		<path class="st67" d="M157.25,250.45c0,5.83-23.21,10.82-48.6,10.82c-25.38,0-48.59-4.99-48.59-10.82c0-5.86,21.29-8.96,48.9-8.96
			C136.6,241.49,157.25,244.59,157.25,250.45z"/>
		<path class="st67" d="M156.96,250.45c0,5.81-23.08,10.73-48.31,10.73c-25.22,0-48.3-4.92-48.3-10.73c0-5.83,21.12-8.9,48.62-8.9
			C136.49,241.55,156.96,244.62,156.96,250.45z"/>
		<path class="st68" d="M156.66,250.45c0,5.79-22.95,10.65-48.01,10.65c-25.05,0-48-4.86-48-10.65c0-5.81,20.96-8.83,48.33-8.83
			C136.37,241.62,156.66,244.64,156.66,250.45z"/>
		<path class="st68" d="M156.36,250.46c0,5.75-22.82,10.55-47.71,10.55c-24.89,0-47.7-4.8-47.7-10.55c0-5.79,20.79-8.78,48.04-8.78
			C136.27,241.68,156.36,244.67,156.36,250.46z"/>
		<path class="st69" d="M156.08,250.46c0,5.73-22.7,10.45-47.42,10.45c-24.72,0-47.4-4.72-47.4-10.45c0-5.77,20.61-8.72,47.75-8.72
			C136.16,241.74,156.08,244.69,156.08,250.46z"/>
		<path class="st69" d="M155.78,250.46c0,5.7-22.56,10.36-47.12,10.36c-24.55,0-47.11-4.66-47.11-10.36
			c0-5.74,20.45-8.65,47.47-8.65C136.04,241.81,155.78,244.72,155.78,250.46z"/>
		<path class="st70" d="M155.48,250.46c0,5.68-22.43,10.28-46.83,10.28c-24.38,0-46.82-4.6-46.82-10.28
			c0-5.71,20.29-8.58,47.18-8.58C135.92,241.87,155.48,244.74,155.48,250.46z"/>
		<path class="st70" d="M155.18,250.46c0,5.65-22.3,10.18-46.53,10.18c-24.22,0-46.52-4.54-46.52-10.18c0-5.69,20.1-8.52,46.89-8.52
			C135.81,241.94,155.18,244.77,155.18,250.46z"/>
		<path class="st71" d="M154.89,250.46c0,5.63-22.17,10.09-46.24,10.09c-24.05,0-46.22-4.47-46.22-10.09
			c0-5.66,19.94-8.46,46.6-8.46C135.7,242,154.89,244.8,154.89,250.46z"/>
		<path class="st72" d="M154.6,250.46c0,5.6-22.05,10.01-45.94,10.01c-23.89,0-45.93-4.41-45.93-10.01c0-5.63,19.77-8.39,46.32-8.39
			S154.6,244.82,154.6,250.46z"/>
		<path class="st72" d="M154,250.45c0,5.53-21.76,9.87-45.34,9.87c-23.58,0-45.32-4.34-45.32-9.87c0-5.55,19.51-8.28,45.7-8.28
			C135.23,242.17,154,244.9,154,250.45z"/>
		<path class="st73" d="M153.39,250.45c0,5.45-21.47,9.73-44.73,9.73c-23.25,0-44.72-4.28-44.72-9.73c0-5.49,19.25-8.17,45.09-8.17
			C134.88,242.28,153.39,244.96,153.39,250.45z"/>
		<path class="st73" d="M152.78,250.45c0,5.37-21.17,9.59-44.13,9.59c-22.95,0-44.12-4.21-44.12-9.59c0-5.41,18.99-8.07,44.49-8.07
			C134.53,242.38,152.78,245.04,152.78,250.45z"/>
		<path class="st74" d="M152.18,250.44c0,5.31-20.89,9.45-43.53,9.45c-22.62,0-43.51-4.15-43.51-9.45c0-5.33,18.73-7.95,43.87-7.95
			C134.17,242.49,152.18,245.11,152.18,250.44z"/>
		<path class="st74" d="M151.58,250.44c0,5.23-20.6,9.31-42.92,9.31c-22.31,0-42.91-4.08-42.91-9.31c0-5.27,18.47-7.84,43.27-7.84
			C133.82,242.6,151.58,245.18,151.58,250.44z"/>
		<path class="st75" d="M150.97,250.44c0,5.16-20.31,9.17-42.32,9.17c-22,0-42.31-4.01-42.31-9.17c0-5.2,18.21-7.74,42.66-7.74
			C133.47,242.71,150.97,245.25,150.97,250.44z"/>
		<path class="st75" d="M150.37,250.44c0,5.09-20.01,9.03-41.71,9.03c-21.69,0-41.71-3.94-41.71-9.03c0-5.12,17.95-7.62,42.05-7.62
			C133.11,242.81,150.37,245.32,150.37,250.44z"/>
		<path class="st76" d="M149.77,250.44c0,5.02-19.72,8.89-41.11,8.89c-21.38,0-41.1-3.87-41.1-8.89c0-5.05,17.69-7.52,41.44-7.52
			C132.76,242.92,149.77,245.39,149.77,250.44z"/>
		<path class="st76" d="M149.16,250.43c0,4.94-19.44,8.76-40.51,8.76c-21.06,0-40.5-3.81-40.5-8.76c0-4.96,17.44-7.4,40.84-7.4
			C132.4,243.03,149.16,245.47,149.16,250.43z"/>
		<path class="st77" d="M148.56,250.43c0,4.87-19.15,8.62-39.91,8.62c-20.75,0-39.89-3.75-39.89-8.62c0-4.89,17.17-7.29,40.23-7.29
			C132.05,243.14,148.56,245.54,148.56,250.43z"/>
		<path class="st77" d="M147.95,250.43c0,4.79-18.85,8.47-39.3,8.47c-20.43,0-39.29-3.68-39.29-8.47c0-4.82,16.91-7.18,39.62-7.18
			C131.69,243.25,147.95,245.61,147.95,250.43z"/>
		<path class="st78" d="M147.35,250.43c0,4.71-18.57,8.33-38.7,8.33c-20.12,0-38.69-3.62-38.69-8.33c0-4.75,16.66-7.07,39.01-7.07
			C131.34,243.36,147.35,245.68,147.35,250.43z"/>
		<path class="st78" d="M146.75,250.42c0,4.65-18.28,8.2-38.09,8.2c-19.81,0-38.09-3.55-38.09-8.2c0-4.66,16.4-6.95,38.4-6.95
			C130.98,243.46,146.75,245.75,146.75,250.42z"/>
		<path class="st79" d="M146.15,250.42c0,4.58-17.99,8.06-37.49,8.06c-19.5,0-37.48-3.48-37.48-8.06c0-4.59,16.13-6.85,37.79-6.85
			C130.63,243.56,146.15,245.83,146.15,250.42z"/>
		<path class="st79" d="M145.54,250.42c0,4.5-17.7,7.91-36.89,7.91c-19.17,0-36.88-3.42-36.88-7.91c0-4.53,15.87-6.75,37.19-6.75
			C130.27,243.67,145.54,245.89,145.54,250.42z"/>
		<path class="st80" d="M144.94,250.42c0,4.42-17.41,7.78-36.28,7.78c-18.87,0-36.27-3.35-36.27-7.78c0-4.45,15.61-6.63,36.58-6.63
			C129.92,243.79,144.94,245.97,144.94,250.42z"/>
		<path class="st80" d="M144.33,250.42c0,4.35-17.12,7.64-35.68,7.64c-18.55,0-35.67-3.3-35.67-7.64c0-4.38,15.35-6.52,35.96-6.52
			S144.33,246.04,144.33,250.42z"/>
		<path class="st81" d="M143.73,250.41c0,4.27-16.83,7.5-35.08,7.5c-18.24,0-35.07-3.22-35.07-7.5c0-4.31,15.1-6.41,35.36-6.41
			C129.22,244,143.73,246.1,143.73,250.41z"/>
		<path class="st82" d="M143.13,250.41c0,4.2-16.54,7.36-34.47,7.36c-17.92,0-34.46-3.16-34.46-7.36c0-4.23,14.84-6.3,34.75-6.3
			C128.86,244.11,143.13,246.18,143.13,250.41z"/>
		<path class="st82" d="M142.52,250.41c0,4.13-16.25,7.21-33.87,7.21c-17.61,0-33.86-3.09-33.86-7.21c0-4.16,14.57-6.19,34.14-6.19
			C128.51,244.22,142.52,246.25,142.52,250.41z"/>
		<path class="st83" d="M141.92,250.4c0,4.06-15.96,7.08-33.26,7.08c-17.29,0-33.26-3.02-33.26-7.08c0-4.08,14.32-6.08,33.54-6.08
			C128.15,244.33,141.92,246.32,141.92,250.4z"/>
		<path class="st83" d="M141.32,250.4c0,3.98-15.67,6.94-32.66,6.94c-16.98,0-32.65-2.96-32.65-6.94c0-4.01,14.06-5.97,32.93-5.97
			C127.8,244.43,141.32,246.39,141.32,250.4z"/>
		<path class="st84" d="M140.71,250.4c0,3.91-15.38,6.8-32.06,6.8c-16.66,0-32.05-2.89-32.05-6.8c0-3.93,13.8-5.87,32.31-5.87
			C127.45,244.54,140.71,246.47,140.71,250.4z"/>
		<path class="st84" d="M140.11,250.39c0,3.84-15.1,6.67-31.46,6.67c-16.35,0-31.44-2.83-31.44-6.67c0-3.85,13.53-5.75,31.7-5.75
			C127.1,244.65,140.11,246.54,140.11,250.39z"/>
		<path class="st85" d="M139.51,250.39c0,3.76-14.81,6.53-30.86,6.53c-16.04,0-30.84-2.77-30.84-6.53c0-3.78,13.28-5.63,31.09-5.63
			C126.74,244.76,139.51,246.61,139.51,250.39z"/>
		<path class="st85" d="M138.9,250.38c0,3.69-14.51,6.4-30.25,6.4c-15.72,0-30.24-2.71-30.24-6.4c0-3.7,13.02-5.53,30.49-5.53
			C126.39,244.86,138.9,246.68,138.9,250.38z"/>
		<path class="st86" d="M138.3,250.38c0,3.62-14.22,6.26-29.64,6.26c-15.41,0-29.63-2.63-29.63-6.26c0-3.63,12.76-5.41,29.88-5.41
			C126.03,244.97,138.3,246.75,138.3,250.38z"/>
		<path class="st86" d="M137.7,250.38c0,3.54-13.94,6.11-29.04,6.11c-15.1,0-29.03-2.57-29.03-6.11c0-3.56,12.49-5.31,29.27-5.31
			C125.68,245.08,137.7,246.82,137.7,250.38z"/>
		<path class="st87" d="M137.09,250.38c0,3.47-13.64,5.98-28.43,5.98c-14.78,0-28.42-2.51-28.42-5.98c0-3.48,12.23-5.19,28.66-5.19
			S137.09,246.89,137.09,250.38z"/>
		<path class="st87" d="M136.49,250.38c0,3.4-13.36,5.84-27.83,5.84c-14.47,0-27.83-2.44-27.83-5.84c0-3.41,11.98-5.08,28.06-5.08
			S136.49,246.97,136.49,250.38z"/>
		<path class="st88" d="M135.88,250.38c0,3.32-13.06,5.69-27.23,5.69c-14.16,0-27.22-2.37-27.22-5.69c0-3.34,11.72-4.98,27.46-4.98
			C124.62,245.39,135.88,247.04,135.88,250.38z"/>
		<path class="st88" d="M135.29,250.38c0,3.24-12.78,5.55-26.63,5.55c-13.84,0-26.61-2.31-26.61-5.55c0-3.27,11.46-4.87,26.84-4.87
			C124.26,245.51,135.29,247.11,135.29,250.38z"/>
		<path class="st89" d="M134.68,250.38c0,3.17-12.49,5.41-26.03,5.41c-13.53,0-26.01-2.24-26.01-5.41c0-3.2,11.2-4.76,26.23-4.76
			C123.91,245.62,134.68,247.18,134.68,250.38z"/>
		<path class="st89" d="M134.07,250.38c0,3.09-12.2,5.27-25.42,5.27c-13.22,0-25.41-2.18-25.41-5.27c0-3.12,10.94-4.65,25.63-4.65
			C123.56,245.73,134.07,247.26,134.07,250.38z"/>
		<path class="st90" d="M133.47,250.38c0,3.02-11.91,5.13-24.82,5.13c-12.9,0-24.81-2.11-24.81-5.13c0-3.05,10.68-4.54,25.02-4.54
			C123.2,245.83,133.47,247.33,133.47,250.38z"/>
		<path class="st90" d="M132.87,250.36c0,2.95-11.62,5-24.22,5c-12.58,0-24.2-2.05-24.2-5c0-2.97,10.42-4.43,24.4-4.43
			S132.87,247.39,132.87,250.36z"/>
		<path class="st91" d="M132.27,250.36c0,2.88-11.33,4.86-23.61,4.86c-12.27,0-23.6-1.98-23.6-4.86c0-2.89,10.15-4.31,23.79-4.31
			C122.49,246.05,132.27,247.47,132.27,250.36z"/>
		<path class="st92" d="M131.66,250.36c0,2.81-11.04,4.72-23.01,4.72c-11.95,0-23-1.91-23-4.72c0-2.82,9.9-4.21,23.19-4.21
			C122.14,246.16,131.66,247.54,131.66,250.36z"/>
		<path class="st92" d="M131.05,250.36c0,2.73-10.74,4.58-22.4,4.58c-11.64,0-22.39-1.84-22.39-4.58c0-2.75,9.64-4.09,22.58-4.09
			S131.05,247.61,131.05,250.36z"/>
		<path class="st93" d="M130.45,250.36c0,2.65-10.46,4.44-21.8,4.44c-11.33,0-21.79-1.78-21.79-4.44c0-2.67,9.39-3.99,21.98-3.99
			S130.45,247.68,130.45,250.36z"/>
		<path class="st93" d="M129.85,250.35c0,2.59-10.17,4.3-21.2,4.3c-11.01,0-21.18-1.71-21.18-4.3c0-2.59,9.12-3.87,21.37-3.87
			C121.08,246.48,129.85,247.76,129.85,250.35z"/>
		<path class="st94" d="M129.24,250.35c0,2.51-9.87,4.16-20.59,4.16c-10.7,0-20.58-1.65-20.58-4.16c0-2.53,8.86-3.76,20.76-3.76
			C120.73,246.59,129.24,247.82,129.24,250.35z"/>
		<path class="st94" d="M128.64,250.35c0,2.43-9.59,4.03-19.98,4.03c-10.39,0-19.98-1.59-19.98-4.03c0-2.45,8.61-3.66,20.15-3.66
			C120.38,246.7,128.64,247.9,128.64,250.35z"/>
		<path class="st95" d="M128.04,250.34c0,2.38-9.3,3.89-19.39,3.89c-10.08,0-19.38-1.52-19.38-3.89c0-2.38,8.34-3.54,19.54-3.54
			C120.02,246.8,128.04,247.96,128.04,250.34z"/>
		<path class="st95" d="M127.44,250.34c0,2.3-9.01,3.76-18.78,3.76c-9.76,0-18.77-1.46-18.77-3.76c0-2.29,8.08-3.43,18.92-3.43
			C119.67,246.91,127.44,248.04,127.44,250.34z"/>
		<path class="st96" d="M126.83,250.34c0,2.22-8.72,3.61-18.18,3.61c-9.45,0-18.17-1.39-18.17-3.61c0-2.23,7.82-3.32,18.32-3.32
			S126.83,248.11,126.83,250.34z"/>
		<path class="st96" d="M126.23,250.34c0,2.14-8.44,3.47-17.58,3.47c-9.14,0-17.56-1.33-17.56-3.47c0-2.16,7.56-3.21,17.71-3.21
			C118.96,247.13,126.23,248.17,126.23,250.34z"/>
		<path class="st97" d="M125.62,250.34c0,2.07-8.14,3.32-16.97,3.32c-8.82,0-16.96-1.25-16.96-3.32c0-2.08,7.3-3.1,17.11-3.1
			C118.61,247.23,125.62,248.25,125.62,250.34z"/>
		<path class="st97" d="M125.02,250.34c0,1.99-7.85,3.18-16.37,3.18c-8.51,0-16.36-1.19-16.36-3.18c0-2.01,7.05-3,16.5-3
			C118.25,247.34,125.02,248.33,125.02,250.34z"/>
		<path class="st98" d="M124.42,250.33c0,1.92-7.56,3.05-15.76,3.05c-8.18,0-15.75-1.13-15.75-3.05c0-1.93,6.79-2.89,15.89-2.89
			C117.9,247.45,124.42,248.4,124.42,250.33z"/>
		<path class="st98" d="M123.82,250.33c0,1.84-7.27,2.91-15.16,2.91c-7.88,0-15.15-1.07-15.15-2.91c0-1.86,6.52-2.78,15.28-2.78
			C117.54,247.55,123.82,248.47,123.82,250.33z"/>
		<path class="st99" d="M123.21,250.32c0,1.77-6.98,2.77-14.55,2.77c-7.56,0-14.55-1-14.55-2.77c0-1.78,6.27-2.66,14.68-2.66
			C117.19,247.66,123.21,248.54,123.21,250.32z"/>
		<path class="st99" d="M122.61,250.32c0,1.7-6.69,2.63-13.95,2.63c-7.25,0-13.94-0.93-13.94-2.63c0-1.71,6-2.55,14.06-2.55
			C116.84,247.78,122.61,248.61,122.61,250.32z"/>
		<path class="st100" d="M122,250.32c0,1.63-6.4,2.49-13.35,2.49c-6.93,0-13.34-0.86-13.34-2.49c0-1.64,5.75-2.44,13.45-2.44
			C116.48,247.88,122,248.69,122,250.32z"/>
		<path class="st100" d="M121.4,250.32c0,1.55-6.11,2.35-12.75,2.35c-6.62,0-12.73-0.8-12.73-2.35c0-1.57,5.48-2.34,12.85-2.34
			C116.13,247.99,121.4,248.75,121.4,250.32z"/>
		<path class="st101" d="M120.8,250.32c0,1.48-5.82,2.21-12.14,2.21c-6.31,0-12.13-0.73-12.13-2.21c0-1.49,5.23-2.22,12.24-2.22
			C115.77,248.1,120.8,248.83,120.8,250.32z"/>
		<path class="st0" d="M120.19,250.32c0,1.41-5.53,2.07-11.54,2.07c-5.99,0-11.53-0.66-11.53-2.07c0-1.42,4.96-2.11,11.63-2.11
			S120.19,248.9,120.19,250.32z"/>
		<path class="st102" d="M0,109.92C0,49.88,48.57,1.21,108.48,1.21c59.91,0,108.48,48.67,108.48,108.7s-48.57,108.71-108.48,108.71
			C48.57,218.62,0,169.95,0,109.92z"/>
		<path class="st102" d="M154.76,11.58c17.12,16.87,27.74,40.35,27.74,66.31c0,51.39-41.58,93.05-92.86,93.05
			c-42.59,0-78.47-28.73-89.42-67.9C3.76,46.22,50.87,1.21,108.48,1.21C125.04,1.21,140.72,4.94,154.76,11.58z"/>
		<path class="st103" d="M149.04,9.07c19.04,16.66,31.07,41.16,31.07,68.47c0,50.18-40.59,90.85-90.66,90.85
			c-43.53,0-79.88-30.73-88.65-71.72C7.32,42.88,53.05,1.21,108.48,1.21C122.82,1.21,136.51,4.01,149.04,9.07z"/>
		<path class="st104" d="M143.19,6.89c21.01,16.22,34.54,41.66,34.54,70.28c0,48.96-39.61,88.65-88.47,88.65
			c-44.4,0-81.15-32.77-87.49-75.5c9.2-50.69,53.48-89.12,106.72-89.12C120.62,1.21,132.29,3.2,143.19,6.89z"/>
		<path class="st105" d="M137.27,5.09c22.97,15.53,38.07,41.86,38.07,71.71c0,47.75-38.63,86.46-86.28,86.46
			c-45.2,0-82.28-34.84-85.97-79.18C14.66,36.52,57.45,1.21,108.48,1.21C118.45,1.21,128.1,2.57,137.27,5.09z"/>
		<path class="st106" d="M131.15,3.6c25,14.6,41.8,41.74,41.8,72.83c0,46.54-37.64,84.27-84.08,84.27
			c-45.97,0-83.31-36.97-84.07-82.85C18.45,33.47,59.71,1.21,108.48,1.21C116.26,1.21,123.84,2.04,131.15,3.6z"/>
		<path class="st107" d="M6.78,76.07c0-1.47,0.04-2.93,0.12-4.37C22.34,30.52,61.99,1.21,108.48,1.21c5.57,0,11.04,0.42,16.39,1.23
			c27.07,13.39,45.7,41.33,45.7,73.63c0,45.32-36.66,82.06-81.89,82.06C43.45,158.14,6.78,121.39,6.78,76.07z"/>
		<path class="st108" d="M8.78,75.71c0-3.44,0.22-6.83,0.64-10.15C26.36,27.63,64.34,1.21,108.48,1.21c3.35,0,6.66,0.16,9.93,0.46
			c29.19,11.86,49.77,40.54,49.77,74.04c0,44.11-35.68,79.87-79.7,79.87C44.46,155.58,8.78,119.82,8.78,75.71z"/>
		<path class="st109" d="M10.78,75.34c0-5.47,0.56-10.81,1.64-15.96C30.58,24.79,66.78,1.21,108.48,1.21c1.06,0,2.11,0.02,3.16,0.05
			c31.4,9.93,54.16,39.34,54.16,74.08c0,42.9-34.7,77.67-77.51,77.67S10.78,118.24,10.78,75.34z"/>
		<path class="st110" d="M12.78,74.98c0-7.62,1.13-14.97,3.23-21.91C34.43,23.03,67.03,2.66,104.46,1.29
			c33.73,7.48,58.96,37.63,58.96,73.68c0,41.68-33.72,75.48-75.32,75.48C46.5,150.45,12.78,116.66,12.78,74.98z"/>
		<path class="st111" d="M14.77,74.61c0-9.95,1.98-19.41,5.56-28.06C37.85,22.12,65.24,5.27,96.65,1.86
			c36.26,4.33,64.37,35.25,64.37,72.76c0,40.47-32.74,73.28-73.13,73.28S14.77,115.08,14.77,74.61z"/>
		<path class="st112" d="M16.77,74.24c0-12.57,3.26-24.38,8.98-34.63C41.43,21.1,63.19,7.92,87.94,3.16
			c39.07,0.13,70.7,31.9,70.7,71.08c0,39.26-31.75,71.09-70.93,71.09S16.77,113.5,16.77,74.24z"/>
		<path class="st113" d="M18.78,73.88c0-15.92,5.39-30.59,14.45-42.25c12.3-11.88,27.41-20.87,44.22-25.89
			C80.73,5.25,84.09,5,87.52,5c37.96,0,68.73,30.84,68.73,68.89c0,38.04-30.78,68.87-68.73,68.87
			C49.55,142.76,18.78,111.93,18.78,73.88z"/>
		<path class="st114" d="M20.77,73.51c0-22.39,11.01-42.2,27.9-54.29c3.33-2.2,6.78-4.24,10.36-6.08
			c8.58-4.05,18.18-6.32,28.29-6.32c36.76,0,66.56,29.86,66.56,66.68c0,36.83-29.8,66.68-66.56,66.68
			C50.57,140.2,20.77,110.34,20.77,73.51z"/>
		<path class="st115" d="M22.77,73.15c0-35.61,28.81-64.49,64.36-64.49c35.54,0,64.36,28.87,64.36,64.49
			c0,35.62-28.82,64.5-64.36,64.5C51.58,137.64,22.77,108.77,22.77,73.15z"/>
		<path class="st116" d="M24.76,72.78c0-34.41,27.83-62.29,62.17-62.29c34.34,0,62.17,27.89,62.17,62.29
			c0,34.41-27.83,62.29-62.17,62.29C52.6,135.07,24.76,107.19,24.76,72.78z"/>
		<path class="st117" d="M26.76,72.42c0-33.19,26.85-60.1,59.97-60.1c33.12,0,59.97,26.91,59.97,60.1c0,33.19-26.85,60.1-59.97,60.1
			C53.62,132.52,26.76,105.61,26.76,72.42z"/>
		<path class="st118" d="M28.76,72.05c0-31.98,25.87-57.9,57.78-57.9c31.91,0,57.78,25.92,57.78,57.9c0,31.98-25.87,57.9-57.78,57.9
			C54.64,129.95,28.76,104.03,28.76,72.05z"/>
		<path class="st119" d="M30.76,71.69c0-30.77,24.89-55.7,55.59-55.7c30.7,0,55.59,24.93,55.59,55.7c0,30.77-24.89,55.7-55.59,55.7
			C55.65,127.39,30.76,102.45,30.76,71.69z"/>
		<path class="st120" d="M32.76,71.32c0-29.54,23.91-53.5,53.39-53.5c29.5,0,53.4,23.96,53.4,53.5c0,29.56-23.9,53.52-53.4,53.52
			C56.67,124.84,32.76,100.88,32.76,71.32z"/>
		<path class="st121" d="M34.76,70.96c0-28.34,22.92-51.31,51.21-51.31c28.28,0,51.21,22.97,51.21,51.31
			c0,28.34-22.93,51.31-51.21,51.31C57.68,122.26,34.76,99.29,34.76,70.96z"/>
		<path class="st122" d="M36.76,70.59c0-27.13,21.94-49.12,49.02-49.12c27.07,0,49.01,21.99,49.01,49.12s-21.95,49.11-49.01,49.11
			C58.7,119.7,36.76,97.72,36.76,70.59z"/>
		<path class="st123" d="M38.76,70.22c0-25.91,20.96-46.91,46.82-46.91c25.86,0,46.82,21,46.82,46.91
			c0,25.92-20.96,46.92-46.82,46.92C59.72,117.14,38.76,96.14,38.76,70.22z"/>
		<path class="st124" d="M40.76,69.86c0-24.69,19.98-44.72,44.63-44.72c24.65,0,44.63,20.02,44.63,44.72
			c0,24.71-19.98,44.72-44.63,44.72C60.73,114.58,40.76,94.56,40.76,69.86z"/>
		<path class="st125" d="M42.75,69.5c0-23.49,19-42.53,42.44-42.53c23.43,0,42.43,19.04,42.43,42.53c0,23.48-19,42.52-42.43,42.52
			C61.75,112.02,42.75,92.98,42.75,69.5z"/>
		<path class="st126" d="M44.75,69.13C44.75,46.85,62.77,28.8,85,28.8c22.23,0,40.25,18.05,40.25,40.33S107.22,109.46,85,109.46
			C62.77,109.46,44.75,91.41,44.75,69.13z"/>
		<path class="st127" d="M46.75,68.76c0-21.06,17.04-38.14,38.06-38.14c21.02,0,38.06,17.08,38.06,38.14s-17.04,38.13-38.06,38.13
			C63.79,106.89,46.75,89.82,46.75,68.76z"/>
		<path class="st128" d="M48.74,68.4c0-19.85,16.06-35.94,35.87-35.94s35.86,16.09,35.86,35.94c0,19.84-16.06,35.93-35.86,35.93
			S48.74,88.24,48.74,68.4z"/>
		<path class="st129" d="M50.75,68.03c0-18.63,15.07-33.74,33.67-33.74s33.67,15.11,33.67,33.74c0,18.63-15.08,33.74-33.67,33.74
			S50.75,86.66,50.75,68.03z"/>
		<path class="st130" d="M52.75,67.66c0-17.42,14.09-31.54,31.48-31.54c17.39,0,31.48,14.13,31.48,31.54
			c0,17.42-14.09,31.55-31.48,31.55C66.84,99.21,52.75,85.08,52.75,67.66z"/>
		<path class="st131" d="M54.74,67.3c0-16.21,13.12-29.35,29.29-29.35c16.17,0,29.28,13.14,29.28,29.35
			c0,16.21-13.11,29.35-29.28,29.35C67.86,96.65,54.74,83.51,54.74,67.3z"/>
		<path class="st132" d="M56.74,66.93c0-14.99,12.13-27.15,27.1-27.15c14.97,0,27.1,12.16,27.1,27.15c0,15-12.12,27.16-27.1,27.16
			C68.87,94.09,56.74,81.93,56.74,66.93z"/>
		<path class="st133" d="M58.74,66.57c0-13.79,11.15-24.96,24.91-24.96s24.91,11.17,24.91,24.96c0,13.77-11.15,24.95-24.91,24.95
			S58.74,80.35,58.74,66.57z"/>
		<path class="st134" d="M60.74,66.2c0-12.57,10.16-22.76,22.71-22.76c12.54,0,22.71,10.19,22.71,22.76
			c0,12.57-10.17,22.76-22.71,22.76C70.9,88.96,60.74,78.77,60.74,66.2z"/>
		<path class="st135" d="M62.74,65.84c0-11.36,9.19-20.57,20.52-20.57c11.33,0,20.52,9.21,20.52,20.57
			c0,11.35-9.19,20.55-20.52,20.55C71.92,86.4,62.74,77.19,62.74,65.84z"/>
		<path class="st136" d="M64.73,65.47c0-10.14,8.2-18.36,18.33-18.36c10.12,0,18.33,8.23,18.33,18.36
			c0,10.14-8.21,18.36-18.33,18.36C72.93,83.83,64.73,75.61,64.73,65.47z"/>
		<path class="st137" d="M66.73,65.11c0-8.93,7.22-16.17,16.14-16.17c8.91,0,16.14,7.24,16.14,16.17c0,8.93-7.22,16.18-16.14,16.18
			C73.96,81.28,66.73,74.04,66.73,65.11z"/>
		<path class="st138" d="M68.73,64.74c0-7.72,6.25-13.97,13.95-13.97c7.7,0,13.94,6.25,13.94,13.97c0,7.72-6.24,13.97-13.94,13.97
			C74.97,78.71,68.73,72.46,68.73,64.74z"/>
		<path class="st139" d="M70.73,64.38c0-6.51,5.26-11.78,11.75-11.78c6.49,0,11.76,5.27,11.76,11.78c0,6.49-5.26,11.77-11.76,11.77
			C75.99,76.15,70.73,70.88,70.73,64.38z"/>
		<path class="st140" d="M72.73,64.01c0-5.29,4.28-9.58,9.56-9.58c5.28,0,9.55,4.29,9.55,9.58c0,5.29-4.28,9.58-9.55,9.58
			C77.01,73.59,72.73,69.3,72.73,64.01z"/>
		<path class="st141" d="M74.73,63.64c0-4.07,3.3-7.38,7.36-7.38c4.07,0,7.37,3.3,7.37,7.38c0,4.08-3.3,7.39-7.37,7.39
			C78.03,71.03,74.73,67.72,74.73,63.64z"/>
		<path class="st142" d="M76.72,63.28c0-2.87,2.32-5.19,5.18-5.19c2.86,0,5.18,2.32,5.18,5.19c0,2.86-2.32,5.19-5.18,5.19
			C79.04,68.47,76.72,66.14,76.72,63.28z"/>
		<path class="st1" d="M78.73,62.92c0-1.65,1.33-2.99,2.98-2.99c1.65,0,2.98,1.34,2.98,2.99c0,1.65-1.34,2.99-2.98,2.99
			C80.06,65.9,78.73,64.56,78.73,62.92z"/>
	</g>
</g>
</svg>
