<?xml version="1.0" encoding="utf-8"?>
<!-- Generator: Adobe Illustrator 26.2.1, SVG Export Plug-In . SVG Version: 6.00 Build 0)  -->
<svg version="1.1" id="Camada_1" xmlns="http://www.w3.org/2000/svg" xmlns:xlink="http://www.w3.org/1999/xlink" x="0px" y="0px"
	 viewBox="0 0 2103.97 682.57" style="enable-background:new 0 0 2103.97 682.57;" xml:space="preserve">
<style type="text/css">
	.st0{fill:#2566AF;}
	.st1{fill:#E6A540;}
</style>
<g>
	<path class="st0" d="M912.09,671.2H740.41l107.3-659.41h171.7L912.09,671.2z M595.98,11.78L432.31,465.33l-19.37-97.67l0.02,0.04
		L355.2,71.16c0,0-6.99-59.37-81.44-59.37H3.18L0,22.95c0,0,82.74,17.22,179.58,75.37l149.15,572.89h178.88L780.75,11.78
		L595.98,11.78L595.98,11.78z M1946.33,671.2h157.64L1966.53,11.77h-138.01c-63.73,0-79.25,49.14-79.25,49.14L1493.22,671.2h178.96
		l35.79-97.95h218.25L1946.33,671.2L1946.33,671.2z M1757.42,437.94l90.21-246.77l50.75,246.77H1757.42z M1506.65,170.36
		l24.5-141.61c0,0-75.6-28.75-154.41-28.75c-85.2,0-287.51,37.24-287.51,218.3c0,170.36,237.46,172.47,237.46,261.96
		s-212.99,73.45-283.28,17.02l-25.52,148.06c0,0,76.66,37.24,193.78,37.24c117.16,0,293.9-60.66,293.9-225.76
		c0-171.45-239.59-187.41-239.59-261.96C1265.98,120.3,1433.18,129.88,1506.65,170.36L1506.65,170.36z"/>
</g>
<path class="st1" d="M412.96,367.68L355.2,71.14c0,0-6.99-59.37-81.44-59.37H3.18L0,22.93c0,0,130.05,26.95,254.79,127.94
	C374.07,247.39,412.96,367.68,412.96,367.68z"/>
</svg>
