<?xml version="1.0" encoding="utf-8"?>
<!-- Generator: Adobe Illustrator 26.2.1, SVG Export Plug-In . SVG Version: 6.00 Build 0)  -->
<svg version="1.1" id="Camada_1" xmlns="http://www.w3.org/2000/svg" xmlns:xlink="http://www.w3.org/1999/xlink" x="0px" y="0px"
	 viewBox="0 0 826.99 804.11" style="enable-background:new 0 0 826.99 804.11;" xml:space="preserve">
<style type="text/css">
	.st0{fill-rule:evenodd;clip-rule:evenodd;fill:#DB9600;}
	.st1{fill:#54923C;}
	.st2{fill:#FFFFFF;}
</style>
<path class="st0" d="M0,804.11h826.99V612.04H0V804.11z"/>
<path class="st1" d="M826.99,615.59H0V0h826.99V615.59z"/>
<path class="st2" d="M733.87,540.18H549.52l-63.75-239.5h45.62c9.09,0.86,44.07-12.93,44-47.37c-0.12-31.24-28.71-30.58-38.78-31
	h-56.88L356.54,540.18H173.92l-123.19-336h150.75l59.45,178.33l70.64-278.25h270.05c73,0,132.25,62.29,132.25,139.12
	c0,52.16-27.3,97.63-67.66,121.43l67.66,175.35V540.18z M159.46,752.05v-97.4c8.5-1.53,17.13-2.27,25.77-2.2
	c13.09,0,22.61,2.44,28.56,7.33c5.95,4.89,8.93,11.48,8.94,19.77c0.11,5.55-1.65,10.97-5,15.4c-3.54,4.56-8.38,7.92-13.89,9.64
	c7.13,2.79,11.96,9.48,14.5,20.07c4,16.16,6.64,25.29,7.91,27.39h-14.07c-1.33-2.3-3.53-10.11-6.59-23.44
	c-1.56-6.93-3.89-11.83-7-14.72c-3.11-2.89-7.48-4.32-13.11-4.31h-12.4v42.47L159.46,752.05z M173.08,664.05v35.29h13.62
	c6.83,0,12.28-1.67,16.33-5c4.01-3.24,6.26-8.18,6.07-13.33c0-5.9-1.95-10.42-5.88-13.52s-9.59-4.64-17-4.64
	c-4.42-0.13-8.85,0.27-13.18,1.18L173.08,664.05z M299.91,719.41H248.5c0.2,7.66,2.57,13.53,7.1,17.6
	c4.53,4.07,10.42,6.11,17.65,6.1c7.06,0.15,14.07-1.1,20.65-3.66l2.35,9.52c-6.99,3.13-15.24,4.7-24.75,4.69
	c-11.04,0-19.83-3.27-26.37-9.81s-9.81-15.23-9.81-26.07c0-10.84,3.14-19.92,9.42-27.25s14.71-10.99,25.29-11
	c9.77,0,17.27,3.25,22.48,9.76c5.21,6.51,7.83,14.48,7.84,23.93c0.05,2.06-0.1,4.12-0.44,6.15V719.41z M248.65,709.6h38.52
	c0-6.11-1.57-11.03-4.72-14.77c-3.14-3.74-7.64-5.6-13.44-5.6c-5.15-0.15-10.13,1.88-13.7,5.6
	C251.7,698.56,249.48,703.48,248.65,709.6z M331.55,752.07h-13.63v-60.51H308v-10.4h10v-3.22c0-10.11,2.31-17.94,6.94-23.49
	s11.05-8.31,19.28-8.3c3.86-0.05,7.69,0.65,11.28,2.06l-1.61,10.54c-2.69-1.12-5.59-1.67-8.5-1.61c-9.28,0-13.92,6.79-13.91,20.36
	v3.66h17.43v10.4h-17.36v60.49L331.55,752.07z M418.39,719.41H367c0.2,7.66,2.57,13.53,7.11,17.6c4.54,4.07,10.42,6.11,17.63,6.1
	c7.06,0.15,14.07-1.1,20.65-3.66l2.34,9.52c-6.98,3.13-15.23,4.7-24.75,4.69c-11.04,0-19.83-3.27-26.36-9.81s-9.81-15.23-9.82-26.07
	c0-10.84,3.14-19.92,9.43-27.25s14.71-10.99,25.28-11c9.77,0,17.26,3.25,22.49,9.76c5.23,6.51,7.84,14.48,7.83,23.93
	c0.05,2.06-0.1,4.12-0.44,6.15L418.39,719.41z M367.13,709.6h38.52c0-6.11-1.57-11.03-4.71-14.77s-7.62-5.61-13.45-5.6
	c-5.15-0.15-10.12,1.88-13.69,5.6C370.18,698.56,367.96,703.48,367.13,709.6L367.13,709.6z M448.85,752.07h-13.61v-70.91h13.61
	v70.89V752.07z M450.76,659.65c0.14,4.64-3.51,8.51-8.15,8.65c-0.21,0.01-0.43,0-0.64-0.01c-2.33,0.08-4.59-0.82-6.23-2.49
	c-1.6-1.64-2.47-3.86-2.41-6.15c-0.03-2.25,0.86-4.42,2.46-6c1.68-1.65,3.97-2.54,6.33-2.44c2.31-0.08,4.56,0.81,6.2,2.44
	C449.92,655.23,450.8,657.4,450.76,659.65L450.76,659.65z M520.91,739.18l2.49,10.25c-6.28,2.73-13.06,4.13-19.91,4.1l-3.49,5.7
	c2.8,0.29,5.42,1.51,7.45,3.46c1.81,1.73,2.83,4.13,2.81,6.64c0.18,3.47-1.39,6.8-4.18,8.88c-2.78,2.08-6.61,3.12-11.5,3.13
	c-3.55,0.09-7.05-0.82-10.1-2.64l2.19-6.44c2.38,1.46,5.12,2.22,7.91,2.2c4.3,0,6.45-1.52,6.45-4.55c0-3.33-3.86-5.33-11.57-6
	l6.12-10.8c-9.48-1.27-16.9-5.17-22.27-11.72s-8.05-14.55-8.05-24c0-11.09,3.64-20.16,10.91-27.22
	c7.27-7.06,16.82-10.58,28.63-10.57c6.42-0.13,12.79,1.22,18.6,3.95l-2.92,10.4c-4.86-2.42-10.25-3.63-15.68-3.51
	c-7.76,0-13.97,2.45-18.62,7.34c-4.65,4.89-6.99,11.18-7,18.87c0,7.81,2.37,14.11,7.11,18.9c4.74,4.79,10.82,7.19,18.23,7.18
	c5.66,0.01,11.25-1.19,16.4-3.52L520.91,739.18z M590.63,709.18v25.93c-0.1,5.69,0.29,11.38,1.17,17h-12.45l-1.61-9.09
	c-5.33,7.13-12.8,10.7-22.41,10.7c-6.73,0-12.13-2-16.18-6c-3.95-3.73-6.16-8.95-6.08-14.38c0-8.59,3.73-15.15,11.2-19.7
	c7.47-4.55,18.38-6.83,32.73-6.85v-1.32c0-5-1.37-9-4.13-11.76s-6.86-4.2-12.28-4.2c-6.83-0.11-13.55,1.77-19.33,5.42l-3.07-8.94
	c6.83-4.29,14.98-6.43,24.45-6.44c9.23,0,16.21,2.54,20.93,7.61c4.72,5.07,7.05,12.41,7,22L590.63,709.18z M577.3,727.88v-11.72
	c-11.42,0-19.35,1.37-23.8,4.1c-4.45,2.73-6.67,6.49-6.66,11.28c0,3.76,1.12,6.69,3.34,8.82c2.4,2.19,5.57,3.34,8.81,3.19
	c4.79,0.13,9.45-1.6,13-4.81c3.51-3.19,5.26-6.81,5.27-10.86L577.3,727.88z M552.4,669.74h-6.88c0-4.67,0.85-8.33,2.54-11
	c1.46-2.54,4.2-4.07,7.13-4c2.19,0,5.36,1.12,9.52,3.37c2.93,1.66,5.17,2.48,6.73,2.48c2.3,0,3.57-2.09,3.81-6.29H582
	c0,9.67-3.33,14.5-10,14.5c-2.39,0-5.47-1.07-9.23-3.22c-2.93-1.66-5.12-2.49-6.59-2.49c-2.2,0-3.46,2.19-3.81,6.59L552.4,669.74z
	 M678.8,715.87c0.16,6.97-1.48,13.85-4.76,20c-3.06,5.6-7.69,10.19-13.33,13.18c-5.69,3.07-12.06,4.66-18.52,4.62
	c-10.35,0-18.9-3.39-25.64-10.16s-10.11-15.54-10.1-26.31c0-11.48,3.48-20.63,10.45-27.44s15.74-10.21,26.31-10.2
	c10.54,0,19.11,3.38,25.7,10.13c6.59,6.75,9.89,15.48,9.89,26.19V715.87z M620.37,716.75c0,7.76,2.07,14.16,6.22,19.21
	c3.72,4.84,9.5,7.66,15.6,7.59c6.22,0.08,12.13-2.73,16-7.61c4.27-5.08,6.4-11.62,6.39-19.63c0-7.37-1.96-13.66-5.88-18.87
	s-9.28-7.8-16.08-7.79c-6.89,0-12.32,2.57-16.29,7.72s-5.97,11.61-6,19.38L620.37,716.75z"/>
</svg>
