<?xml version="1.0" standalone="no"?>
<!DOCTYPE svg PUBLIC "-//W3C//DTD SVG 20010904//EN"
 "http://www.w3.org/TR/2001/REC-SVG-20010904/DTD/svg10.dtd">
<svg version="1.0" xmlns="http://www.w3.org/2000/svg"
 width="1366.000000pt" height="768.000000pt" viewBox="0 0 1366.000000 768.000000"
 preserveAspectRatio="xMidYMid meet">

<g transform="translate(0.000000,768.000000) scale(0.100000,-0.100000)"
fill="#000000" stroke="none">
<path d="M7444 6691 c-45 -27 -72 -70 -91 -145 -16 -59 -20 -65 -40 -60 -24 6
-22 10 -43 -86 -13 -63 -13 -70 8 -70 10 0 21 -2 24 -5 2 -3 -17 -114 -43
-247 -26 -134 -46 -244 -45 -245 0 -1 43 -20 95 -42 59 -25 97 -37 101 -31 4
6 28 125 55 266 l50 256 51 -7 51 -6 15 76 15 75 -23 5 c-80 16 -76 14 -70 43
4 15 19 37 33 50 26 23 51 25 114 6 13 -4 19 8 28 58 7 35 14 70 17 79 3 13
-14 19 -93 32 -125 22 -171 21 -209 -2z"/>
<path d="M6665 6521 c-75 -19 -142 -77 -166 -148 -10 -25 -14 -87 -14 -188 0
-167 9 -206 58 -261 59 -68 154 -95 270 -76 51 8 57 7 57 -8 0 -29 -33 -61
-69 -69 -35 -7 -145 1 -193 14 -26 7 -27 5 -48 -65 -12 -40 -20 -73 -18 -75
17 -16 123 -38 203 -42 121 -7 196 11 251 59 79 70 93 143 87 448 -5 225 0
260 41 260 25 0 36 28 36 95 0 30 -3 33 -44 44 -32 8 -57 8 -92 0 -64 -14 -86
-14 -164 5 -68 16 -144 19 -195 7z m170 -165 l35 -15 0 -159 c0 -179 3 -172
-76 -172 -86 0 -112 59 -101 228 5 78 8 89 32 109 30 27 61 29 110 9z"/>
<path d="M6053 6436 c-171 -39 -252 -118 -253 -245 0 -69 45 -259 77 -329 48
-102 141 -132 300 -97 105 23 196 67 230 112 41 54 43 140 8 286 -29 118 -53
177 -89 215 -55 61 -160 83 -273 58z m76 -161 c34 -17 53 -55 80 -162 24 -93
26 -122 10 -157 -11 -24 -54 -46 -90 -46 -43 0 -87 90 -111 230 -13 75 -1 115
42 137 32 16 35 16 69 -2z"/>
<path d="M7767 6328 c-31 -72 -33 -88 -13 -88 8 0 17 -4 21 -9 3 -6 -22 -77
-55 -160 -49 -121 -60 -160 -60 -205 0 -62 22 -116 62 -153 27 -25 145 -83
170 -83 29 0 29 -18 1 -40 -21 -16 -36 -20 -62 -16 -43 7 -132 50 -170 82
l-29 24 -46 -56 c-25 -31 -46 -60 -46 -65 0 -16 99 -87 163 -117 109 -52 181
-63 258 -42 49 14 119 77 151 136 21 40 147 342 238 573 l19 49 -98 40 -99 40
-92 -229 c-83 -206 -95 -229 -116 -229 -36 0 -72 17 -88 43 -15 22 -12 34 68
233 47 115 86 215 88 223 2 8 -33 28 -99 56 -151 64 -136 65 -166 -7z"/>
<path d="M5305 6356 c-44 -14 -77 -30 -303 -148 l-152 -80 36 -68 c34 -65 37
-68 60 -58 13 6 26 9 28 7 2 -2 74 -139 161 -304 87 -165 159 -302 161 -303 5
-7 330 171 377 206 87 66 125 150 112 249 -7 54 -69 193 -145 323 -94 161
-203 218 -335 176z m88 -220 c26 -27 67 -92 106 -167 92 -182 87 -239 -25
-301 -27 -15 -53 -26 -57 -25 -4 1 -64 108 -132 237 l-124 235 57 32 c83 47
121 45 175 -11z"/>
<path d="M5335 4937 c-49 -13 -133 -27 -186 -30 -594 -38 -1094 -483 -1205
-1074 -18 -97 -15 -183 9 -229 8 -16 73 -88 143 -159 126 -128 166 -182 257
-345 47 -83 93 -122 169 -142 101 -26 228 37 286 142 15 27 30 50 33 50 3 0
23 -26 44 -57 92 -139 346 -354 471 -397 66 -24 195 -31 267 -17 158 33 402
220 528 406 24 35 47 65 51 65 4 0 15 -15 24 -32 9 -18 35 -52 58 -76 73 -77
146 -102 239 -82 75 15 132 67 182 162 78 150 179 279 291 370 45 36 72 68 91
105 24 50 25 61 19 136 -7 92 -44 255 -76 338 -125 317 -369 578 -674 719
-147 68 -363 120 -500 120 -34 0 -90 9 -126 21 -46 15 -100 22 -185 25 -103 4
-133 1 -210 -19z m375 -125 c36 -11 122 -25 191 -31 287 -26 520 -130 723
-322 104 -98 185 -202 244 -316 85 -164 149 -417 122 -482 -6 -16 -46 -59 -88
-96 -126 -111 -236 -254 -312 -404 -53 -106 -144 -124 -224 -45 -53 53 -78
154 -56 233 14 54 -5 91 -49 91 -36 0 -49 -16 -101 -120 -80 -160 -208 -313
-355 -423 -107 -80 -168 -107 -258 -114 -96 -7 -164 13 -261 78 -169 112 -310
273 -407 464 -53 103 -58 110 -89 113 -18 2 -38 -2 -44 -8 -7 -7 -11 -53 -11
-118 0 -91 -4 -113 -22 -149 -27 -49 -62 -79 -113 -94 -32 -10 -44 -9 -77 7
-30 15 -46 34 -78 94 -75 139 -139 225 -263 348 -68 68 -127 135 -131 150 -19
65 28 273 93 416 77 169 226 354 376 467 110 83 288 167 430 204 32 8 125 22
206 30 82 8 181 24 219 35 87 25 236 22 335 -8z"/>
<path d="M4757 4612 c-27 -30 -67 -138 -95 -257 -24 -101 -26 -127 -26 -320 1
-170 5 -230 22 -318 11 -60 26 -114 32 -122 20 -24 50 -24 77 -1 l26 23 -23
134 c-48 289 -24 562 67 771 24 55 25 59 9 83 -20 30 -65 34 -89 7z"/>
<path d="M6132 4618 c-19 -19 -14 -51 18 -116 95 -191 131 -452 107 -763 -8
-92 -7 -108 8 -122 20 -20 55 -22 79 -4 41 30 52 397 17 600 -25 139 -71 287
-115 360 -27 45 -36 52 -66 55 -19 2 -41 -3 -48 -10z"/>
<path d="M5388 3911 c-69 -27 -104 -56 -128 -107 -31 -62 -23 -149 21 -245 53
-114 139 -179 236 -179 66 1 119 28 179 92 171 182 143 390 -61 443 -80 20
-188 19 -247 -4z m193 -101 c66 -13 109 -50 109 -95 0 -46 -45 -128 -95 -174
-35 -33 -52 -41 -81 -41 -87 0 -187 181 -144 260 14 25 45 42 95 51 59 10 58
10 116 -1z"/>
<path d="M5117 3332 c-30 -33 -21 -63 39 -119 67 -63 119 -95 200 -123 182
-63 394 -15 535 121 62 59 69 80 43 117 -26 37 -60 28 -127 -35 -34 -31 -86
-68 -117 -82 -48 -23 -68 -26 -160 -26 -135 0 -195 22 -284 106 -68 63 -100
73 -129 41z"/>
<path d="M9199 4745 c-110 -38 -266 -124 -376 -207 -58 -43 -115 -81 -127 -84
-13 -3 -49 1 -82 10 -163 41 -391 46 -553 11 -41 -8 -84 -13 -95 -9 -12 4 -58
29 -103 56 -167 100 -428 208 -502 208 -16 0 -36 -9 -46 -20 -16 -17 -17 -32
-11 -115 12 -178 59 -361 131 -510 l33 -70 -20 -75 c-23 -90 -34 -274 -20
-348 9 -50 8 -54 -19 -89 -16 -20 -29 -44 -29 -54 0 -27 28 -49 64 -49 18 0
36 -3 39 -6 4 -4 -16 -31 -43 -61 -53 -58 -64 -98 -34 -127 28 -29 66 -16 113
36 l28 31 30 -44 c43 -62 157 -169 231 -217 333 -215 801 -196 1114 44 31 25
88 83 125 129 37 47 70 85 74 85 4 0 19 -16 33 -35 33 -43 67 -53 101 -31 42
27 33 62 -31 127 -31 32 -53 62 -50 68 5 8 13 8 26 1 26 -14 46 -12 64 6 25
25 20 67 -13 98 -28 27 -29 28 -34 174 -4 114 -10 163 -27 219 l-23 72 38 56
c47 71 96 179 127 275 20 67 23 94 23 253 0 176 0 179 -24 198 -29 24 -50 23
-132 -6z m41 -247 c-19 -162 -70 -298 -160 -426 -47 -68 -49 -89 -14 -189 24
-71 46 -243 30 -243 -4 0 -23 8 -44 19 -102 52 -302 89 -402 74 -44 -7 -57
-13 -69 -35 -14 -25 -14 -29 5 -55 20 -26 25 -28 81 -25 121 7 290 -34 380
-92 33 -21 40 -40 25 -64 -6 -9 -23 -6 -72 14 -85 34 -193 54 -296 54 -77 0
-87 -2 -109 -25 -29 -28 -31 -43 -11 -71 12 -16 31 -20 138 -25 96 -4 141 -12
206 -33 45 -15 82 -32 82 -38 0 -18 -66 -102 -122 -154 -104 -98 -258 -170
-419 -195 -91 -14 -261 -6 -349 16 -79 21 -211 81 -277 126 -103 71 -207 189
-185 211 5 5 41 21 78 35 56 21 93 26 194 30 138 6 160 15 160 64 0 46 -31 59
-140 59 -103 0 -221 -24 -304 -60 -51 -23 -71 -18 -64 16 4 26 133 89 219 109
37 8 109 15 160 15 104 0 129 12 129 61 0 46 -30 59 -141 59 -117 0 -259 -33
-342 -80 l-56 -31 -7 38 c-10 51 9 200 36 295 l23 76 -41 74 c-47 86 -96 233
-117 354 -21 122 -20 137 8 129 69 -21 254 -108 346 -162 138 -82 160 -89 253
-74 226 37 356 37 519 1 154 -34 169 -30 328 88 93 70 235 150 308 176 48 17
49 15 33 -116z"/>
<path d="M8264 3681 c-11 -5 -33 -24 -49 -43 -81 -96 -74 -217 15 -263 43 -22
152 -20 199 5 98 50 90 196 -15 277 -37 28 -112 40 -150 24z m112 -153 c15
-30 15 -32 -2 -45 -22 -16 -58 -17 -85 -2 -23 12 -18 41 14 76 24 27 49 18 73
-29z"/>
<path d="M8622 3357 c-66 -61 -98 -81 -169 -107 -52 -19 -76 -22 -150 -18
-109 6 -175 34 -254 106 -61 56 -94 65 -122 34 -29 -32 -20 -61 36 -116 62
-60 169 -119 245 -135 171 -36 356 17 475 135 62 62 71 90 37 124 -29 29 -45
25 -98 -23z"/>
<path d="M4270 2190 l-42 -50 74 -175 74 -175 37 49 c20 26 37 53 37 59 0 6
-19 54 -41 107 -23 52 -39 98 -36 101 3 3 51 -4 106 -16 56 -12 107 -20 114
-17 11 4 83 97 74 97 -2 0 -82 16 -177 35 -95 19 -174 35 -176 35 -1 0 -21
-23 -44 -50z"/>
<path d="M8803 2202 c-95 -20 -173 -38 -173 -41 0 -3 18 -26 39 -51 l39 -44
108 21 c60 11 111 19 113 17 2 -2 -15 -49 -38 -103 -25 -59 -40 -107 -37 -118
4 -10 21 -35 39 -56 l32 -37 70 166 c39 91 71 169 73 173 3 9 -77 111 -86 110
-4 0 -85 -17 -179 -37z"/>
<path d="M4727 1888 l-299 -270 62 -40 c34 -21 66 -38 71 -36 14 5 599 530
599 538 0 8 -117 80 -128 79 -4 0 -141 -122 -305 -271z"/>
<path d="M8512 2086 c-29 -18 -55 -35 -58 -38 -2 -3 37 -74 87 -158 l92 -153
-28 -24 c-48 -42 -62 -31 -155 124 -47 78 -88 145 -91 148 -4 3 -43 -16 -87
-43 l-80 -48 29 -48 c23 -37 33 -45 43 -37 16 14 17 13 85 -101 70 -117 106
-148 174 -148 43 0 64 7 111 35 32 19 60 35 62 35 13 0 1 -53 -16 -70 -22 -22
-83 -54 -121 -64 -27 -6 -27 -6 -15 -53 13 -48 13 -48 53 -46 45 2 144 48 185
86 62 58 77 147 38 228 -35 73 -234 402 -245 405 -5 1 -34 -12 -63 -30z"/>
<path d="M5165 1955 c-52 -27 -93 -84 -139 -194 -58 -137 -71 -195 -56 -251
27 -99 184 -189 333 -190 l47 0 0 49 0 48 -49 7 c-100 13 -171 58 -171 108 0
59 93 265 132 292 30 21 66 20 105 -4 31 -19 51 -59 39 -78 -5 -8 60 -42 79
-42 3 0 20 31 39 68 l34 68 -46 32 c-131 88 -276 124 -347 87z"/>
<path d="M8010 1820 c-45 -8 -110 -42 -134 -69 -11 -12 -28 -21 -39 -21 -34 0
-96 -22 -112 -40 -14 -16 -14 -21 1 -54 14 -28 23 -36 45 -36 29 0 27 3 129
-247 l33 -81 51 20 c28 11 59 23 69 25 9 3 17 9 17 14 0 5 -29 79 -65 166
l-65 158 25 23 c55 47 89 24 140 -98 67 -160 79 -174 142 -172 33 1 107 33
117 51 4 5 -1 26 -11 46 -12 26 -22 35 -35 32 -28 -8 -45 13 -87 112 -22 51
-50 105 -63 118 -43 46 -99 65 -158 53z"/>
<path d="M5620 1670 c-58 -14 -103 -72 -130 -170 -45 -164 -38 -219 33 -267
46 -32 192 -68 238 -59 44 8 84 37 104 77 19 36 65 206 65 238 0 14 -9 44 -21
68 -25 51 -83 90 -168 109 -62 15 -71 15 -121 4z m132 -127 c8 -10 18 -26 21
-35 8 -22 -28 -163 -48 -195 -20 -30 -67 -31 -96 -2 -23 23 -22 51 6 145 27
92 79 130 117 87z"/>
<path d="M7453 1645 c-47 -13 -123 -47 -162 -74 -12 -7 -9 -17 12 -54 l27 -46
58 24 c84 34 126 36 142 5 9 -17 6 -20 -32 -30 -72 -18 -118 -42 -148 -77 -38
-43 -41 -107 -7 -173 18 -36 31 -49 70 -64 42 -18 54 -19 102 -9 30 7 76 21
102 33 27 12 69 23 95 24 26 2 58 10 72 19 22 15 23 19 14 57 -9 33 -15 40
-35 40 -28 0 -41 27 -68 140 -24 103 -56 157 -108 181 -49 22 -65 22 -134 4z
m125 -302 c6 -27 7 -52 2 -57 -4 -4 -28 -11 -53 -13 -39 -5 -47 -2 -57 16 -19
36 -8 64 30 83 55 28 65 24 78 -29z"/>
<path d="M5970 1527 c0 -35 5 -48 22 -59 l22 -15 -16 -174 c-8 -96 -15 -175
-14 -176 1 -1 35 -3 76 -5 l75 -3 14 170 c8 97 19 173 25 177 6 4 25 8 43 8
51 0 55 -17 37 -200 -8 -89 -13 -164 -10 -167 3 -3 34 -8 69 -10 l65 -6 5 29
c4 16 12 95 18 176 l12 148 35 6 c65 12 67 5 64 -169 -3 -100 0 -162 7 -176
14 -26 73 -43 131 -39 l45 3 3 48 c3 41 1 47 -17 47 -29 0 -32 25 -21 134 20
192 -33 267 -187 265 -37 0 -76 -4 -87 -8 -11 -4 -33 0 -57 12 -27 13 -56 18
-101 17 -85 -2 -122 -1 -195 6 l-63 6 0 -45z"/>
<path d="M6990 1557 c-30 -7 -64 -18 -74 -24 -11 -6 -45 -8 -80 -6 -81 6 -101
-8 -91 -65 4 -25 11 -39 18 -36 34 12 40 -13 65 -278 14 -144 27 -265 28 -267
2 -2 35 9 75 25 l71 28 -6 67 -7 66 70 5 c86 6 139 32 169 84 21 36 23 47 18
144 -3 58 -10 121 -16 141 -29 100 -118 143 -240 116z m70 -117 c36 -19 54
-186 24 -228 -12 -17 -25 -22 -58 -22 -52 0 -52 -1 -62 140 -6 94 -6 96 17
107 30 15 55 16 79 3z"/>
</g>
</svg>
