<?xml version="1.0" standalone="no"?>
<!DOCTYPE svg PUBLIC "-//W3C//DTD SVG 20010904//EN"
 "http://www.w3.org/TR/2001/REC-SVG-20010904/DTD/svg10.dtd">
<svg version="1.0" xmlns="http://www.w3.org/2000/svg"
 width="537.000000pt" height="465.000000pt" viewBox="0 0 537.000000 465.000000"
 preserveAspectRatio="xMidYMid meet">

<g transform="translate(0.000000,465.000000) scale(0.100000,-0.100000)"
fill="#000000" stroke="none">
<path d="M1314 4385 c-11 -12 -27 -24 -36 -28 -10 -3 -18 -13 -18 -20 0 -10
-9 -13 -30 -11 -26 3 -30 0 -30 -21 0 -14 -5 -25 -11 -25 -6 0 -9 -17 -7 -42
2 -33 7 -42 19 -40 13 2 15 -4 11 -24 -5 -25 -6 -26 -18 -9 -12 16 -14 15 -20
-10 -4 -15 -9 -23 -13 -18 -3 5 -16 9 -27 9 -19 0 -21 -5 -16 -38 4 -31 1 -38
-12 -38 -13 0 -15 -6 -10 -27 9 -35 9 -36 47 -49 18 -6 33 -18 35 -27 2 -8
-21 -39 -50 -69 -63 -62 -68 -83 -20 -83 25 0 40 -8 58 -29 23 -27 24 -30 9
-52 -9 -14 -17 -38 -18 -54 -1 -17 -6 -30 -11 -30 -4 0 -5 -7 -2 -16 3 -8 2
-12 -4 -9 -6 3 -10 1 -10 -4 0 -6 5 -11 11 -11 6 0 9 -9 6 -20 -5 -20 18 -48
30 -36 4 4 1 12 -7 17 -13 9 -13 10 0 6 8 -2 21 -14 27 -28 7 -13 13 -18 13
-10 0 11 3 11 15 1 12 -10 15 -10 15 1 1 11 3 10 13 -2 7 -9 18 -14 25 -11 7
2 11 -2 10 -8 -2 -7 3 -15 10 -17 6 -3 12 2 12 10 0 8 7 20 15 27 13 10 15 9
15 -10 0 -22 1 -22 18 -7 10 10 26 17 35 17 10 0 17 8 17 19 0 11 4 22 8 25 5
3 7 27 5 53 -4 41 -10 53 -46 85 -23 20 -58 40 -77 44 -19 4 -44 11 -55 17
-11 6 -26 12 -34 13 -8 2 -21 10 -30 19 -15 16 -14 17 7 10 16 -4 22 -3 20 6
-2 7 3 14 10 15 6 1 17 2 23 3 5 0 7 6 4 11 -3 6 3 10 13 10 11 0 22 -7 26
-15 3 -8 12 -15 20 -15 12 0 14 8 10 33 l-6 32 26 -30 c22 -26 25 -28 26 -10
1 20 1 20 15 1 15 -19 15 -19 15 5 1 22 2 23 14 7 14 -19 32 -25 21 -8 -3 6
-2 10 4 10 5 0 11 -5 13 -12 3 -7 12 -9 23 -4 14 5 16 9 7 18 -18 18 -15 24
23 67 29 32 34 43 29 70 -4 17 -12 31 -18 31 -7 0 -30 -18 -53 -39 -22 -22
-56 -44 -76 -49 l-35 -10 10 32 c5 17 16 43 23 57 14 25 11 39 -7 39 -4 0 -8
-7 -8 -15 0 -17 -9 -19 -30 -5 -10 6 -15 27 -16 65 0 38 -6 63 -18 77 -17 19
-17 23 -1 67 10 25 28 57 40 71 13 14 26 35 29 47 6 17 3 22 -12 20 -11 0 -28
-11 -38 -22z m-41 -200 c-3 -9 -8 -14 -10 -11 -3 3 -2 9 2 15 9 16 15 13 8 -4z
m-33 -97 c0 -49 -5 -47 -14 5 -4 23 -3 37 4 37 5 0 10 -19 10 -42z m136 -160
c-10 -6 -20 -7 -24 -3 -9 8 20 25 31 18 5 -3 2 -10 -7 -15z"/>
<path d="M4306 4214 c-35 -34 -46 -62 -50 -124 -2 -36 -2 -54 0 -40 13 66 36
126 56 147 25 26 19 42 -6 17z"/>
<path d="M4420 4020 c0 -39 3 -51 10 -40 5 8 10 26 10 40 0 14 -5 32 -10 40
-7 11 -10 -1 -10 -40z"/>
<path d="M4495 3996 c-6 -27 -2 -39 14 -55 20 -20 23 -20 37 -6 15 14 14 17
-5 34 -12 10 -21 28 -21 40 0 34 -18 24 -25 -13z"/>
<path d="M4595 3968 c-4 -10 -11 -15 -16 -12 -13 8 -11 -30 3 -44 17 -17 31
-15 25 2 -3 8 -1 16 4 18 7 2 7 12 1 28 -9 22 -11 23 -17 8z"/>
<path d="M4630 3940 c0 -19 3 -21 12 -12 9 9 9 15 0 24 -9 9 -12 7 -12 -12z"/>
<path d="M4249 3920 c-2 -8 -10 -84 -11 -100 -1 -8 -16 -32 -34 -52 -33 -37
-81 -120 -67 -116 5 2 9 -1 10 -7 1 -5 -7 -9 -17 -7 -14 2 -21 -4 -26 -25 -3
-15 -12 -32 -18 -38 -23 -19 -63 -156 -51 -174 3 -6 2 -11 -2 -11 -8 0 -36
-113 -48 -192 -4 -24 -13 -42 -26 -49 -12 -6 -18 -17 -15 -25 3 -9 -1 -14 -11
-14 -9 0 -13 -3 -10 -6 3 -4 21 0 39 9 65 30 111 47 128 47 10 0 20 7 24 15 6
17 46 21 46 5 0 -5 -7 -10 -16 -10 -8 0 -13 -4 -9 -9 3 -5 21 -7 40 -4 23 4
35 2 35 -6 0 -8 12 -10 38 -6 74 12 97 15 82 8 -62 -25 -70 -28 -99 -31 -7 -1
-11 -8 -8 -16 3 -8 3 -17 -1 -20 -3 -4 -7 -12 -8 -19 -1 -8 18 -3 55 14 31 14
67 30 81 34 l25 8 -26 -25 c-15 -14 -33 -25 -40 -25 -19 0 -91 -34 -85 -41 3
-3 11 0 18 5 21 17 98 32 98 20 0 -6 3 -7 7 -4 3 4 13 -2 20 -13 8 -11 19 -18
24 -15 5 4 9 1 9 -5 0 -20 38 9 54 41 21 42 20 44 -10 24 -26 -16 -26 -16 -19
7 7 20 6 21 -9 9 -9 -8 -16 -9 -16 -3 0 17 20 25 79 33 30 4 60 14 68 22 13
13 11 17 -15 35 -16 12 -48 24 -71 28 -23 4 -44 10 -47 15 -3 5 2 6 11 3 10
-4 15 -2 13 7 -2 11 9 13 50 11 46 -3 56 0 69 17 10 16 25 21 56 21 l41 0 -38
39 c-23 24 -34 41 -27 45 16 10 14 41 -4 56 -8 7 -15 21 -15 31 0 10 -9 24
-21 32 -14 10 -17 17 -9 22 6 4 17 0 23 -9 13 -17 77 -46 103 -46 13 0 15 6 9
28 -3 15 -15 36 -24 47 -22 23 -41 59 -41 74 0 20 20 11 30 -11 5 -13 9 -17 9
-10 1 7 6 10 11 7 6 -4 10 12 10 39 0 47 -12 55 -47 33 -6 -4 -19 0 -27 9 -14
13 -16 13 -16 1 0 -9 -5 -17 -11 -19 -9 -3 -9 -10 0 -26 7 -12 9 -26 7 -31 -3
-5 1 -11 9 -15 8 -3 15 -11 15 -18 0 -10 -2 -10 -9 0 -4 8 -11 13 -15 13 -20
-3 -27 2 -41 32 l-16 32 21 -24 c11 -13 20 -21 20 -17 0 10 -35 81 -43 87 -5
3 -8 8 -7 10 1 4 -1 11 -13 49 -3 8 -6 0 -6 -18 -1 -18 6 -45 15 -60 15 -25
15 -26 -1 -7 -9 11 -20 27 -25 35 -7 12 -12 13 -29 3 -32 -20 -48 -16 -68 17
-9 17 -23 30 -30 30 -7 0 -12 3 -10 8 1 4 -8 17 -19 28 -12 12 -29 43 -39 70
-17 45 -34 75 -36 64z m306 -518 c-3 -3 -11 0 -18 7 -9 10 -8 11 6 5 10 -3 15
-9 12 -12z m-400 -192 c3 -6 -4 -10 -17 -10 -18 0 -20 2 -8 10 19 12 18 12 25
0z m222 -46 c-3 -3 -12 -4 -19 -1 -8 3 -5 6 6 6 11 1 17 -2 13 -5z"/>
<path d="M4626 3897 c3 -10 9 -15 12 -12 3 3 0 11 -7 18 -10 9 -11 8 -5 -6z"/>
<path d="M4857 3759 c-21 -12 -59 -88 -51 -101 9 -15 32 -8 64 19 22 18 45 27
74 29 56 2 56 2 50 19 -4 8 -1 15 5 15 6 0 8 6 5 14 -4 10 -18 13 -45 10 -22
-2 -44 -6 -49 -9 -5 -3 -11 -1 -15 5 -8 12 -15 12 -38 -1z"/>
<path d="M4544 3729 c3 -17 6 -39 7 -48 0 -10 4 -8 10 7 10 27 2 72 -13 72 -6
0 -8 -13 -4 -31z"/>
<path d="M1063 3613 c9 -9 20 -13 24 -9 4 4 1 11 -7 16 -25 16 -35 11 -17 -7z"/>
<path d="M4767 3610 c-29 -23 -52 -110 -41 -154 4 -16 30 -45 65 -72 33 -25
57 -50 53 -55 -3 -6 3 -13 14 -16 12 -3 18 -11 15 -19 -3 -8 5 -16 22 -20 30
-7 54 16 55 54 0 12 5 22 11 22 6 0 8 -7 5 -16 -5 -12 -1 -14 17 -8 28 9 37
22 37 57 0 30 -25 37 -49 15 -11 -10 -13 -10 -7 0 11 18 -1 15 -24 -8 -21 -21
-74 -27 -85 -9 -4 6 2 20 13 32 51 55 55 124 10 171 -43 44 -78 52 -111 26z"/>
<path d="M4960 3585 c0 -14 4 -25 9 -25 5 0 7 -9 4 -20 -3 -12 0 -20 7 -20 7
0 4 -12 -9 -34 -22 -35 -28 -61 -11 -51 6 3 10 15 10 26 0 11 4 18 9 15 11 -7
21 16 22 52 l1 27 8 -25 c9 -27 10 -26 14 8 2 16 -4 24 -21 28 -14 4 -23 14
-23 25 0 10 -4 19 -10 19 -5 0 -10 -11 -10 -25z"/>
<path d="M660 3571 c-36 -34 -37 -41 -6 -41 28 0 33 5 40 43 6 34 3 34 -34 -2z"/>
<path d="M188 3573 c7 -3 16 -2 19 1 4 3 -2 6 -13 5 -11 0 -14 -3 -6 -6z"/>
<path d="M581 3566 c-8 -9 -11 -19 -7 -23 9 -9 29 13 24 27 -2 8 -8 7 -17 -4z"/>
<path d="M75 3557 c19 -15 18 -15 -17 -22 -20 -4 -41 -4 -47 0 -8 4 -11 -83
-11 -290 0 -288 1 -297 20 -302 11 -3 18 -9 15 -13 -5 -9 89 -50 116 -50 10 0
21 -5 24 -10 4 -6 11 -8 16 -5 5 4 9 1 9 -6 0 -8 6 -6 18 4 18 16 19 16 18 -5
-1 -19 4 -22 26 -20 14 2 29 -2 33 -8 5 -8 11 -8 21 1 10 8 22 8 44 1 21 -8
30 -8 30 0 0 5 6 8 14 5 20 -8 94 31 137 71 18 17 40 32 46 32 23 0 72 -80 79
-128 6 -41 -2 -133 -22 -253 -5 -28 -2 -37 10 -42 24 -10 41 1 59 36 9 18 26
44 38 59 36 44 38 154 5 248 -24 71 -25 76 -8 88 15 12 14 13 -10 7 -31 -8
-35 -1 -13 21 28 29 18 68 -28 111 -24 22 -48 42 -54 44 -6 2 -13 28 -15 58
-2 38 -9 62 -24 78 -12 13 -27 43 -34 68 -7 25 -17 48 -22 52 -6 3 -5 9 3 14
11 7 10 11 -6 23 -19 14 -19 15 -2 16 25 0 65 32 59 48 -2 6 -11 12 -20 12 -8
0 -12 3 -9 7 4 3 2 12 -5 20 -9 12 -18 7 -50 -29 -22 -24 -34 -33 -29 -21 8
16 7 22 -5 27 -11 4 -14 13 -10 30 9 35 -7 40 -64 21 -40 -13 -59 -14 -107 -6
-32 6 -89 10 -128 9 -38 -2 -81 1 -95 6 -24 8 -24 7 -5 -7z m331 -194 c-3 -24
-7 -28 -30 -25 -25 3 -27 2 -16 -18 14 -26 8 -36 -10 -15 -7 8 -21 15 -32 15
-15 0 -18 -5 -13 -22 6 -17 4 -20 -4 -12 -7 6 -13 23 -14 38 -2 24 3 29 48 45
70 25 74 25 71 -6z m54 -3 c15 0 72 -90 68 -108 -3 -13 -8 -9 -21 15 -9 18
-33 45 -52 60 -36 29 -46 50 -19 39 9 -3 20 -6 24 -6z"/>
<path d="M865 3471 c6 -10 0 -12 -22 -7 -38 9 -91 -3 -71 -15 9 -6 6 -9 -12
-10 -18 -1 -20 -3 -7 -6 12 -3 17 -12 15 -26 -2 -18 -9 -22 -36 -19 -40 3 -50
-16 -27 -51 13 -20 13 -26 3 -30 -8 -3 -5 -6 6 -6 11 -1 16 -4 13 -8 -4 -3 0
-17 8 -30 15 -22 14 -23 -7 -23 -21 -1 -21 -2 -5 -11 9 -5 21 -8 26 -5 5 3 15
-1 22 -10 10 -13 10 -17 -2 -25 -11 -7 -9 -9 8 -9 16 0 21 -5 18 -20 -2 -11 0
-20 5 -20 4 0 11 -7 14 -15 4 -11 -3 -19 -19 -25 -14 -5 -25 -15 -25 -21 0 -9
3 -9 14 0 10 8 20 8 42 -4 21 -10 30 -11 35 -3 4 6 14 13 23 14 11 2 13 -3 7
-19 -11 -29 11 -52 37 -38 10 6 24 6 32 1 10 -6 19 -2 29 12 13 19 12 23 -9
40 -31 25 -20 32 50 30 36 -1 58 3 55 8 -4 6 -2 10 4 10 5 0 13 -9 16 -20 5
-15 0 -26 -19 -41 -51 -40 -25 -38 29 3 53 40 72 64 39 51 -13 -5 -14 0 -9 31
6 28 4 36 -8 36 -8 0 -17 9 -20 21 -5 19 -4 20 19 4 25 -16 25 -16 14 4 -6 12
-14 21 -18 21 -4 0 -8 9 -8 20 0 11 6 20 13 20 6 0 10 -8 9 -17 -4 -19 20 -48
28 -35 6 9 -24 74 -39 84 -6 5 -5 8 4 8 11 0 11 3 0 16 -11 14 -10 19 6 33 14
11 19 25 17 46 -5 39 -22 49 -44 25 -14 -15 -23 -17 -60 -9 -23 6 -47 14 -53
19 -6 5 -31 11 -56 14 -24 2 -55 8 -68 12 -18 5 -22 4 -16 -5z m70 -131 c-3
-5 -11 -10 -16 -10 -6 0 -7 5 -4 10 3 6 11 10 16 10 6 0 7 -4 4 -10z"/>
<path d="M5275 3444 c-9 -9 -13 -19 -10 -22 3 -3 15 4 28 16 12 12 16 22 10
22 -6 0 -19 -7 -28 -16z"/>
<path d="M5325 3450 c-3 -5 3 -10 14 -10 12 0 21 5 21 10 0 6 -6 10 -14 10 -8
0 -18 -4 -21 -10z"/>
<path d="M1480 3410 c0 -5 7 -7 15 -4 8 4 15 8 15 10 0 2 -7 4 -15 4 -8 0 -15
-4 -15 -10z"/>
<path d="M5347 3403 c-12 -11 -8 -23 8 -23 8 0 15 7 15 15 0 16 -12 20 -23 8z"/>
<path d="M5333 3363 c4 -3 2 -12 -4 -20 -8 -8 -8 -13 -1 -13 6 0 17 -3 26 -6
12 -5 16 0 16 20 0 20 -5 26 -22 26 -12 0 -18 -3 -15 -7z"/>
<path d="M1465 3350 c-3 -5 -1 -10 4 -10 6 0 11 5 11 10 0 6 -2 10 -4 10 -3 0
-8 -4 -11 -10z"/>
<path d="M1460 3320 c-9 -6 -10 -10 -3 -10 6 0 15 5 18 10 8 12 4 12 -15 0z"/>
<path d="M5320 3310 c0 -5 5 -10 10 -10 6 0 10 5 10 10 0 6 -4 10 -10 10 -5 0
-10 -4 -10 -10z"/>
<path d="M4953 3276 c-6 -8 -17 -33 -23 -57 -7 -24 -21 -54 -32 -66 -16 -17
-18 -25 -8 -42 8 -17 15 -19 29 -12 44 24 105 40 117 30 8 -6 14 -4 18 7 9 22
8 24 -9 24 -8 0 -28 28 -45 65 -17 36 -31 65 -33 65 -1 -1 -7 -7 -14 -14z"/>
<path d="M1418 3263 c7 -3 16 -2 19 1 4 3 -2 6 -13 5 -11 0 -14 -3 -6 -6z"/>
<path d="M1440 3238 c0 -8 6 -20 13 -27 10 -11 8 -11 -10 -2 -28 14 -40 14
-26 0 15 -15 5 -39 -14 -39 -9 0 -13 -6 -10 -14 3 -8 -5 -18 -19 -25 -21 -9
-23 -14 -14 -30 18 -34 49 -50 88 -44 25 4 33 3 28 -5 -10 -17 -2 -15 44 9 22
12 45 30 51 41 14 27 5 104 -16 124 -22 23 -115 32 -115 12z m100 -86 c0 -15
-2 -15 -10 -2 -13 20 -13 33 0 25 6 -3 10 -14 10 -23z m-60 -63 c19 2 22 0 13
-9 -13 -14 -63 -5 -63 11 0 6 6 7 13 2 6 -4 23 -6 37 -4z"/>
<path d="M5356 3163 c-6 -14 -5 -15 5 -6 7 7 10 15 7 18 -3 3 -9 -2 -12 -12z"/>
<path d="M1220 3161 c0 -6 5 -13 10 -16 6 -3 10 1 10 9 0 9 -4 16 -10 16 -5 0
-10 -4 -10 -9z"/>
<path d="M4814 3157 c-4 -12 -22 -14 -103 -11 l-98 5 -46 -50 c-44 -47 -47
-54 -47 -103 0 -46 -3 -55 -22 -63 -13 -6 -24 -19 -26 -30 -2 -11 -8 -30 -14
-42 -10 -20 -4 -29 48 -82 71 -72 97 -81 100 -33 1 27 -1 31 -12 21 -12 -9
-13 -9 -8 4 3 9 -3 25 -15 38 -11 12 -23 39 -26 58 -4 20 -8 46 -10 57 -5 21
-2 21 58 17 58 -5 64 -4 91 23 33 33 46 63 46 105 0 22 5 29 20 29 23 0 40
-28 40 -66 0 -15 3 -25 6 -21 4 3 14 -3 23 -15 16 -19 19 -19 33 -5 9 9 18 14
21 11 3 -3 10 4 16 15 9 17 8 24 -9 41 -16 16 -19 25 -11 34 6 7 7 16 3 20 -4
4 -7 12 -7 18 0 6 -10 17 -22 25 -20 14 -23 14 -29 0z"/>
<path d="M1742 3110 l-42 -16 20 -22 c30 -32 66 -29 85 8 14 27 14 30 -2 38
-12 6 -33 3 -61 -8z"/>
<path d="M4176 3107 c-15 -11 -16 -15 -4 -25 11 -9 19 -8 34 3 12 9 14 14 6
15 -7 0 -10 5 -7 10 9 14 -8 12 -29 -3z"/>
<path d="M1022 3039 c0 -31 3 -36 19 -32 10 3 19 8 19 12 0 11 -20 36 -21 26
0 -5 -4 -1 -8 10 -7 16 -9 12 -9 -16z"/>
<path d="M997 3044 c-4 -4 -7 -14 -7 -23 0 -11 3 -12 11 -4 6 6 10 16 7 23 -2
6 -7 8 -11 4z"/>
<path d="M846 3025 c4 -8 7 -15 9 -15 2 0 5 7 9 15 3 9 0 15 -9 15 -9 0 -12
-6 -9 -15z"/>
<path d="M3810 2988 l-23 -33 28 28 c15 16 25 31 22 33 -3 3 -15 -10 -27 -28z"/>
<path d="M860 2995 c-24 -14 -24 -14 -3 -15 12 0 25 5 28 11 11 17 2 18 -25 4z"/>
<path d="M4750 2973 c-12 -21 -23 -44 -24 -51 -3 -18 -26 -32 -52 -32 -26 0
-50 -25 -35 -35 6 -3 19 -1 30 4 14 8 20 8 23 0 3 -8 16 -6 42 5 32 13 37 20
35 43 -1 16 4 40 11 56 9 19 10 31 3 38 -7 7 -17 -2 -33 -28z"/>
<path d="M1594 2975 c-4 -8 -3 -27 0 -41 6 -23 5 -24 -14 -14 -15 8 -20 8 -20
-1 0 -6 -7 -8 -16 -5 -26 10 -42 -14 -31 -45 10 -25 12 -26 33 -12 22 14 24
13 42 -17 13 -21 22 -27 25 -18 4 9 6 10 6 1 1 -7 6 -13 12 -13 5 0 7 5 4 10
-3 6 -3 10 2 10 4 -1 21 -20 37 -43 29 -41 29 -41 38 -17 12 34 11 34 60 6 24
-13 58 -26 76 -29 26 -4 32 -2 32 13 0 22 -36 59 -59 62 -49 4 -82 18 -75 29
3 5 -6 19 -20 30 -14 11 -25 23 -25 27 3 18 -3 31 -26 56 -13 14 -30 26 -36
26 -7 0 -2 -11 11 -25 13 -14 21 -28 17 -31 -4 -4 -9 0 -13 9 -3 9 -17 23 -30
32 -22 14 -25 14 -30 0z m30 -31 c3 -8 2 -12 -4 -9 -6 3 -10 10 -10 16 0 14 7
11 14 -7z"/>
<path d="M790 2976 c0 -2 7 -7 16 -10 8 -3 12 -2 9 4 -6 10 -25 14 -25 6z"/>
<path d="M5280 2960 c0 -7 -13 -8 -35 -4 -23 4 -35 2 -35 -5 0 -6 -5 -11 -11
-11 -16 0 -36 -24 -31 -38 2 -6 -2 -12 -8 -12 -8 0 -11 -12 -8 -35 4 -31 2
-34 -15 -29 -13 4 -17 2 -13 -5 4 -6 0 -11 -8 -11 -9 0 -15 -3 -15 -7 1 -5 0
-11 -1 -15 -4 -14 -7 -28 -9 -40 0 -6 -4 -8 -8 -4 -4 3 -13 -4 -20 -16 -11
-21 -13 -20 -17 15 -1 14 -28 17 -38 3 -3 -5 -2 -20 2 -32 7 -18 6 -22 -4 -18
-7 3 -21 24 -30 47 l-17 42 -14 -25 c-9 -15 -15 -19 -15 -10 -1 8 -7 2 -16
-15 -10 -20 -13 -23 -10 -9 2 16 -1 21 -13 19 -11 -1 -16 -12 -16 -37 0 -21
-5 -35 -12 -35 -7 0 -13 10 -13 22 0 14 -6 21 -20 21 -15 0 -22 -10 -27 -40
-10 -47 -4 -118 8 -110 5 3 9 -4 9 -15 0 -12 5 -21 11 -21 6 0 9 6 6 13 -3 8
-1 20 4 28 9 15 13 -7 11 -61 -1 -24 0 -24 13 -6 7 10 18 15 23 12 5 -3 7 6 4
22 -5 23 -3 25 9 12 8 -8 21 -30 28 -48 10 -22 17 -29 22 -21 5 8 9 2 11 -17
4 -27 5 -26 13 14 5 26 13 42 22 42 11 0 13 -7 8 -31 -5 -22 -4 -29 4 -25 6 4
11 14 11 22 0 8 5 23 12 33 10 16 7 26 -17 63 -24 37 -25 40 -6 23 26 -23 41
-47 46 -77 3 -11 7 -23 11 -27 4 -3 4 2 0 13 -5 14 -2 17 9 12 9 -3 21 4 32
20 15 23 15 26 0 42 -16 15 -18 15 -31 -3 -12 -17 -14 -16 -17 22 -4 34 -2 39
13 35 10 -2 18 -10 18 -17 0 -7 7 -18 15 -25 12 -10 15 -9 15 6 0 11 -7 32
-15 48 -11 20 -11 25 -2 18 19 -16 57 -4 50 15 -5 13 -2 13 15 4 18 -9 21 -7
30 18 6 16 8 32 5 35 -4 3 1 6 10 6 10 0 17 7 17 15 0 8 5 15 10 15 6 0 10 6
10 13 0 6 14 18 30 26 21 9 33 22 37 42 3 16 11 29 17 29 22 0 10 52 -15 66
-29 16 -39 17 -39 4z m-70 -66 c0 -2 -7 -4 -15 -4 -8 0 -15 4 -15 10 0 5 7 7
15 4 8 -4 15 -8 15 -10z m-270 -219 c0 -5 -5 -3 -10 5 -5 8 -10 20 -10 25 0 6
5 3 10 -5 5 -8 10 -19 10 -25z m-103 -77 c-3 -8 -6 -5 -6 6 -1 11 2 17 5 13 3
-3 4 -12 1 -19z m156 -18 c3 -11 3 -20 1 -20 -2 0 -8 9 -14 20 -6 11 -7 20 -2
20 6 0 12 -9 15 -20z m37 -50 c0 -5 -4 -10 -10 -10 -5 0 -10 5 -10 10 0 6 5
10 10 10 6 0 10 -4 10 -10z"/>
<path d="M3776 2939 c-11 -36 -15 -79 -7 -84 5 -3 11 16 13 43 5 48 2 66 -6
41z"/>
<path d="M4029 2919 c-21 -17 -22 -19 -4 -16 11 2 28 8 39 13 14 9 15 12 4 16
-8 3 -25 -3 -39 -13z"/>
<path d="M3963 2905 c-36 -32 -17 -32 22 0 17 13 25 24 18 25 -7 0 -25 -11
-40 -25z"/>
<path d="M4067 2899 c-39 -32 -44 -49 -9 -30 22 12 82 -3 82 -20 0 -5 22 -9
48 -9 47 0 49 1 49 30 0 27 -3 29 -26 23 -43 -10 -46 -9 -45 15 1 25 0 26 -27
12 -13 -7 -19 -7 -19 0 0 17 -14 12 -53 -21z"/>
<path d="M5330 2701 c-12 -24 -13 -31 -1 -31 5 0 11 11 13 25 6 30 2 32 -12 6z"/>
<path d="M2010 2666 c0 -9 5 -16 10 -16 6 0 10 4 10 9 0 6 -4 13 -10 16 -5 3
-10 -1 -10 -9z"/>
<path d="M1970 2630 c-6 -11 -16 -17 -25 -14 -10 4 -15 0 -15 -10 0 -17 29
-19 41 -3 3 4 16 9 27 10 27 2 28 13 2 27 -15 8 -21 6 -30 -10z"/>
<path d="M1054 2524 c-47 -48 -104 -111 -125 -141 -44 -59 -81 -137 -71 -149
4 -4 2 -4 -4 -1 -13 8 -81 -58 -90 -86 -4 -12 2 -31 15 -48 28 -38 27 -45 -9
-53 -37 -7 -53 -41 -44 -96 5 -31 10 -38 25 -35 28 6 23 -2 -12 -20 -17 -9
-28 -22 -26 -29 3 -7 -4 -18 -14 -24 -10 -7 -19 -21 -19 -32 0 -22 7 -25 30
-10 19 12 41 -6 33 -27 -5 -13 -3 -14 17 -3 16 8 20 9 15 1 -4 -7 -1 -19 7
-28 11 -14 10 -15 -12 -8 -21 7 -23 6 -12 -7 10 -12 8 -24 -9 -62 -11 -26 -18
-54 -15 -61 3 -8 -1 -21 -8 -28 -13 -13 -14 -71 -2 -157 1 -14 4 -33 4 -42 1
-12 17 -21 47 -29 25 -6 45 -14 45 -18 -1 -3 -11 -19 -24 -35 -19 -23 -29 -27
-49 -22 -30 7 -41 -5 -42 -51 -1 -38 -12 -53 -25 -33 -6 9 -5 17 2 21 7 4 7 9
0 13 -14 8 -59 -48 -70 -87 -5 -19 -6 -70 -2 -116 7 -81 8 -83 54 -128 25 -25
46 -50 46 -54 0 -12 58 -40 78 -38 19 2 65 -8 100 -22 28 -11 65 6 104 48 54
57 80 126 79 203 -1 18 2 21 8 11 7 -11 9 -11 14 0 4 10 6 9 6 -3 1 -10 4 -18
9 -18 4 0 7 21 7 46 0 42 3 47 24 51 13 2 30 -2 38 -8 10 -9 16 -8 26 3 7 9
29 21 50 28 22 7 72 42 115 81 42 38 82 69 89 69 7 0 16 7 21 17 6 10 21 16
41 15 23 0 37 7 58 32 16 19 39 37 53 41 42 12 61 36 58 70 -3 28 0 31 37 38
55 12 67 19 86 53 22 37 23 48 3 40 -9 -3 10 20 41 51 31 32 72 86 91 120 49
87 114 240 114 268 0 81 -203 48 -376 -61 -49 -31 -109 -67 -134 -79 -25 -13
-57 -41 -71 -62 l-26 -38 23 -25 c28 -28 29 -35 11 -52 -8 -7 -12 -21 -9 -32
4 -13 1 -17 -9 -14 -8 3 -13 9 -12 14 0 5 -5 15 -13 22 -11 10 -17 9 -31 -8
-22 -25 -33 -26 -33 0 0 12 5 17 13 14 8 -3 19 2 26 9 9 12 8 16 -4 21 -9 3
-14 10 -10 15 13 23 -52 24 -79 2 -9 -7 -16 -10 -16 -6 0 4 -6 2 -14 -4 -12
-10 -16 -4 -22 36 -5 26 -7 51 -6 54 1 4 -7 5 -18 2 -14 -4 -23 2 -30 19 -10
20 -18 24 -61 24 -44 0 -54 -5 -50 -28 0 -5 -3 -9 -9 -9 -5 -1 -16 -2 -22 -3
-7 -1 -12 -8 -10 -14 1 -7 -2 -22 -8 -32 -8 -14 -8 -20 0 -20 7 0 9 -8 5 -20
-5 -16 -2 -20 14 -20 12 0 21 -5 21 -11 0 -6 7 -3 16 5 20 20 30 21 14 1 -7
-8 -10 -21 -7 -29 3 -8 -3 -24 -13 -36 -11 -13 -17 -26 -14 -31 2 -4 -1 -18
-7 -31 -7 -13 -15 -30 -19 -38 -4 -8 -15 -17 -25 -19 -15 -2 -17 2 -12 27 12
58 -50 82 -207 82 l-40 0 22 20 c12 11 28 20 37 20 8 0 15 5 15 11 0 5 -5 7
-11 4 -6 -4 -9 -1 -7 8 2 8 -7 23 -19 33 -12 11 -25 31 -29 47 -5 23 -4 26 12
20 12 -4 15 -3 10 5 -4 7 -1 12 7 12 8 0 23 12 33 27 10 16 19 23 22 15 7 -21
20 -13 15 9 -4 12 0 25 8 30 19 12 106 11 114 -1 4 -6 11 -8 16 -5 5 4 9 3 9
-2 0 -4 14 -8 30 -8 17 -1 30 2 30 6 0 4 17 14 38 22 59 24 84 67 88 151 1 39
7 91 13 116 14 59 14 226 0 289 -6 28 -20 65 -33 83 -37 56 -56 50 -152 -48z
m80 -749 c-4 -8 -7 -15 -9 -15 -2 0 -5 7 -9 15 -3 9 0 15 9 15 9 0 12 -6 9
-15z m295 -97 c-9 -16 -9 -23 0 -26 6 -2 11 -10 11 -18 0 -8 7 -14 15 -14 14
0 19 12 16 33 0 4 8 7 19 7 24 0 26 -9 4 -24 -14 -11 -14 -13 2 -27 16 -12 17
-12 11 4 -3 9 -2 17 3 17 6 0 10 -9 10 -19 0 -11 5 -23 10 -26 6 -4 8 -10 5
-15 -3 -5 7 -18 21 -29 15 -12 21 -21 14 -21 -7 0 -10 -7 -6 -15 4 -12 0 -14
-19 -9 -20 5 -25 3 -23 -12 3 -40 -2 -54 -22 -54 -11 0 -20 7 -20 15 0 9 -11
27 -25 40 -13 14 -21 25 -18 25 3 0 -1 7 -8 17 -11 13 -11 17 -1 20 6 3 10 9
6 14 -3 5 0 9 7 9 10 0 10 3 1 12 -7 7 -12 20 -12 30 0 10 -7 21 -15 24 -20 8
-19 23 2 46 22 24 26 23 12 -4z m91 12 c0 -5 -4 -10 -10 -10 -5 0 -10 5 -10
10 0 6 5 10 10 10 6 0 10 -4 10 -10z m-182 -96 c6 4 16 -3 22 -14 7 -13 7 -20
0 -20 -18 0 -11 -22 9 -27 15 -4 19 -14 18 -56 0 -29 -4 -55 -9 -58 -5 -3 -3
-12 5 -20 16 -17 31 -69 19 -69 -5 0 -14 11 -20 25 -6 14 -16 25 -21 25 -5 0
-12 12 -16 27 -3 15 -18 38 -32 52 l-25 25 -39 -22 c-33 -19 -40 -20 -45 -8
-6 15 44 86 60 86 5 0 15 8 23 18 8 9 11 11 7 3 -5 -9 -3 -12 4 -7 9 5 9 13 2
26 -11 20 9 36 21 17 4 -5 12 -7 17 -3z m241 -224 c1 -13 0 -13 -9 0 -5 8 -9
24 -9 35 l0 20 9 -20 c5 -11 9 -27 9 -35z m-77 33 c-6 -3 -10 -9 -6 -14 8 -14
-12 -11 -24 4 -8 9 -4 12 16 13 15 1 21 -1 14 -3z m-513 -80 c-3 -35 1 -43 26
-43 20 0 27 -6 32 -31 4 -22 8 -27 14 -17 5 7 9 11 10 8 13 -63 0 -124 -30
-135 -21 -8 -26 2 -13 29 10 23 7 36 -10 36 -4 0 -8 -7 -8 -16 0 -8 -4 -13 -8
-10 -4 2 -14 1 -22 -4 -13 -8 -12 -12 5 -25 18 -14 18 -14 1 -9 -10 4 -30 8
-45 9 -46 3 -51 5 -51 16 0 6 7 9 15 5 22 -8 18 18 -6 40 -16 15 -24 16 -39 6
-30 -18 -46 -15 -27 6 8 9 16 22 17 27 6 59 34 98 61 90 11 -4 26 2 38 14 26
26 43 27 40 4z m86 -53 c3 -5 1 -10 -4 -10 -6 0 -11 5 -11 10 0 6 2 10 4 10 3
0 8 -4 11 -10z m-138 -415 c-15 -14 -36 -25 -45 -25 -9 1 -3 7 14 14 18 8 35
19 38 25 4 6 10 11 14 11 4 0 -6 -12 -21 -25z"/>
<path d="M894 1216 c-6 -17 2 -36 17 -36 12 0 12 37 -1 45 -6 3 -13 -1 -16 -9z"/>
<path d="M5233 2593 c-16 -6 -17 -29 -2 -39 12 -7 29 12 29 34 0 13 -6 14 -27
5z"/>
<path d="M4434 2565 c-32 -13 -41 -30 -80 -150 -9 -27 -31 -81 -49 -120 -33
-67 -37 -71 -92 -93 -32 -13 -66 -28 -75 -33 -10 -5 -26 -9 -35 -9 -33 -1 -74
-31 -200 -147 -26 -24 -51 -43 -57 -43 -6 0 -46 7 -89 15 -199 38 -324 39
-328 2 -1 -7 -3 -22 -4 -35 -5 -52 18 -115 66 -178 27 -35 54 -74 60 -87 7
-12 27 -40 46 -61 18 -22 33 -47 33 -57 0 -17 63 -84 157 -167 26 -23 73 -66
103 -95 170 -160 189 -171 286 -162 45 5 65 12 87 33 15 14 25 32 23 38 -3 7
3 18 11 26 15 11 16 11 10 -5 -4 -10 -3 -16 2 -12 16 9 9 43 -8 37 -9 -3 -12
-1 -7 6 4 8 1 12 -10 12 -12 0 -6 10 21 33 37 32 37 34 37 102 1 133 -1 146
-32 209 -16 35 -30 68 -30 72 0 5 -15 31 -34 59 -60 88 -55 106 9 37 32 -34
69 -69 84 -78 25 -15 48 -44 80 -103 42 -80 141 -139 141 -85 0 8 8 14 18 14
10 0 42 11 71 25 28 14 71 27 94 29 23 2 36 2 30 -1 -7 -3 -13 -9 -13 -14 0
-15 33 3 66 36 30 30 44 70 49 140 2 39 -41 209 -66 256 -10 20 -24 60 -30 90
-6 30 -24 76 -41 103 -16 26 -38 70 -48 97 -79 200 -174 299 -256 264z m81
-415 c-3 -5 -11 -10 -16 -10 -6 0 -7 5 -4 10 3 6 11 10 16 10 6 0 7 -4 4 -10z
m-760 -275 c-16 -13 -33 -24 -37 -25 -15 0 6 32 26 40 38 15 42 10 11 -15z
m899 -121 c3 -9 6 -28 5 -42 -1 -26 -1 -26 -8 4 -4 17 -11 36 -15 42 -4 7 -3
12 2 12 6 0 13 -7 16 -16z m-39 -4 c3 -5 1 -10 -4 -10 -6 0 -11 5 -11 10 0 6
2 10 4 10 3 0 8 -4 11 -10z m-45 -14 c0 -14 -29 -31 -38 -22 -2 3 -2 12 1 21
8 19 37 20 37 1z m63 -46 c-12 -47 -25 -22 -14 28 1 2 5 1 10 -2 5 -3 7 -15 4
-26z m-75 -45 c22 -4 31 -10 24 -17 -12 -12 -82 16 -82 33 0 8 4 8 13 1 6 -5
27 -13 45 -17z m-353 -134 c6 -11 -33 -26 -43 -16 -4 3 0 10 8 15 19 12 27 12
35 1z m-6 -147 c9 -8 -45 -2 -64 6 -14 7 -8 8 20 3 22 -3 42 -7 44 -9z"/>
<path d="M5197 2552 c-3 -6 -3 -14 1 -49 1 -7 7 -13 13 -13 6 0 8 9 4 20 -4
11 -2 20 4 20 6 0 11 4 11 9 0 11 -28 23 -33 13z"/>
<path d="M5296 2525 c-3 -9 0 -15 9 -15 9 0 12 6 9 15 -4 8 -7 15 -9 15 -2 0
-5 -7 -9 -15z"/>
<path d="M5124 2499 c-3 -6 -1 -16 5 -22 8 -8 11 -5 11 11 0 24 -5 28 -16 11z"/>
<path d="M5170 2495 c0 -8 4 -15 10 -15 5 0 7 7 4 15 -4 8 -8 15 -10 15 -2 0
-4 -7 -4 -15z"/>
<path d="M5267 2483 c-4 -6 -8 -30 -9 -52 -1 -23 -5 -41 -10 -41 -11 0 -8 -85
4 -102 6 -10 8 -9 8 3 0 9 7 22 15 29 8 7 20 30 25 51 6 22 16 39 22 39 9 0 9
3 0 12 -7 7 -12 25 -12 40 0 39 -20 35 -21 -4 l-2 -33 -6 35 c-4 21 -9 30 -14
23z"/>
<path d="M5186 2456 c3 -9 11 -16 16 -16 13 0 5 23 -10 28 -7 2 -10 -2 -6 -12z"/>
<path d="M5027 2393 c-4 -3 -7 -11 -7 -17 0 -6 5 -5 12 2 6 6 9 14 7 17 -3 3
-9 2 -12 -2z"/>
<path d="M5126 2364 c-9 -22 -8 -24 9 -24 8 0 15 6 15 14 0 22 -17 28 -24 10z"/>
<path d="M5204 2343 c-4 -15 -22 -45 -40 -66 -37 -41 -44 -83 -20 -127 l14
-24 11 39 c6 22 11 49 11 60 1 19 1 19 11 2 10 -17 12 -16 30 7 16 21 19 34
13 76 -8 59 -21 73 -30 33z"/>
<path d="M5358 2360 c-6 -13 -14 -51 -17 -85 -1 -5 -5 -4 -10 4 -7 11 -19 -1
-49 -49 -23 -36 -38 -69 -34 -78 4 -11 7 -12 10 -4 7 23 22 12 16 -12 -7 -28
3 -69 16 -61 4 3 11 20 14 39 6 32 31 56 38 36 2 -5 9 -6 16 -1 9 6 12 36 10
117 -2 60 -6 102 -10 94z"/>
<path d="M5028 2285 c-3 -14 -1 -25 3 -25 5 0 9 11 9 25 0 14 -2 25 -4 25 -2
0 -6 -11 -8 -25z"/>
<path d="M5140 2299 c0 -5 5 -7 10 -4 6 3 10 8 10 11 0 2 -4 4 -10 4 -5 0 -10
-5 -10 -11z"/>
<path d="M5056 2265 c-3 -9 -6 -26 -5 -38 1 -14 4 -9 9 13 9 37 7 52 -4 25z"/>
<path d="M5100 2259 c-13 -24 -4 -41 10 -19 10 16 13 40 5 40 -2 0 -9 -9 -15
-21z"/>
<path d="M5176 2157 c-3 -11 -1 -28 4 -36 5 -9 10 -14 10 -11 0 3 4 19 9 36 6
23 5 31 -4 31 -8 0 -16 -9 -19 -20z"/>
<path d="M320 1881 c0 -6 4 -13 10 -16 6 -3 7 1 4 9 -7 18 -14 21 -14 7z"/>
<path d="M580 1852 c0 -7 -11 -12 -25 -12 -14 0 -29 -8 -35 -20 -6 -11 -15
-18 -21 -15 -5 4 -9 -1 -9 -10 0 -11 -5 -15 -14 -12 -8 3 -23 -4 -35 -17 -20
-21 -20 -22 -1 -23 11 -1 20 2 20 7 0 10 57 40 78 40 9 0 12 6 8 16 -5 13 -4
14 7 5 11 -8 16 -5 26 15 6 15 9 29 6 32 -3 3 -5 0 -5 -6z"/>
<path d="M220 1830 c0 -5 5 -10 10 -10 6 0 10 5 10 10 0 6 -4 10 -10 10 -5 0
-10 -4 -10 -10z"/>
<path d="M510 1770 c0 -5 5 -10 10 -10 6 0 10 5 10 10 0 6 -4 10 -10 10 -5 0
-10 -4 -10 -10z"/>
<path d="M903 1774 c-7 -3 -9 -12 -6 -21 4 -11 2 -14 -5 -9 -7 4 -12 3 -12 -3
0 -20 19 -21 25 0 l7 21 25 -24 c27 -25 27 -25 48 -4 21 21 18 34 -7 34 -13 0
-32 2 -43 5 -11 3 -25 4 -32 1z"/>
<path d="M1016 1757 c3 -10 9 -15 12 -12 3 3 0 11 -7 18 -10 9 -11 8 -5 -6z"/>
<path d="M5090 1734 c-10 -11 -10 -21 0 -44 12 -29 13 -30 32 -13 18 17 19 16
9 -11 -6 -15 -11 -35 -11 -44 1 -15 3 -15 15 2 15 19 15 19 15 -3 0 -12 4 -19
10 -16 6 3 10 1 10 -5 0 -6 4 -9 9 -5 14 8 24 -14 13 -28 -5 -7 -12 -21 -15
-32 -6 -17 -5 -18 5 -5 7 8 24 16 38 18 13 1 28 8 32 15 12 19 9 -2 -3 -25
-10 -18 -9 -20 5 -15 9 4 16 1 16 -6 0 -7 9 3 20 21 11 17 21 32 24 32 2 0 -2
-24 -9 -54 l-13 -54 27 14 c14 8 32 14 39 14 9 0 12 24 12 85 0 88 -1 90 -45
98 -11 2 -37 12 -59 21 -21 10 -44 15 -52 12 -7 -3 -16 -1 -20 5 -3 6 -11 8
-17 6 -7 -2 -26 4 -44 14 -27 15 -33 16 -43 3z m130 -159 c-6 -15 -13 -25 -16
-23 -2 3 1 17 7 32 16 34 23 27 9 -9z"/>
<path d="M391 1721 c-18 -12 -5 -31 20 -31 14 0 19 6 17 17 -4 20 -18 26 -37
14z"/>
<path d="M607 1669 c-27 -22 -39 -41 -43 -70 -4 -21 -13 -44 -20 -50 -8 -6
-14 -20 -14 -30 0 -10 -4 -20 -9 -23 -16 -10 -61 -105 -61 -128 0 -13 -9 -29
-20 -36 -13 -8 -19 -20 -16 -35 2 -12 -6 -31 -18 -44 -20 -21 -28 -73 -13 -84
4 -3 0 -29 -9 -58 -12 -35 -20 -48 -26 -39 -6 10 -8 9 -8 -4 0 -9 -18 -31 -40
-48 -44 -35 -49 -47 -22 -52 11 -2 32 15 59 47 24 27 43 54 43 58 0 4 9 20 21
36 11 15 22 47 25 71 2 24 8 48 13 54 4 6 11 23 15 39 8 36 19 34 35 -5 7 -18
15 -27 18 -20 2 6 11 12 18 12 31 0 44 46 40 138 -3 83 -1 94 29 165 29 65 51
137 43 137 -1 0 -19 -14 -40 -31z"/>
<path d="M375 1680 c3 -5 2 -10 -3 -10 -6 0 -12 -7 -16 -15 -7 -19 -4 -19 22
4 12 10 19 21 15 25 -10 10 -25 7 -18 -4z"/>
<path d="M331 1614 c0 -11 3 -14 6 -6 3 7 2 16 -1 19 -3 4 -6 -2 -5 -13z"/>
<path d="M300 1590 c0 -5 5 -10 11 -10 5 0 7 5 4 10 -3 6 -8 10 -11 10 -2 0
-4 -4 -4 -10z"/>
<path d="M2927 1514 c7 -3 9 -12 6 -20 -3 -8 1 -14 10 -14 8 0 17 -6 20 -12 2
-7 8 -10 12 -6 12 11 -23 58 -43 57 -9 0 -12 -3 -5 -5z"/>
<path d="M3277 1460 c4 -14 -1 -21 -21 -26 -14 -3 -23 -10 -20 -15 8 -13 -31
-5 -49 9 -12 10 -16 10 -20 0 -3 -9 -14 -4 -36 16 -52 50 -35 20 32 -53 35
-37 80 -102 102 -142 21 -41 40 -76 42 -79 7 -7 22 22 34 65 14 51 -3 165 -32
212 -23 37 -40 44 -32 13z"/>
<path d="M2907 1430 c3 -11 12 -20 21 -20 8 0 12 -3 9 -6 -3 -4 9 -25 28 -47
49 -57 48 -97 -2 -62 -18 13 -22 13 -33 0 -7 -8 -29 -15 -49 -15 -30 0 -43 -7
-69 -36 -42 -48 -43 -86 -1 -125 l31 -29 33 27 c18 16 45 36 59 46 14 10 26
27 26 38 0 11 4 18 9 14 5 -3 12 4 16 15 8 25 34 26 41 3 3 -10 12 -30 20 -45
18 -34 18 -53 -2 -83 -13 -20 -13 -27 -3 -47 7 -13 12 -29 11 -35 -2 -7 3 -10
11 -7 19 7 27 49 27 137 0 38 5 87 12 109 15 50 -5 94 -59 134 -21 16 -42 35
-46 41 -4 7 -28 13 -52 13 -38 0 -43 -2 -38 -20z m93 -15 c19 -23 8 -26 -20
-5 -19 15 -21 20 -9 20 9 0 22 -7 29 -15z"/>
<path d="M4545 1367 c-9 -21 -8 -22 23 -31 13 -5 22 -3 22 3 0 6 -6 11 -14 11
-8 0 -16 8 -19 18 -4 16 -4 16 -12 -1z"/>
<path d="M4440 1310 c0 -5 12 -10 26 -10 14 0 23 4 19 10 -3 6 -15 10 -26 10
-10 0 -19 -4 -19 -10z"/>
<path d="M331 1284 c0 -11 3 -14 6 -6 3 7 2 16 -1 19 -3 4 -6 -2 -5 -13z"/>
<path d="M2775 1279 c-4 -6 -5 -12 -2 -15 2 -3 7 2 10 11 7 17 1 20 -8 4z"/>
<path d="M4550 1258 c0 -4 -14 -23 -31 -42 -25 -29 -28 -38 -19 -56 14 -27 36
-25 76 5 53 41 62 52 57 78 -4 22 -10 25 -44 23 -21 0 -39 -4 -39 -8z"/>
<path d="M2103 1228 c-14 -17 -26 -58 -18 -58 3 0 15 5 26 10 22 12 26 35 4
26 -8 -3 -15 -1 -15 3 0 5 6 11 13 14 6 2 9 7 6 11 -3 4 -11 1 -16 -6z"/>
<path d="M2030 1207 c0 -10 -4 -16 -9 -13 -17 11 -21 -25 -6 -61 16 -38 11
-78 -7 -67 -8 5 -9 -6 -4 -35 4 -25 2 -50 -5 -62 -8 -17 -8 -20 2 -17 18 6 37
65 38 116 1 26 9 55 20 71 13 18 17 32 10 42 -7 12 -9 12 -10 -1 0 -8 -7 -1
-14 15 -10 20 -14 24 -15 12z"/>
<path d="M1949 1138 c-12 -23 -12 -23 10 -4 23 21 26 26 11 26 -5 0 -15 -10
-21 -22z"/>
<path d="M2326 1083 c-63 -32 -68 -48 -23 -90 44 -39 93 -45 122 -13 15 17 17
28 9 67 -12 61 -40 71 -108 36z m44 -13 c0 -5 -4 -10 -10 -10 -5 0 -10 5 -10
10 0 6 5 10 10 10 6 0 10 -4 10 -10z"/>
<path d="M1962 1053 c-21 -8 -33 -50 -22 -78 12 -31 45 -35 37 -4 -3 12 -1 32
5 45 12 27 2 45 -20 37z"/>
<path d="M2466 1037 c-16 -49 -16 -48 4 -37 22 12 24 18 10 40 -8 12 -10 12
-14 -3z"/>
<path d="M2884 975 c8 -8 18 -15 22 -15 13 0 33 -35 34 -60 1 -39 11 -70 24
-70 6 0 18 -9 26 -20 8 -11 22 -20 31 -20 16 0 15 -4 -2 -41 -11 -22 -18 -46
-15 -52 2 -7 5 -5 5 4 1 9 10 28 22 43 13 17 18 33 14 46 -4 12 -2 27 5 35 6
7 7 16 2 19 -5 3 -8 29 -6 58 1 32 -1 43 -5 29 -13 -48 -36 -49 -80 -4 -23 23
-41 46 -41 52 0 6 -12 11 -26 11 -23 0 -24 -2 -10 -15z"/>
<path d="M235 970 c-3 -5 -1 -10 4 -10 6 0 11 5 11 10 0 6 -2 10 -4 10 -3 0
-8 -4 -11 -10z"/>
<path d="M1879 973 c0 -5 -2 -43 -5 -85 -2 -58 0 -78 9 -78 20 0 37 22 37 47
0 38 -21 123 -31 123 -5 0 -9 -3 -10 -7z"/>
<path d="M242 928 c-7 -7 -12 -21 -11 -32 0 -19 2 -18 12 4 6 14 16 28 22 32
7 5 7 8 0 8 -6 0 -16 -5 -23 -12z"/>
<path d="M27 884 c7 -18 37 -18 51 -1 9 10 4 13 -23 14 -25 1 -32 -3 -28 -13z"/>
<path d="M2761 772 c-30 -10 -91 -83 -91 -108 0 -40 30 -93 62 -110 23 -12 39
-13 86 -4 31 5 58 14 60 20 2 5 10 6 19 3 11 -4 14 -2 9 5 -4 7 -2 12 3 12 6
0 11 -4 11 -9 0 -12 35 -7 36 5 0 5 4 21 8 36 5 17 3 34 -7 50 -8 12 -20 39
-26 59 -6 20 -17 36 -24 37 -58 6 -135 8 -146 4z"/>
<path d="M3035 685 c-5 -11 -15 -26 -22 -33 -16 -16 -17 -32 -3 -32 7 0 7 -6
0 -20 -8 -14 -8 -20 0 -20 17 0 47 33 55 60 7 24 7 24 -8 5 -9 -11 -19 -17
-23 -13 -4 4 -1 14 5 22 7 8 11 23 8 33 -4 17 -5 16 -12 -2z"/>
<path d="M2250 644 c0 -12 43 -79 68 -106 20 -22 27 -42 30 -88 4 -60 5 -60
36 -59 42 1 73 13 58 23 -7 4 -10 12 -6 17 8 14 -28 68 -85 124 -28 28 -51 55
-51 62 0 7 -9 17 -19 23 -23 12 -31 13 -31 4z m180 -204 c0 -5 -4 -10 -10 -10
-5 0 -10 5 -10 10 0 6 5 10 10 10 6 0 10 -4 10 -10z"/>
<path d="M3003 525 c-44 -49 -58 -58 -137 -85 -95 -32 -135 -37 -166 -18 -22
14 -39 3 -22 -14 9 -9 99 -13 340 -14 180 -1 341 0 357 3 26 4 31 9 30 31 0
36 -25 39 -55 7 -13 -14 -28 -25 -33 -25 -6 0 -7 3 -4 7 4 3 -1 12 -11 20 -9
8 -11 12 -4 8 6 -3 12 -2 12 4 0 10 -46 9 -57 -2 -11 -12 -23 -8 -23 8 0 8 -5
15 -11 15 -6 0 -29 14 -51 32 -42 33 -107 78 -112 78 -2 0 -26 -25 -53 -55z"/>
<path d="M2951 539 c-14 -6 -43 -9 -66 -8 -34 2 -51 -5 -104 -42 -59 -41 -61
-44 -36 -47 18 -2 32 3 41 16 18 25 95 52 150 52 42 0 64 14 48 30 -5 4 -20 4
-33 -1z"/>
<path d="M4585 519 c-4 -5 0 -18 8 -27 7 -9 17 -25 20 -34 4 -10 11 -18 17
-18 5 0 10 -7 10 -15 0 -13 21 -15 130 -15 129 0 131 0 120 21 -15 26 -24 29
-101 33 -82 3 -152 24 -144 43 3 11 -1 13 -15 8 -11 -4 -20 -2 -20 4 0 14 -17
14 -25 0z"/>
<path d="M3680 311 c0 -5 5 -13 10 -16 6 -3 10 -2 10 4 0 5 -4 13 -10 16 -5 3
-10 2 -10 -4z"/>
<path d="M2287 244 c5 -70 9 -84 22 -84 23 0 22 49 -2 95 l-24 48 4 -59z"/>
<path d="M3722 284 c10 -10 20 -16 22 -13 3 3 -5 11 -17 18 -21 13 -21 12 -5
-5z"/>
<path d="M3857 199 c7 -7 15 -10 18 -7 3 3 -2 9 -12 12 -14 6 -15 5 -6 -5z"/>
</g>
</svg>
