<?xml version="1.0" encoding="utf-8"?>
<!-- Generator: Adobe Illustrator 16.0.0, SVG Export Plug-In . SVG Version: 6.00 Build 0)  -->
<!DOCTYPE svg PUBLIC "-//W3C//DTD SVG 1.1//EN" "http://www.w3.org/Graphics/SVG/1.1/DTD/svg11.dtd">
<svg version="1.1" id="Camada_1" xmlns="http://www.w3.org/2000/svg" xmlns:xlink="http://www.w3.org/1999/xlink" x="0px" y="0px"
	 width="612px" height="323.414px" viewBox="0 234.285 612 323.414" enable-background="new 0 234.285 612 323.414"
	 xml:space="preserve">
<path fill="#FFFFFF" d="M0,419.966h46.585l25.875-128.74H25.875L0,419.966z M28.446,275.852h46.781l7.687-38.507H36.157
	L28.446,275.852z M64.701,456.172h46.585l28.47-139.095h34.933l5.141-25.875h-34.272l1.297-5.826
	c1.934-10.967,5.826-23.281,23.28-23.281c10.355,0,20.049,0.637,29.768,5.166l5.189-27.173c-10.82-3.794-22.203-5.753-33.66-5.802
	c-37.528,0-63.379,22.007-73.098,56.94H82.155l-5.165,25.875h16.181L64.701,456.172z"/>
<path fill="#FFFFFF" d="M212.193,422.536c54.982,0,93.17-49.816,93.17-90.576c0-30.404-27.809-43.354-54.982-43.354
	c-60.172,0-93.171,53.733-93.171,90.576C157.21,409.611,185.681,422.536,212.193,422.536 M359.709,422.536
	c54.982,0,93.171-49.816,93.171-90.576c0-30.404-28.47-43.354-55.643-43.354c-60.172,0-93.146,53.685-93.146,90.576
	C304.066,409.611,333.197,422.536,359.709,422.536 M528.548,419.966h45.925L612,236.904h-46.586l-10.991,54.346l-19.412-1.934
	c-45.288,0-86.684,58.213-86.684,99.633c0,16.818,10.967,33.635,29.768,33.635c26.512,0,45.288-12.95,53.023-25.875h2.595
	L528.548,419.966L528.548,419.966z M384.924,516.344c-36.157,29.964-82.596,44.578-129.377,40.759
	c-61.469-3.892-105.46-51.114-113.22-100.931h2.595c14.223,31.09,48.52,60.172,90.576,64.7
	c42.668,5.166,93.807-14.223,121.617-40.759l-31.041-23.941h93.808l-20.734,99.634L385.56,516.98L384.924,516.344L384.924,516.344z"
	/>
</svg>
