<?xml version="1.0" encoding="utf-8"?>
<!-- Generator: Adobe Illustrator 26.2.1, SVG Export Plug-In . SVG Version: 6.00 Build 0)  -->
<svg version="1.1" id="Camada_1" xmlns="http://www.w3.org/2000/svg" xmlns:xlink="http://www.w3.org/1999/xlink" x="0px" y="0px"
	 viewBox="0 0 1194.5 1191" style="enable-background:new 0 0 1194.5 1191;" xml:space="preserve">
<style type="text/css">
	.st0{fill:#FFFFFF;}
	.st1{clip-path:url(#SVGID_00000021101116870233479250000002683457479769569176_);}
</style>
<path d="M597.3,1185L597.3,1185C271.7,1185,7.7,921.1,7.7,595.5v0C7.7,269.9,271.7,6,597.2,6h0c325.6,0,589.5,263.9,589.5,589.5v0
	C1186.8,921.1,922.8,1185,597.3,1185z"/>
<g>
	<g>
		<path class="st0" d="M167.2,780.2c-2.3,2.4-5.6,4-9.9,4.5c-4.5,0.5-9.3,0.3-13.8-0.8c-5.1-1-9.9-2.9-14.3-5.5
			c-4.4-2.4-8.3-5.6-11.5-9.3c-5.2-6.6-9.2-14.2-11.8-22.1c-2.7-8.2-4.5-18.3-5.2-30.1c-0.5-6.4-0.8-11.7-0.9-15.9
			c0-5.2,0.3-10.3,1-15.4c1.3-10.9,3.5-21.9,6.2-32.5c3.1-11.8,6.8-23.3,11.2-34.6c4.5-11.5,9.4-22.7,15-33.8
			c5.2-10.5,10.9-20.6,17.3-30.4c11.5-17.2,24.3-33.7,38.1-49.2c13.8-15.6,28.5-30.3,44.2-44.1c15.1-13.3,31-25.4,47.8-36.5
			c15.7-10.5,32.3-19.6,49.4-27.4c4.7-1.7,10.5-3.8,17.2-5.9c6.8-2.3,13.4-4,19.9-5.7l10.5-2.4c2.8-0.7,5.7-1,8.7-1
			c14.3-0.8,26,0.6,34.9,3.9c8.9,3.3,16.4,9.4,22.5,18.5c4.4,6.5,7.4,12.3,9.2,17.7c1.8,5.3,3,12.2,3.7,20.4
			c2,25.6-4.3,48.1-18.9,67.4c-1.3,1.7-3.9,4.5-7.8,8.4c-3.8,4-7.6,8.2-11.5,12.7l-15,14.7l9.4-0.8c10.3-0.7,20.6,0.9,30.2,4.7
			c9.2,3.8,18,9.9,26.5,18.3c3.6,3.4,6.8,7.1,9.9,10.9c2.5,3.7,4.9,7.5,7,11.6c2.4,5,4.3,9.4,5.9,13.6c1.7,4,3,8,4,12.2
			c1,4.4,1.9,8.9,2.4,13.4c0.6,4.7,1.1,10.4,1.7,16.8c1,13.1,1,24.4,0.1,33.7c-1.2,10.8-3.4,21.7-6.2,32.3
			c-4.8,19.3-12.7,39.2-23.5,59.2c-11.1,20.5-24.3,39.8-39.4,57.5c-6.4,7.6-13.3,15-20.4,21.9c-6.9,6.6-14,12.9-21.6,18.6
			c-6.9,5.3-14,10.2-21.6,14.5c-6.3,3.8-13,6.9-19.9,9.3c-2.4,0.6-5,1.3-7.3,2.2c-1.4,0.4-2.8,1-4,1.9c-1,0.3-2.4,0.5-4.7,0.8
			c-2.2,0.3-4.5,0.7-6.9,0.8c-13,1.4-24.8-0.3-35.2-5.2c-10.1-4.5-18.2-12.4-23-22.3c-5.9-12.9-7.5-28.2-4.8-45.8
			c2.6-17.6,9.5-36.3,20.6-56.1c6.6-11.6,14.1-22.8,22.5-33.2c8.7-10.8,18.1-20.9,28.2-30.3c5.4-5.5,8.8-8.9,10.1-10.5
			c1.3-1.5,1.7-2.9,1-4.4c-3.7-12.5-6.7-27.3-9.1-44.3c-2.4-17.1-4.2-35.1-5.3-54.2c-1.1-19.2-1.4-39-1-59.4
			c0.5-20.5,1.7-40.4,3.6-59.7c1.7-18.4,3.9-30,6.6-35c2.6-5,7.3-6.1,13.8-3.5c1.5,0.7,2.8,1.2,4,1.7c1.1,0.6,2.1,2,2.9,4.2
			c1,3.3,1.6,6.7,1.7,10.1c0.3,4.5,0.6,11.1,0.8,19.9c0.2,8.8,0.3,20,0.4,33.7c0.1,13.6,0.2,30.6,0.3,50.8v9.3l9.9-10.1
			c6.3-6.4,12-12.3,17-18.1c4.8-5.7,9.4-11.5,13.6-17.7c4.1-6,8-12.2,11.4-18.7c3.4-6.5,6.7-13.7,10.1-21.7
			c5.8-13.5,9.5-24.1,11.4-32.2c1.8-7.9,2.4-16,1.7-24.1c-1.5-25.7-18.8-36.6-51.9-32.9c-10.8,1.2-22.7,4.4-35.2,9.4
			c-13.6,5.6-26.8,12.4-39,20.5c-14.2,9.3-27.7,19.6-40.4,30.8c-40.2,35.2-74.1,77-100.1,123.8c-16.4,29.9-28.1,60.3-35.1,91.3
			c-5.7,23.8-8.1,44.7-7.2,62.8c0.9,18,5,31.3,12.2,39.7c2.8,3.5,6.5,6.1,10.7,7.8c4.1,1.7,7.9,2.1,11.3,1.2
			C169.6,775.2,170.9,776.4,167.2,780.2z M408.8,559.7c-1.7-0.2-3.6-0.1-5.3,0.3c-1.6,0.4-3.2,0.6-4.9,0.7c-4.3,1-8.6,2.4-12.7,4.1
			c-4.4,2.1-8.6,4.5-12.3,7.5l-9.7,7.2l0.3,8.7c-0.1,4.9-0.1,10.5,0.3,16.9c0.3,6.3,0.6,12.6,0.9,18.9c0.3,6.3,0.8,12.3,1.4,18.3
			c0.6,5.9,1.1,10.7,1.7,14.5l1.7,16.3l5.6-4.2c14.2-11.8,25.1-20.1,32.9-25c7.6-4.9,12.9-7,15.6-6.3c2,0.2,2.9,0.8,2.9,2
			c0,1.1-1,1.9-2.9,2.4c-2.1,0.7-4,1.7-5.8,2.8c-2.6,1.6-5.7,3.7-9.2,6c-3.5,2.4-7.3,5.3-11.5,8.6s-8.1,6.6-12.1,10.1l-13,10.8
			l0.6,7.3c0.3,2.9,0.8,7.2,1.9,12.8c1,5.7,2.4,11.3,3.8,17.1c1.4,5.8,2.7,11.2,4,16.4c0.8,3.8,1.9,7.3,3.2,10.9
			c1,2.5,1.9,5.2,2.6,8c0.3,1,0,2.1-0.7,2.8c-1.2,1.8-3.4,2.9-5.7,2.7c-2.2-0.2-4-1.3-5.7-3.6c-1.3-1.7-2.8-3.6-4.5-5.8
			c-1.7-2.3-3.3-4.5-4.9-6.9c-1.7-2.4-3.1-4.7-4.5-7c-1.1-1.8-2.2-3.8-3-5.7c-1.9-3.3-3.5-6.8-4.8-10.4c-1.8-4.6-3.7-9.4-5.6-14.6
			c-0.3-0.6-1.1-0.3-2.6,0.8c-1.5,1.1-4,3.5-7.7,6.9c-8.9,8.7-17.1,18.2-24.7,28.2c-7.2,9.7-13.6,19.9-19.4,30.4
			c-10.3,18.6-16.6,35.8-19.1,51.3c-2.4,15.6-0.8,29.2,5.1,40.9c3.1,5.7,7.3,10.7,12.5,14.7c5.2,4,10.6,6.3,16.3,7
			c3.7,0.1,8.7-0.7,14.8-2.4c5.9-1.7,11.8-3.9,17.4-6.5c15.7-8.2,31.4-21,47-38.3c15.6-17.3,30-37.9,43.3-61.4
			c8.4-14.9,15.5-30.4,21.3-46.4c5.2-15,9.4-31.8,12.9-50.9c3.4-19.3,4.5-37.3,3.3-53.6s-4.5-30.2-10.1-41.6
			c-4.6-9.4-10.9-15.8-18.9-19.6C432.4,560,421.8,558.7,408.8,559.7z"/>
		<path class="st0" d="M500.5,578.4c0.4-13.6,2-22.9,4.6-28.2c2.7-5.3,6.8-8.5,12.2-9.5c2.2-0.5,4.4-0.6,6.6-0.2
			c1.7,0.4,2.7,2,3.3,4.9c0.6,2.2,0.9,4.3,1,6.6c0.1,2.8,0.2,6.3,0.1,10.5c0.3,13.6,0.9,26.5,1.9,38.5c0.8,10.5,2.3,21.1,4.2,31.5
			c1.7,8.5,3.6,15.4,5.9,20.6c2.3,5.3,3.8,7.9,4.6,7.7c1.7-0.6,3.3-4.8,5.1-12.9c1.7-8,3.3-19.7,4.7-34.9c1.6-16.7,2.2-30.7,1.8-42
			c-0.3-11.3-0.4-20.5-0.3-27.5c0.2-7,1-12.2,2.4-15.7c1.5-3.5,4.9-5.7,10.2-6.8c2.4-0.6,5-0.4,7.3,0.4c2.1,0.8,3.6,2.5,3.9,4.7
			c0.8,2.7,1.1,5.6,1.3,8.4c0.3,3.8,0.6,8,0.8,12.9c0.6,8.7,1.1,16.7,1.7,24c0.6,7.3,1.2,14.3,1.9,20.9c0.8,6.6,1.7,13.1,2.7,19.7
			c1,6.6,2.3,13.3,3.7,20.3c1,5.7,2.3,11,3.5,16.2c1.2,5.2,2.4,9.5,3.8,13.2c1,3,2.2,5.9,3.5,8.7c1,2.1,2.1,3.1,2.9,2.9
			c1.5-0.3,2.6-3.5,3.6-9.7c0.9-6.2,1.6-13.8,2.1-23c0.5-9.2,0.9-19,1.3-29.6c0.3-10.5,0.8-20.4,1.1-29.6c0.4-9.1,0.8-16.7,1.1-22.7
			c0.3-6,0.8-9.1,1.5-9.3c0.4-0.1,0.8,0.6,1,2c1.1,6.1,1.3,26.9,0.4,62.6c-0.4,15.7-1,28.3-1.8,37.8s-1.8,16.8-3.1,22
			s-2.9,8.9-4.8,10.8c-1.8,1.9-4.1,3.1-6.7,3.8c-3.6,0.8-7.2-0.4-10.5-3.3c-3.4-2.9-6.8-7.2-10.1-12.7c-3.8-6.6-6.9-13.5-9.3-20.5
			c-3.1-8.9-5.8-18-8-27.2l-3.5-16.2l-1.6,17.1c-0.4,7.5-1.1,15-2.4,22.5c-1,5.6-2.2,9.8-3.4,12.8c-1.3,3-2.8,5-4.5,6.2
			c-1.7,1.1-3.8,2-5.8,2.4c-5.1,1-9.8-0.3-14.2-4c-4.7-4-8.7-8.9-11.7-14.3c-3.6-6.1-6.5-12.6-8.7-19.3c-2.2-6.2-3.9-12.5-5.2-19
			C500.8,601.4,499.9,589.9,500.5,578.4z"/>
		<path class="st0" d="M640.1,549.9c-1.3,4.6-2.5,8-3.8,10.1s-3.3,3.5-5.7,3.9c-5.7,1.2-11.5-0.5-15.6-4.6
			c-4.5-4.3-7.4-9.9-8.6-15.9c-1.7-8.5-1.9-15.3-0.8-20.3c1-5.2,3.4-8,7-8.7c3.2-0.6,6.6-0.3,9.7,0.7c3.5,1,5.5,2.5,5.9,4.7
			c0.3,2,0.5,4,0.6,6.1c0.1,2.6,0.1,5.5,0,8.5c-0.1,3-0.1,5.7,0,8.5c0,2.1,0.2,4,0.6,6.1c0.5,2.4,1,3.5,2,3.3c1,0,2.4-2.1,3.8-6.2
			c1.4-4.1,2.9-10,4.5-17.3c3.3-15.7,7.3-24.1,12-25.1c3.8-0.7,7.7-0.3,11.3,1.2c3.9,1.6,6.2,3.8,6.8,6.9c0.7,2.1,1,5.4,1.1,10.1
			s0.5,11.3,1,19.9c0.6,8.5,1,16.4,1.5,23.7c0.5,7.3,1,14.5,1.6,21.5s1.4,14.1,2.4,21.3c1,7.3,2.4,15.1,4,23.6
			c1.5,7.5,3,13.9,4.5,19.2c1.5,5.3,3,9,4.5,11.2l2,3.3l1.7-2.9c1.9-3.8,3.5-11.1,4.7-22c1.2-10.8,2.4-26.8,3.3-48.1
			c0.7-18.9,1.2-32.7,1.7-41.3s1.1-12.9,2.3-13.1c0.8-0.2,1.3,0.3,1.6,1.1c0.3,1.4,0.3,2.8,0.2,4.1c-0.1,1.7-0.3,5.1-0.3,10.1
			c-0.1,5.2-0.3,12.7-0.5,22.8c-0.3,10.1-0.3,24.1-0.3,42.2c0.2,10.7-0.1,19.6-0.6,26.5c-0.3,5.7-1.1,11.4-2.6,16.9
			c-1.2,4.3-3,7.3-5.2,9.2c-2.4,2-5.2,3.3-8.3,3.8c-7.6,1.5-14.8-3.6-21.5-15.3c-6.7-11.6-12.2-28.3-16.4-50.3
			c-1.5-7.8-2.8-15.5-3.9-23.3c-1-7.7-1.9-14.8-2.4-21.2c-0.6-6.4-1-11.7-1.5-16c-0.4-4.3-0.8-7-0.9-7.9c-0.3-0.2-0.7,0.6-1.2,2.3
			C641.3,545.1,640.6,547.3,640.1,549.9z"/>
		<path class="st0" d="M764.3,620.1c-1.1-6.9-2.2-13.4-3.1-19.6c-1-6.1-1.6-10.5-1.8-12.9l-1.2-7.8l-1.4,14.6
			c-1.5,15-3.8,26.8-7.1,35.2c-3.2,8.6-6.4,13.2-9.3,13.8c-4.6,1-9.4,0.6-13.8-1.3c-4.2-2-8-5.1-10.7-8.9c-3.1-4.3-5.7-9-7.5-14.1
			c-2.1-5.6-3.8-11.4-4.8-17.1c-1.9-10-2.9-20-3-30.1c-0.1-9.6,1-19.2,3.1-28.5c2.2-8.8,5.5-16.3,10-22.4
			c4.5-6.1,10.3-9.9,17.2-11.2c2.1-0.4,4.1-0.6,6.2-0.5c2.7,0.4,5.4,1,8,2.1l8.5,2.7l0.7-6.7c0.7-6.9,1.7-11.5,3.1-13.8
			c1.4-2.4,4.2-4,8.5-4.9c2.5-0.5,5.2,0.1,7.3,1.7c2.4,1.7,4,4.4,4.4,7.3c0.3,1.7,0.6,3.5,0.7,5.2c0.2,2.1,0.3,4.5,0.5,7.4
			c0,2.4,0.4,6.7,1.1,12.8c0.8,6,1.7,12.8,2.5,20c1,7.3,2.1,14.3,3.2,21.3c1.1,7,2.2,12.6,3,16.9c0.9,4.7,1.6,7.1,2,7
			c0.3,0,0.9-1.7,2.2-5c1.2-3.3,2.6-7.3,4.3-11.9c1.7-4.5,3.2-9.2,4.7-13.8c1.5-4.5,2.6-8.1,3.5-10.8c0.8-2.8,1.5-5.9,2.3-9.4
			c0.8-3.5,1.6-6.6,2.4-9.6c0.8-3,1.7-5.5,2.4-7.3c0.7-1.9,1.4-3,2-3.1c0.4-0.1,0.8,0.5,1,1.7c0.2,0.8-0.4,3.7-1.6,8.7
			c-1.1,5.2-2.6,11-4.4,17.8s-3.7,13.6-5.7,20.5c-2.1,7-3.8,12.8-5,17.5l-6.1,19.2l1.5,7.8c0.7,3.3,1.3,7.3,2.1,12.4
			c0.8,5.1,1.4,10.2,2.1,15.7l1.9,16.5c0.7,5.5,1,10.4,1.2,14.8c3.2,36.5,1.3,64.8-5.7,84.9c-7.1,20.1-18.4,31.6-33.8,34.7
			c-7,1.4-12.8,0.3-17.2-3.2c-4.5-3.5-7.4-8.7-8.8-15.5c-1-4.9-1-11.4,0-19.4c1.1-9.1,2.8-18.3,5.1-27.2c2.4-10.1,5.6-21.1,9.5-32.9
			c4-11.8,8.6-24,13.8-36.7l5.2-10.5L764.3,620.1z M744.9,618.8c1.3-5.1,2.4-10.3,3.2-15.5c1-6.7,2.1-13.9,3-21.9
			c0.9-7.9,1.5-15.8,1.9-23.8c0.4-8,0.5-15.2,0.4-21.5l0.1-12.9l-3.4-2.3c-2.7-1.7-5-2.4-6.6-2c-3,0.6-5.6,3.8-7.7,9.5
			c-2.2,5.8-3.8,13.2-4.9,22.2c-1.1,10.2-1.5,20.6-1,30.8c0.4,12,1.8,23.9,4.2,35.7c0.7,3.6,1.5,6.9,2.4,10c0.8,3.1,1.6,4.6,2.3,4.5
			C740,631.5,742.2,627.2,744.9,618.8L744.9,618.8z M774,708c-0.1-3.9-0.4-8.3-0.8-13.2c-0.4-4.9-0.8-9.6-1-14.1
			c-0.3-4.5-0.7-8.5-1-11.9c-0.3-3.5-0.7-5.8-0.9-7l-0.2-1c-0.3,0.1-0.9,1.7-2.2,5c-1.2,3.3-2.6,7.3-4.3,12.3s-3.4,10.1-5.4,15.5
			c-1.9,5.4-3.5,10.1-4.6,14.3c-3.6,11.8-6.3,23.8-8.1,36.1c-1.6,11-1.8,19.4-0.7,25.1c0.9,4.5,2.7,7.9,5.5,10.3
			c2.8,2.4,5.7,3.3,8.7,2.7c5.9-1.1,10.2-8.1,12.8-20.8C774.1,748.6,774.9,730.8,774,708L774,708z"/>
		<path class="st0" d="M809.2,517.8c0.4-13.6,2-22.9,4.6-28.2c2.7-5.3,6.8-8.5,12.2-9.5c2.2-0.5,4.4-0.6,6.6-0.2
			c1.7,0.4,2.7,2.1,3.3,4.9c0.6,2.2,0.9,4.3,1,6.6c0.1,2.8,0.1,6.3,0.1,10.5c0.3,13.6,0.9,26.5,1.9,38.5c0.8,10.6,2.3,21.1,4.1,31.5
			c1.7,8.5,3.6,15.4,5.9,20.6c2.3,5.3,3.8,7.9,4.6,7.7c1.7-0.6,3.3-4.8,5.1-12.9c1.7-8,3.3-19.7,4.7-34.9c1.6-16.7,2.2-30.7,1.8-42
			c-0.3-11.3-0.4-20.4-0.3-27.5c0.2-7,1-12.2,2.4-15.7c1.5-3.5,4.9-5.7,10.2-6.8c2.4-0.6,5-0.4,7.3,0.4c2.1,0.8,3.6,2.5,3.9,4.7
			c0.8,2.7,1.1,5.6,1.3,8.4c0.3,3.8,0.6,8,0.8,12.9c0.6,8.7,1.1,16.7,1.7,24c0.6,7.3,1.2,14.3,2,20.9c0.8,6.6,1.7,13.1,2.6,19.7
			c1,6.6,2.3,13.4,3.7,20.4c1,5.7,2.3,11,3.5,16.2s2.4,9.5,3.8,13.2c1,3,2.2,5.9,3.5,8.7c1,2.1,2.1,3.1,2.9,2.9
			c1.5-0.3,2.6-3.5,3.6-9.7c0.9-6.1,1.6-13.8,2.1-23c0.5-9.2,0.9-19,1.3-29.6c0.3-10.6,0.8-20.4,1.1-29.6c0.4-9.1,0.8-16.7,1.1-22.7
			c0.3-6,0.8-9.1,1.5-9.3c0.4-0.1,0.8,0.6,1,2c1.1,6.1,1.3,26.9,0.4,62.6c-0.4,15.7-1,28.3-1.8,37.8c-0.8,9.4-1.8,16.8-3.1,22
			c-1.2,5.2-2.9,8.9-4.8,10.8c-1.8,1.9-4.1,3.1-6.7,3.8c-3.6,0.8-7.2-0.4-10.5-3.3c-3.4-2.9-6.8-7.2-10.1-12.7
			c-3.8-6.6-6.9-13.5-9.3-20.5c-3.1-8.9-5.8-18-8-27.2l-3.5-16.2l-1.6,17.1c-0.3,7.5-1.1,15-2.4,22.5c-1,5.6-2.2,9.9-3.4,12.8
			c-1.3,2.9-2.8,5-4.5,6.2c-1.7,1.1-3.8,2-5.8,2.4c-5.1,1-9.8-0.3-14.2-4c-4.7-4-8.7-8.9-11.8-14.3c-3.6-6.1-6.5-12.6-8.7-19.3
			c-2.2-6.2-3.9-12.5-5.2-19C809.5,540.9,808.7,529.3,809.2,517.8z"/>
		<path class="st0" d="M1004.3,491.2c0.7-0.1,1,0.7,1.4,2.4c0.7,3.6,0.8,10.2,0.3,20.1c-0.5,9.9-1.3,21.9-2.4,36.1
			c-1.9,20.4-5.5,35.5-10.6,45.3c-5.2,9.8-12.2,15.6-21,17.3c-5.1,1-10.4,0.4-15.1-1.7c-5.3-2.4-10.1-5.9-13.9-10.3
			c-4.6-5.3-8.5-11.3-11.3-17.8c-3.5-7.8-6-15.9-7.6-24.4c-2.2-10.7-3.1-21.6-2.9-32.4c0.1-9.6,1.4-19.2,4-28.4
			c2.4-8.4,5.7-15.4,9.9-21c4.1-5.6,9.1-8.9,14.9-10.1c6.1-1.2,11-0.1,14.7,3.3c3.7,3.4,6.4,9.8,8.2,18.9c1.1,6,1.7,12.2,1.5,18.5
			c-0.2,5.7-1,11.2-2.4,16.6c-1.2,4.5-3.2,8.8-6,12.5c-2.4,3.2-5.7,5.6-9.4,6.6l-6.2,1.6l3.6,14.7c1.5,5.6,3.2,11,5.2,16.4
			c2,5.4,3.9,10.2,5.8,14.4c1.5,3.6,3.6,7,6,10c2.2,2.4,4,3.4,6,3.1c3.1-0.7,6.2-3.8,9.1-9.7c2.9-5.8,5.7-13.4,8.1-22.5
			c2.6-10.1,4.7-20.5,6.1-30.9c1.7-11.7,2.5-23.4,2.8-35.2C1003.3,495.9,1003.7,491.4,1004.3,491.2z M948.9,508.8
			c-0.2,4.9-0.1,10.1,0.1,15.4c0.1,4,0.4,8,1,11.9c0.3,1.7,1.2,2.4,2.6,2.1c2.7-0.5,5.1-2.4,7-5.9c2.2-4,3.7-8.3,4.5-12.8
			c1-5.4,1.7-10.8,1.7-16.3c0.1-5.7-0.4-11.2-1.5-16.8c-0.6-3.1-1.6-6.2-2.8-9.2c-1.1-2.8-2.5-4-4-3.8c-0.8,0.2-1.7,1.3-2.7,3.5
			c-1.1,2.5-2.1,5.3-2.8,8C950,492.7,948.9,500.7,948.9,508.8L948.9,508.8z"/>
		<path class="st0" d="M1027,474c-1.2,4.6-2.5,8-3.8,10.1c-1.3,2.1-3.3,3.5-5.7,3.9c-5.7,1.2-11.5-0.5-15.6-4.6
			c-4.5-4.2-7.4-9.9-8.6-15.9c-1.7-8.5-1.9-15.3-0.8-20.3c1-5.1,3.4-8,7.1-8.7c3.2-0.6,6.6-0.3,9.7,0.7c3.5,1,5.5,2.5,5.9,4.7
			c0.3,2,0.5,4,0.6,6.1c0.1,2.6,0.1,5.5,0,8.5c-0.1,3-0.1,5.7,0,8.5c0,2.1,0.2,4,0.6,6.1c0.5,2.4,1,3.5,2,3.3c1,0,2.4-2.1,3.8-6.2
			c1.4-4.1,2.9-10,4.5-17.3c3.3-15.7,7.3-24.1,11.9-25.1c3.8-0.7,7.7-0.3,11.3,1.2c3.9,1.6,6.2,3.8,6.8,6.9c0.7,2.1,1,5.4,1.1,10.1
			c0.2,4.6,0.5,11.3,1,19.9c0.6,8.5,1,16.4,1.5,23.7c0.5,7.3,1,14.5,1.6,21.5c0.6,7,1.4,14.1,2.4,21.3c1,7.3,2.4,15.1,4,23.6
			c1.5,7.5,3,13.9,4.5,19.2c1.5,5.3,3,9,4.5,11.2l2,3.3l1.7-2.9c1.9-3.8,3.5-11.1,4.7-22c1.2-10.8,2.4-26.8,3.3-48.1
			c0.7-18.9,1.2-32.7,1.7-41.3c0.4-8.6,1.1-12.9,2.3-13.1c0.8-0.2,1.3,0.3,1.6,1.1c0.3,1.4,0.3,2.8,0.2,4.1
			c-0.1,1.7-0.3,5.1-0.3,10.1c-0.1,5.2-0.3,12.7-0.5,22.8c-0.3,10.1-0.3,24.1-0.3,42.2c0.2,10.7-0.1,19.6-0.6,26.6
			c-0.3,5.7-1.1,11.3-2.6,16.9c-1.2,4.3-3,7.3-5.2,9.2c-2.4,2-5.2,3.3-8.3,3.8c-7.6,1.5-14.8-3.6-21.5-15.3
			c-6.7-11.6-12.2-28.3-16.4-50.3c-1.5-7.8-2.8-15.5-3.9-23.3c-1-7.7-1.9-14.8-2.4-21.2c-0.6-6.4-1-11.7-1.5-16s-0.7-7-0.9-7.9
			c-0.3-0.2-0.7,0.6-1.2,2.3C1028.3,469.3,1027.6,471.4,1027,474z"/>
		<path class="st0" d="M247,703.2c-0.7,2.4-1.6,4.8-2.7,7.1c-1.2,2.3-2.5,4.5-4,6.6c-2.3,3.1-4.6,5.9-7.3,8.7
			c-2.8,2.8-5.8,5.4-8.9,7.7c-3.1,2.4-6.5,4.5-9.9,6.3c-3.4,1.8-6.9,3.3-10.5,4.6c-7.9,2.7-14.9,3.9-20.8,3.5
			c-5.6-0.3-10.9-2.5-15-6.4c-2.5-2.4-4.5-5.4-5.7-8.7c-1.2-3.1-2-6.4-2.3-9.7c-0.3-3.3-0.3-6.7,0.2-10.1c0.4-3.5,1.1-7,2.3-10.4
			c1.6-5.5,4.2-10.6,7.7-15c0.9-1.4,2-2.7,3.1-4c0.9-1,1.9-2.1,3-3s2.2-1.7,3.3-2.4c1.1-0.7,2.5-1.6,4.2-2.4
			c6.5-3.4,10.1-4.2,11-2.5c0.3,0.5,0.3,0.8,0.1,1c-0.4,0.3-1,0.4-1.5,0.3c-1.7,0-4.1,1.7-7.3,5.1c-2.7,2.7-5,5.8-6.8,9.2
			c-2,3.8-3.6,7.6-4.8,11.7c-1.2,4.1-2,8.5-2.4,12.9c-0.3,4.1-0.2,8.3,0.6,12.4c0.6,2.9,1.6,5.7,2.8,8.4c1.1,2.5,2.9,4.8,5,6.6
			c3.4,2.8,7.8,4.3,12.2,4c1.4,0,2.8-0.1,4.2-0.3c1.2-0.2,2.5-0.4,3.8-0.8c1.3-0.4,2.7-0.9,4-1.5c1.4-0.7,3.1-1.4,5.1-2.4
			c1.8-0.9,3.3-1.7,4.5-2.4c1.1-0.7,2.4-1.4,3.5-2.3c1-0.8,2.1-1.7,3.1-2.5c1-0.9,2.2-2,3.5-3.3c0.7-0.8,1.5-1.7,2.4-2.6
			c0.8-1,1.7-2,2.5-3.1s1.7-2.2,2.4-3.2c0.7-1,1.2-2,1.8-3.1s1-2.3,1.5-3.4c0.6-1.6,1.1-3.2,1.7-5c0.6-1.7,1-3.5,1.5-5.1
			c0.3-1.2,0.6-2.4,0.8-3.8c0.8-6.5-0.1-13-2.7-19c-1-2.3-2.4-4.2-4-6c-2-2-4.3-3.7-6.7-5c-0.7-0.3-1.6-0.8-2.6-1.2
			c-1.1-0.5-2.4-0.9-3.5-1.3c-1.2-0.4-2.4-0.8-3.8-1c-1.3-0.3-2.4-0.6-3.6-0.8c-6.5-1-12.1-2.1-16.7-3c-3.4-0.6-6.8-1.5-10.1-2.5
			c-2.8-0.9-5.7-2.1-8.2-3.5c-2.4-1.3-4.4-2.9-6.4-4.6c-2-1.8-3.6-4-4.7-6.5c-1-2.7-1.7-5.7-1.7-8.7c-0.1-1.7,0.1-3.3,0.5-4.9
			c0.4-1.8,0.9-3.7,1.5-5.5c0.6-1.7,1.2-3.5,2.1-5.2c0.7-1.5,1.5-2.8,2.4-4.1c3.5-4.5,8-8.2,13.2-10.6c2.4-1.1,5.1-1.8,7.8-2
			c2.4,0,5,0.7,7.2,2c2.5,1.4,4.7,3.4,6.5,5.7c1.7,2.3,3,5.1,3.5,8c0.7,3.1,0.7,6.3,0.1,9.4c-0.4,2.9-1.4,5.7-2.9,8.1
			c-1.2,1.8-2.7,3.4-4.5,4.6c-1.7,1.2-3.6,2.2-5.6,2.6c-0.8,0.2-1.5,0.2-2.2-0.1c-0.3-0.2-0.1-0.5,0.8-1c1.9-1,3.8-4.3,5.5-10.1
			c0.9-2.6,1.5-5.4,1.8-8.1c0.2-2.4,0-5.1-0.6-7.5c-0.4-2.5-1.4-5.1-2.7-7.3c-1.1-1.7-2.7-3.1-4.6-3.8c-3.6-1.4-7.6-0.2-12.2,3.7
			c-3.6,3.1-6.2,6.9-7.9,11.3c-1.7,4.2-2.1,8.9-1.1,13.4c0.1,0.7,0.2,1.2,0.3,1.9c0.1,0.5,0.3,1,0.5,1.5c0.2,0.4,0.4,0.9,0.8,1.5
			c0.3,0.7,0.8,1.3,1.1,1.9c1.1,2,2.5,3.9,4.2,5.5c1.8,1.7,4,3.1,6.2,4.1c3,1.4,6,2.4,9.3,3.4c3.7,1,8.1,2.1,13.3,3.1
			c3.3,0.7,6.1,1.2,8.4,1.7c2.4,0.5,4.2,0.9,5.7,1.3c1.6,0.4,2.8,0.8,3.8,1s2,0.7,3,1s1.7,0.7,2.4,1c0.6,0.3,1,0.5,1.7,0.7
			c0.7,0.3,1.3,0.7,1.9,1c0.8,0.5,1.6,1,2.4,1.7c0.8,0.7,1.6,1.3,2.4,2c0.7,0.7,1.3,1.2,1.7,1.8c2.8,3.6,5,7.5,6.2,12
			c0.8,3.1,1.1,6.4,1,9.6C248.7,696.6,248.1,700,247,703.2z"/>
		<path class="st0" d="M289.6,706.7c-1.1,1.8-2.8,3.3-4.7,4.4c-1.6,0.9-3.4,1.1-5.2,0.5c-1.7-0.8-3-2-3.8-3.7
			c-0.8-1.5-1.3-3.1-1.7-4.7c-0.4-2.2-0.6-4.3-0.6-6.5c-0.1-2.5,0.1-5.7,0.3-9.4c0.3-3.8,0.7-8.2,1.2-13.5l0.8-7.3l-2.5-5.8
			c-0.8-1.7-1.7-3.6-2.5-5.4c-0.9-1.8-1.7-3.6-2.6-5.3c-0.8-1.7-1.7-3.3-2.4-4.8c-0.8-1.5-1.3-2.6-1.8-3.6c-0.3-0.8-0.8-1.5-1.2-2.2
			c-0.1,0.4,0,0.9,0.1,1.3c0.2,0.7,0.3,1.3,0.5,2.1c0.8,3,1.4,6,1.7,9.1c0.3,2.1,0.2,4.2-0.2,6.3c-0.3,1.5-0.8,2.9-1.6,4
			c-0.8,1-1.7,1.9-2.9,2.4c-3.1,1.7-6.6,0.8-10.3-2.4c-3.8-3.2-7.3-8.4-11.1-15.5c-1.2-2.4-2.4-4.8-3.3-7.3
			c-0.9-2.4-1.7-4.6-2.3-7.1c-0.7-2.5-0.7-4.4-0.1-5.5c0.6-1.1,1.9-2.3,4-3.3c1.7-0.9,3.1-0.4,4,1.3c0.7,1.3,1.6,3.1,2.4,5.6
			c1,2.4,2,4.8,3,7.3s2.1,5.2,3.1,7.5c1,2.4,1.9,4.4,2.7,5.9c1.2,2.6,2.9,5.1,4.9,7.3c1.6,1.6,2.6,2.2,3.4,1.8
			c0.3-0.2,0.7-0.9,1-2.2c0.3-1.5,0.4-3.1,0.3-4.5c-0.1-2.8-0.3-5.6-0.8-8.3c-0.4-3.1-1-6.6-2-10.5c-0.9-3.8-2.1-7.5-3.6-11.1
			c-2.4-5.3-3.8-9.1-4-11.5c-0.3-2.4,0.3-3.9,1.6-4.6c0.8-0.3,1.5-0.7,2.3-0.8c0.7-0.2,1.4-0.2,2.1,0c0.8,0.1,1.7,0.8,2.5,2.3
			c1.5,2.3,2.8,4.5,4,7c0.7,1.3,1.7,3.1,2.7,5.6c1,2.4,2.4,4.8,3.6,7.3c1.2,2.4,2.4,4.8,3.4,7s1.8,3.8,2.4,4.6l0.5,0.9
			c0.1,0.2,0.2,0.3,0.3,0.3c0.1,0,0.3-0.6,0.3-1.7c0.1-1.1,0.2-2.6,0.3-4.4c0.1-1.7,0.1-3.7,0.2-5.6c0-2,0.1-3.7,0.1-5.2
			c0-1.5-0.1-3.2-0.3-4.9c-0.2-1.7-0.3-3.3-0.4-4.6c-0.1-1.3-0.2-2.4-0.3-3.5c0-0.9,0-1.4,0.2-1.5c0.2-0.1,0.3,0.1,0.6,0.6
			c0.4,0.8,0.8,2.8,1,5.8c0.3,3,0.5,7.6,0.8,13.8c0.2,3.5,0.2,6.4,0.3,8.6c0.1,2.2,0,4,0.1,5.4c0,1,0.1,2.1,0.2,3.1
			c0.1,0.7,0.3,1.2,0.6,1.8c0.3,0.7,0.9,2,1.7,4c0.8,2.1,1.6,4.4,2.4,6.9c0.9,2.4,1.7,5,2.5,7.3c0.8,2.4,1.4,4.3,1.8,5.7
			c2,6.4,3.1,13,3.2,19.8C292.7,699.2,291.7,703.7,289.6,706.7z M280.4,707.9c1.3,1,2.4,1.2,3.7,0.7c1-0.6,1.9-2,2.1-4
			c0.2-2.6,0.1-5.3-0.4-7.9c-0.6-3.6-1.4-7.1-2.4-10.5c-1.1-3.8-2.5-7.8-4.2-12c-0.1-0.4-0.3-0.8-0.5-1.2c-0.1-0.3-0.3-0.3-0.3-0.3
			c-0.7,3.8-1.1,7.7-1.4,11.6c-0.2,3.7-0.3,6.9-0.1,9.8c0.1,2.4,0.3,5,0.8,7.3c0.2,1.5,0.6,3,1.2,4.4
			C279,706.7,279.6,707.4,280.4,707.9z"/>
		<path class="st0" d="M297.2,604.4c-0.6,1.7-1.1,3.5-1.7,5.5c-0.6,1.9-1,3.8-1.5,5.4c-0.4,1.7-0.7,3.1-0.9,4.2
			c-0.2,0.7-0.3,1.3-0.3,2c0.6,1,1.3,2,2.2,2.9c1,1.2,2.3,2.4,3.5,3.9c1.2,1.4,2.4,2.7,3.7,4c1,1,1.8,2.4,2.5,3.6
			c2.1,4,2.7,8.7,1.7,13.1c-0.4,2.1-1.2,4-2.4,5.8c-1,1.7-2.5,3.1-4.4,4c-1.9,1.1-4.2,1.4-6.4,0.8c-2-0.6-3.6-2.1-4.8-4.4
			c-0.7-1.3-1.1-3.6-1.4-6.7c-0.3-4.1-0.1-8.2,0.5-12.2l0.6-5.9l-3.3-3.3c-1.8-1.7-3.5-3.6-5.1-5.6c-1.2-1.7-2.4-3.5-3.5-5.3
			c-1-2.1-2-4.2-2.7-6.5c-0.7-2-1-4-1.1-6.1c-0.1-1.7,0.1-3.4,0.7-5.1c0.4-1.3,1.4-2.4,2.6-3.1c0.5-0.3,1-0.4,1.6-0.5
			c0.7-0.2,1.3-0.3,1.9-0.3s1.1,0,1.7,0.2c0.4,0.1,0.8,0.3,1,0.8c0.1,0.2,0,0.5-0.3,0.9c-0.3,0.8-0.4,1.6-0.4,2.4
			c0.1,1.6,0.3,3.1,0.8,4.5c0.8,2.5,1.8,5.2,3.1,7.4c0.8,1.5,1.6,2.9,2.4,4.1c0.6,1,1.1,1.9,1.9,2.7l1.4,1.9l2.6-8.7
			c2.4-7.5,3.9-11.5,4.7-12.1c0.3-0.1,0.4-0.1,0.5,0.1C298.8,599.3,298.4,601.1,297.2,604.4z M297.5,644.2c-0.2-0.4-0.3-0.9-0.5-1.3
			c-0.3-0.4-0.5-0.9-0.8-1.5c-0.5-1-1.1-2.1-1.8-3.1s-1.3-2.1-1.9-3c-0.5-0.8-1-1.4-1.7-2.2c-0.5-0.6-0.8-0.8-0.9-0.7
			c-0.2,0.1-0.4,0.9-0.6,2.4c-0.2,1.7-0.3,3.3-0.2,4.9c0,1.8,0.1,3.8,0.2,5.6c0.1,1.4,0.3,2.8,0.5,4.2c0.4,1.5,0.9,2.9,1.7,4.2
			c0.6,1.1,1.4,2.2,2.4,2.8c1,0.6,1.8,0.7,2.4,0.3c0.6-0.4,1-1,1.1-1.7c0.3-1,0.5-2.1,0.6-3.1c0.1-1.3,0.2-2.5,0.1-3.9
			C298.2,646.8,297.9,645.5,297.5,644.2z"/>
		<g>
			<g>
				<g>
					<g>
						<defs>
							<polygon id="SVGID_1_" points="734.5,349.8 664.1,301 619,373.6 559.6,357.6 593.4,450.3 690.9,430.1 788.3,409.9 
								782.5,311.3 							"/>
						</defs>
						<clipPath id="SVGID_00000089573245526891734200000014473897101064482721_">
							<use xlink:href="#SVGID_1_"  style="overflow:visible;"/>
						</clipPath>
						<g style="clip-path:url(#SVGID_00000089573245526891734200000014473897101064482721_);">
							<path class="st0" d="M823.2,370.1l-27.8-29.8l-15.7,3.3l-23-26.7l-22.3,4.5l-25.4-26.6l-89.1,18.5l-11,34.2l-22.1,4.5
								l-11.5,33.6l-15.5,3.2l-13.8,39l29.2,30.3l234.5-48.6L823.2,370.1z M752.7,353.3c0.6,2.6-1.1,5.3-3.8,5.8
								c-2.6,0.6-5.3-1.1-5.8-3.8c-0.6-2.6,1.1-5.3,3.8-5.8c0,0,0,0,0.1,0C749.6,349,752.3,350.7,752.7,353.3z M602.5,384.4
								c-0.6-2.6,1-5.3,3.8-5.9c2.6-0.6,5.3,1,5.9,3.8c0.6,2.7-1,5.3-3.8,5.9h-0.1C605.7,388.8,603.2,387.1,602.5,384.4z
								 M555.2,425.9l10.6-29.8l30-6.2c3.6,6.3,11.5,8.6,17.8,5.1c6.3-3.5,8.6-11.5,5.1-17.8c-3.6-6.3-11.5-8.6-17.8-5.1
								c-3.7,2-6,5.7-6.6,9.8l-9.9,2l8.4-24.6l17.6-3.7l21.2,22.7L621,408.4l-28.8,5.9c-3.6-6.3-11.6-8.5-17.9-4.9
								s-8.5,11.6-4.9,17.9c3.6,6.3,11.6,8.5,17.9,4.9c3.6-2.1,6-5.7,6.6-9.9l33.3-6.9l12.1-34.2l27.6-5.7
								c3.8,6.2,11.9,8.1,18.1,4.3c6.2-3.8,8.1-11.9,4.3-18.1s-11.9-8.1-18.1-4.3c-3.6,2.2-5.8,5.9-6.2,10.1l-26.8,5.6L616.5,350
								l9.5-29.6l51.3-10.7l15.4,16.9c-3.7,6.3-1.4,14.3,4.8,17.9c6.3,3.7,14.3,1.4,17.9-4.8c3.7-6.3,1.4-14.3-4.8-17.9
								c-2.8-1.6-6-2.2-9.2-1.5c-0.9,0.2-1.7,0.5-2.5,0.8l-12.2-13.3l19.1-3.9l22.1,23.2l-10,29.5l-13.9,2.9l-24.8-27.8l-27.4,5.7
								c-3.6-6.3-11.6-8.5-17.9-4.9s-8.5,11.6-4.9,17.9s11.6,8.5,17.9,4.9c3.6-2.1,6-5.7,6.6-9.9l22.7-4.7l24.8,27.8l19.2-3.9
								l24.1,26.1l30.6-6.3c3.3,6.5,11.2,8.9,17.7,5.7c6.5-3.3,8.9-11.2,5.7-17.7c-3.3-6.5-11.2-8.9-17.7-5.7
								c-3.7,1.9-6.2,5.4-7,9.5l-26.5,5.5l-21.3-23l9.9-29l17.5-3.7l16.9,19.5l-11,2.4c-3.6-6.3-11.6-8.5-17.9-4.9
								s-8.5,11.6-4.9,17.9c3.6,6.3,11.6,8.5,17.9,4.9c3.6-2.1,6-5.7,6.6-9.9l15.5-3.2l2.4-0.5l13.6-2.8l21.3,22.9l-10.5,30.3
								l-65.8,13.6l-19.2-21.6c3.9-6,2.2-14.2-3.9-18.2c-6-3.9-14.2-2.2-18.2,3.9c-3.9,6-2.2,14.2,3.9,18.2c2.9,1.8,6.4,2.4,9.8,1.8
								c0.7-0.2,1.3-0.3,1.9-0.6l16.3,18.5l-83,17.2l8.6-25.2l12.9-2.7c3.6,6.3,11.6,8.5,17.9,4.9s8.5-11.6,4.9-17.9
								c-3.6-6.3-11.6-8.5-17.9-4.9c-3.6,2.1-6,5.7-6.6,9.9l-17.5,3.7l-11.7,34.3l-58.1,12.1L555.2,425.9z M673.4,369.7
								c-0.6-2.6,1.1-5.3,3.8-5.8c2.6-0.6,5.3,1.1,5.8,3.8c0.6,2.6-1.1,5.3-3.8,5.8c0,0,0,0-0.1,0
								C676.5,374.2,674,372.4,673.4,369.7L673.4,369.7z M585.7,419.9c0.6,2.6-1,5.3-3.8,5.9c-2.6,0.6-5.3-1-5.9-3.8
								c-0.6-2.6,1-5.3,3.8-5.9h0.1C582.6,415.6,585.1,417.4,585.7,419.9z M703.4,328.5c2.6-0.6,5.3,1.1,5.8,3.8
								c0.6,2.6-1.1,5.3-3.8,5.8c-2.6,0.6-5.3-1.1-5.8-3.8c0,0,0,0,0-0.1C698.9,331.6,700.7,329,703.4,328.5z M645.4,342.9
								c0.6,2.6-1,5.3-3.8,5.9c-2.6,0.6-5.3-1-5.9-3.8s1-5.3,3.8-5.9h0.1C642.2,338.7,644.8,340.3,645.4,342.9z M782,379.2
								c-0.6-2.6,1.1-5.3,3.8-5.8c2.6-0.6,5.3,1.1,5.8,3.8c0.6,2.6-1.1,5.3-3.8,5.8c0,0,0,0-0.1,0C785.1,383.6,782.6,382,782,379.2z
								 M708.3,392.2c-2.6,0.6-5.3-1-5.9-3.8c-0.6-2.6,1-5.3,3.8-5.9c2.6-0.6,5.3,1,5.9,3.8v0.1C712.6,389,710.9,391.7,708.3,392.2
								L708.3,392.2z M673.1,401.9c-0.6-2.6,1.1-5.3,3.8-5.8c2.6-0.6,5.3,1.1,5.8,3.8c0.6,2.6-1.1,5.3-3.8,5.8c0,0,0,0-0.1,0
								C676.3,406.2,673.7,404.5,673.1,401.9z"/>
						</g>
					</g>
				</g>
			</g>
		</g>
	</g>
	<g id="SVGID-2">
		<path class="st0" d="M593.4,454c-1.6,0-3-1-3.5-2.4l-33.8-92.8c-0.5-1.3-0.2-2.7,0.8-3.8c0.9-1,2.4-1.4,3.8-1l56.7,15.4l43.7-70.4
			c0.5-0.8,1.4-1.5,2.4-1.7c1-0.3,2.1,0,2.9,0.6l68,47.2l45.9-36.6c1-0.8,2.5-1,3.8-0.5c1.2,0.6,2.2,1.8,2.3,3.1l5.9,98.6
			c0.1,1.8-1.1,3.5-3,3.9l-97.7,20.1l-97.5,20.1C593.9,454,593.6,454,593.4,454z M565.6,363l30.2,83l94.4-19.6l94.4-19.6l-5.2-88.2
			l-42.5,33.8c-1.2,1-3.1,1-4.5,0.2L665.1,306l-43,69.3c-0.8,1.4-2.5,2.1-4.1,1.7L565.6,363z"/>
	</g>
</g>
</svg>
