<?xml version="1.0" encoding="utf-8"?>
<!-- Generator: Adobe Illustrator 22.0.1, SVG Export Plug-In . SVG Version: 6.00 Build 0)  -->
<svg version="1.1" id="Camada_1" xmlns="http://www.w3.org/2000/svg" xmlns:xlink="http://www.w3.org/1999/xlink" x="0px" y="0px"
	 viewBox="0 0 1198.5 729" style="enable-background:new 0 0 1198.5 729;" xml:space="preserve">
<style type="text/css">
	.st0{fill:#FFFFFF;}
	.st1{clip-path:url(#SVGID_2_);}
</style>
<g>
	<path class="st0" d="M81.1,584.8c-2.7,3-6.7,4.8-11.9,5.4c-5.5,0.6-11.2,0.3-16.6-0.9c-6.1-1.3-11.9-3.5-17.3-6.6
		c-5.3-2.9-10-6.7-13.9-11.2c-6.2-8-11.1-17.1-14.2-26.7c-3.3-9.9-5.4-22-6.2-36.3c-0.6-7.7-1-14.1-1.1-19.2
		c0-6.2,0.4-12.4,1.2-18.5c1.6-13.2,4.2-26.3,7.5-39.2c3.7-14.2,8.2-28.1,13.5-41.7c5.4-13.8,11.4-27.4,18-40.7
		c6.2-12.7,13.2-24.9,20.9-36.7c13.9-20.8,29.3-40.6,45.9-59.3c16.6-18.8,34.4-36.5,53.2-53.1c18.2-16,37.4-30.7,57.6-44
		c19-12.6,38.9-23.6,59.6-33c5.7-2.1,12.7-4.5,20.8-7.2c8.2-2.7,16.1-4.9,24-6.8l12.6-3c3.4-0.8,6.9-1.3,10.4-1.2
		c17.3-0.9,31.3,0.7,42,4.7s19.8,11.4,27.1,22.3c5.3,7.8,9,14.9,11.1,21.3c2.2,6.4,3.6,14.6,4.4,24.6c2.4,30.9-5.2,58-22.8,81.3
		c-1.6,2-4.7,5.4-9.4,10.1c-4.6,4.8-9.2,9.9-13.8,15.3l-18,17.7l11.4-0.9c12.4-0.8,24.8,1.1,36.4,5.7c11.1,4.5,21.7,11.9,31.9,22
		c4.3,4.1,8.2,8.5,11.9,13.2c3.1,4.4,5.9,9.1,8.4,14c2.8,6,5.2,11.4,7.2,16.3c2,4.8,3.6,9.7,4.9,14.8c1.3,5.3,2.3,10.7,3,16.1
		c0.7,5.7,1.4,12.5,2,20.2c1.2,15.8,1.3,29.4,0.1,40.6c-1.5,13.1-4.1,26.1-7.5,38.9c-5.8,23.3-15.3,47.2-28.4,71.4
		c-13.4,24.7-29.3,48-47.5,69.4c-7.7,9.2-16,18-24.6,26.4c-8.3,8-16.9,15.5-26,22.5c-8.3,6.4-16.9,12.3-26,17.5
		c-7.6,4.5-15.7,8.3-24,11.2c-3,0.7-6,1.6-8.8,2.6c-1.7,0.5-3.4,1.3-4.9,2.3c-1.2,0.3-3,0.6-5.7,1c-2.6,0.4-5.4,0.8-8.3,1
		c-15.7,1.7-29.9-0.4-42.4-6.3c-12.1-5.5-21.9-15-27.7-26.9c-7.1-15.6-9.1-34-5.8-55.2c3.2-21.2,11.5-43.7,24.9-67.7
		c8-14,17-27.5,27.1-40.1c10.4-13,21.8-25.2,34-36.5c6.5-6.6,10.6-10.8,12.2-12.6c1.6-1.8,2.1-3.5,1.3-5.3
		c-4.4-15.1-8.1-32.9-11-53.4s-5.1-42.3-6.4-65.3c-1.4-23.1-1.7-47-1.2-71.6c0.6-24.7,2-48.7,4.3-72c2.1-22.1,4.7-36.2,7.9-42.2
		c3.2-6,8.7-7.4,16.7-4.2c1.8,0.8,3.4,1.5,4.8,2.1c1.4,0.7,2.5,2.4,3.5,5.1c1.2,4,1.9,8.1,2.1,12.2c0.4,5.4,0.7,13.4,1,23.9
		c0.2,10.6,0.4,24.1,0.5,40.6s0.2,36.9,0.4,61.2v11.2l11.9-12.2c7.6-7.7,14.4-14.9,20.4-21.8c5.8-6.8,11.3-13.9,16.4-21.3
		c5-7.3,9.6-14.8,13.7-22.6s8.1-16.5,12.1-26.1c7-16.2,11.5-29.1,13.7-38.8c2.2-9.5,2.9-19.3,2.1-29.1c-1.8-31-22.7-44.2-62.6-39.6
		c-13.1,1.5-27.3,5.3-42.5,11.4c-16.4,6.7-32.2,15-47,24.7c-17.1,11.2-33.4,23.6-48.7,37.1c-48.5,42.5-89.3,92.9-120.7,149.2
		c-19.7,36-33.8,72.7-42.3,110C37,475,34.1,500.2,35.3,522c1.1,21.7,6,37.7,14.8,47.8c3.4,4.2,7.8,7.4,12.9,9.4
		c5,2,9.5,2.5,13.6,1.5C83.9,578.8,85.5,580.2,81.1,584.8z M372.2,319.1c-2.1-0.2-4.3-0.1-6.4,0.3c-1.9,0.5-3.9,0.7-5.9,0.8
		c-5.2,1.2-10.3,2.9-15.3,5c-5.3,2.5-10.3,5.5-14.9,9.1l-11.7,8.6l0.4,10.5c-0.1,5.9-0.1,12.7,0.3,20.3c0.3,7.6,0.7,15.2,1.1,22.8
		c0.4,7.6,1,14.9,1.7,22s1.4,12.9,2,17.5l2,19.6l6.7-5.1c17.1-14.2,30.3-24.2,39.6-30.1c9.2-5.9,15.5-8.4,18.8-7.6
		c2.4,0.2,3.5,1,3.5,2.4s-1.2,2.3-3.5,2.9c-2.5,0.8-4.8,2-7,3.4c-3.2,1.9-6.9,4.4-11.1,7.3s-8.8,6.4-13.8,10.3s-9.8,8-14.5,12.2
		l-15.7,13.1l0.7,8.7c0.3,3.5,1,8.6,2.3,15.4s2.8,13.6,4.5,20.5c1.7,6.9,3.3,13.5,4.9,19.8c1,4.5,2.3,8.9,3.9,13.2
		c1.2,3.1,2.3,6.3,3.2,9.6c0.3,1.2,0,2.5-0.8,3.4c-1.5,2.2-4.1,3.5-6.8,3.3c-2.6-0.2-4.9-1.6-6.9-4.3c-1.6-2-3.4-4.3-5.4-7
		s-4-5.5-5.9-8.3c-2-2.9-3.8-5.7-5.5-8.4c-1.4-2.2-2.6-4.5-3.6-6.8c-2.3-4-4.2-8.2-5.8-12.5c-2.2-5.6-4.4-11.4-6.7-17.6
		c-0.3-0.7-1.4-0.4-3.2,1c-1.8,1.4-4.9,4.2-9.3,8.3c-10.8,10.5-20.7,21.9-29.8,34c-8.6,11.7-16.4,24-23.4,36.7
		c-12.4,22.5-20,43.1-23,61.9s-0.9,35.2,6.1,49.3c3.7,6.9,8.8,12.9,15.1,17.7s12.8,7.6,19.6,8.4c4.4,0.1,10.4-0.8,17.8-3
		c7.2-2,14.2-4.7,21-7.8c18.9-9.9,37.8-25.3,56.6-46.2c18.8-20.9,36.2-45.6,52.2-74c10.1-17.9,18.7-36.7,25.6-56
		c6.2-18,11.4-38.4,15.5-61.3c4.1-23.3,5.4-44.9,4-64.6s-5.4-36.4-12.1-50.2c-5.6-11.3-13.2-19.1-22.8-23.6
		C400.6,319.4,387.9,317.8,372.2,319.1z"/>
	<path class="st0" d="M482.7,341.5c0.5-16.3,2.4-27.6,5.6-34c3.3-6.4,8.2-10.2,14.8-11.5c2.6-0.6,5.3-0.7,7.9-0.2
		c2,0.5,3.3,2.4,4,5.9c0.7,2.6,1.1,5.2,1.2,7.9c0.1,3.4,0.2,7.6,0.1,12.6c0.3,16.4,1.1,31.9,2.3,46.4c1,12.7,2.7,25.4,5.1,37.9
		c2,10.2,4.3,18.5,7.1,24.9c2.7,6.4,4.6,9.5,5.6,9.3c2-0.7,4-5.8,6.1-15.6c2.1-9.7,4-23.7,5.7-42c1.9-20.1,2.6-37,2.2-50.6
		c-0.4-13.6-0.5-24.7-0.3-33.1s1.2-14.8,3-18.9c1.8-4.2,5.9-6.9,12.3-8.2c2.9-0.7,6-0.5,8.8,0.5c2.5,0.9,4.3,3.1,4.7,5.7
		c0.9,3.3,1.4,6.7,1.6,10.1c0.4,4.5,0.7,9.7,1,15.5c0.7,10.5,1.4,20.1,2.1,29c0.7,8.9,1.5,17.2,2.3,25.2c0.9,7.9,2,15.8,3.3,23.7
		s2.7,16,4.4,24.5c1.3,6.8,2.7,13.3,4.2,19.5s3,11.5,4.5,15.9c1.2,3.6,2.6,7.1,4.2,10.4c1.3,2.5,2.5,3.7,3.5,3.5
		c1.8-0.4,3.2-4.2,4.3-11.7s1.9-16.7,2.5-27.7s1.1-22.9,1.6-35.6c0.4-12.7,0.9-24.6,1.4-35.6s1-20.1,1.4-27.4s1-11,1.8-11.2
		c0.5-0.1,0.9,0.7,1.3,2.4c1.4,7.4,1.6,32.5,0.5,75.5c-0.5,19-1.3,34.1-2.2,45.5s-2.2,20.2-3.7,26.6c-1.5,6.3-3.5,10.7-5.8,13.1
		c-2.2,2.3-5,3.8-8.1,4.5c-4.3,0.9-8.6-0.5-12.7-4c-4.1-3.5-8.2-8.6-12.1-15.3c-4.5-7.9-8.3-16.2-11.2-24.7
		c-3.8-10.8-7-21.7-9.6-32.8l-4.2-19.5l-1.9,20.7c-0.5,9.1-1.4,18.1-2.8,27.1c-1.2,6.7-2.6,11.8-4.1,15.4c-1.6,3.6-3.4,6-5.5,7.5
		c-2.1,1.4-4.5,2.4-7,2.9c-6.1,1.2-11.8-0.4-17.1-4.8c-5.7-4.9-10.4-10.8-14.1-17.3c-4.3-7.4-7.8-15.2-10.5-23.3
		c-2.6-7.5-4.7-15.1-6.3-22.9C483,369.3,482,355.4,482.7,341.5z"/>
	<path class="st0" d="M650.9,307.2c-1.6,5.6-3.1,9.7-4.6,12.2s-4,4.2-6.8,4.7c-6.8,1.5-13.9-0.6-18.8-5.6c-5.4-5.2-9-11.9-10.3-19.2
		c-2-10.2-2.3-18.4-1-24.5c1.3-6.2,4.1-9.7,8.4-10.5c3.9-0.7,7.9-0.4,11.7,0.8c4.2,1.2,6.6,3.1,7.1,5.7c0.4,2.4,0.6,4.9,0.7,7.4
		c0.1,3.2,0.1,6.6,0,10.2s-0.1,6.9,0,10.2c0,2.5,0.2,4.9,0.7,7.4c0.6,2.8,1.3,4.2,2.4,4c1.3,0,2.8-2.5,4.5-7.5s3.5-12,5.4-20.9
		c4-19,8.7-29.1,14.4-30.2c4.6-0.8,9.3-0.3,13.6,1.5c4.7,1.9,7.5,4.6,8.2,8.3c0.8,2.5,1.2,6.5,1.4,12.1s0.6,13.6,1.3,24
		c0.7,10.2,1.3,19.7,1.8,28.6c0.6,8.9,1.2,17.5,1.9,25.9s1.7,17,2.8,25.7c1.2,8.7,2.8,18.2,4.8,28.5c1.8,9.1,3.6,16.8,5.4,23.2
		s3.6,10.9,5.4,13.5l2.4,4l2.1-3.5c2.3-4.6,4.2-13.4,5.7-26.5s2.8-32.4,4-58c0.8-22.8,1.5-39.4,2-49.7c0.5-10.3,1.4-15.5,2.7-15.8
		c1-0.2,1.6,0.3,1.9,1.4c0.3,1.7,0.3,3.4,0.2,5c-0.1,2-0.3,6.1-0.4,12.2c-0.1,6.2-0.3,15.3-0.6,27.5c-0.3,12.1-0.4,29.1-0.4,50.9
		c0.2,12.9-0.1,23.6-0.7,31.9c-0.4,6.9-1.4,13.7-3.2,20.3c-1.5,5.2-3.6,8.9-6.2,11.1c-2.9,2.4-6.3,4-10,4.6
		c-9.2,1.8-17.8-4.3-25.9-18.4c-8.1-14-14.7-34.2-19.8-60.6c-1.8-9.4-3.4-18.7-4.7-28s-2.3-17.8-3-25.5s-1.3-14.1-1.8-19.3
		c-0.5-5.2-0.9-8.4-1.1-9.5c-0.3-0.2-0.8,0.7-1.5,2.7C652.4,301.5,651.6,304.1,650.9,307.2z"/>
	<path class="st0" d="M800.7,391.8c-1.4-8.3-2.6-16.1-3.8-23.6c-1.2-7.4-1.9-12.6-2.2-15.5l-1.5-9.4l-1.7,17.6
		c-1.8,18-4.6,32.2-8.5,42.5s-7.7,15.9-11.2,16.6c-5.6,1.3-11.4,0.7-16.7-1.6c-5.1-2.4-9.6-6.1-12.9-10.7c-3.8-5.2-6.9-10.9-9.1-17
		c-2.5-6.7-4.5-13.7-5.8-20.7c-2.3-12-3.5-24.1-3.6-36.3c-0.1-11.6,1.2-23.1,3.8-34.4c2.6-10.6,6.6-19.6,12-27s12.4-11.9,20.8-13.5
		c2.5-0.5,5-0.7,7.5-0.6c3.3,0.5,6.5,1.3,9.6,2.5l10.2,3.3l0.8-8.1c0.8-8.3,2-13.8,3.7-16.7s5.1-4.9,10.2-5.9c3.1-0.6,6.3,0.1,8.7,2
		c2.9,2.1,4.8,5.3,5.3,8.9c0.4,2.1,0.7,4.2,0.8,6.3c0.2,2.5,0.4,5.4,0.6,9c0,3,0.5,8.1,1.4,15.4s2,15.4,3.1,24.1
		c1.2,8.7,2.5,17.3,3.9,25.7c1.4,8.4,2.6,15.2,3.6,20.3c1.1,5.7,1.9,8.5,2.4,8.4c0.3,0,1.1-2.1,2.6-6c1.5-4,3.2-8.7,5.2-14.3
		c2-5.5,3.9-11.1,5.7-16.6s3.2-9.8,4.2-13c0.9-3.4,1.8-7.2,2.7-11.4c0.9-4.2,1.9-8,2.9-11.6s2-6.6,2.8-8.9s1.7-3.6,2.4-3.8
		c0.5-0.1,0.9,0.6,1.2,2c0.2,0.9-0.5,4.4-1.9,10.5c-1.4,6.2-3.2,13.3-5.3,21.4s-4.4,16.3-6.9,24.7c-2.5,8.4-4.5,15.4-6,21.1
		l-7.4,23.1l1.8,9.4c0.8,4,1.6,8.9,2.5,15s1.7,12.3,2.5,18.9l2.3,19.9c0.8,6.6,1.3,12.5,1.5,17.8c3.9,44,1.6,78.1-6.9,102.3
		s-22.1,38.1-40.7,41.8c-8.4,1.7-15.4,0.4-20.8-3.9c-5.5-4.2-9-10.5-10.6-18.7c-1.2-5.9-1.2-13.7,0-23.4c1.4-11,3.4-22,6.1-32.8
		c2.9-12.2,6.7-25.4,11.5-39.6s10.3-29,16.6-44.3l6.2-12.7L800.7,391.8z M777.3,390.2c1.6-6.1,2.9-12.4,3.9-18.7
		c1.3-8.1,2.5-16.8,3.6-26.3s1.8-19.1,2.3-28.7c0.5-9.7,0.6-18.3,0.5-25.9l0.1-15.5l-4.1-2.7c-3.3-2-6-2.8-8-2.4
		c-3.6,0.7-6.7,4.5-9.3,11.5s-4.6,15.9-5.9,26.8c-1.4,12.3-1.8,24.8-1.3,37.1c0.5,14.4,2.2,28.8,5.1,43c0.8,4.3,1.8,8.3,2.8,12
		c1,3.8,1.9,5.6,2.7,5.5C771.4,405.5,774,400.3,777.3,390.2L777.3,390.2z M812.3,497.7c-0.1-4.7-0.5-10-1-15.9s-1-11.6-1.3-17
		c-0.4-5.4-0.8-10.2-1.2-14.3c-0.4-4.2-0.8-7-1.1-8.4l-0.2-1.3c-0.3,0.1-1.1,2.1-2.6,6c-1.5,4-3.2,8.9-5.2,14.9s-4.1,12.2-6.5,18.7
		c-2.3,6.5-4.2,12.2-5.6,17.2c-4.3,14.2-7.6,28.7-9.8,43.5c-1.9,13.3-2.2,23.4-0.8,30.2c1.1,5.4,3.3,9.5,6.6,12.4
		c3.4,2.9,6.8,4,10.4,3.3c7.1-1.4,12.3-9.8,15.4-25.1C812.5,546.6,813.4,525.2,812.3,497.7L812.3,497.7z"/>
	<path class="st0" d="M854.8,268.5c0.5-16.3,2.4-27.6,5.6-34c3.3-6.4,8.2-10.2,14.8-11.5c2.6-0.6,5.3-0.7,7.9-0.2
		c2,0.5,3.3,2.5,4,5.9c0.7,2.6,1.1,5.2,1.2,7.9c0.1,3.4,0.1,7.6,0.1,12.6c0.3,16.4,1.1,31.9,2.3,46.4c1,12.7,2.7,25.4,5,37.9
		c2,10.2,4.3,18.5,7.1,24.9c2.7,6.4,4.6,9.5,5.6,9.3c2-0.7,4-5.8,6.1-15.6c2.1-9.7,4-23.7,5.7-42c1.9-20.1,2.6-37,2.2-50.6
		s-0.5-24.6-0.3-33.1c0.2-8.4,1.2-14.8,3-18.9c1.8-4.2,5.9-6.9,12.3-8.2c2.9-0.7,6-0.5,8.8,0.5c2.5,0.9,4.3,3.1,4.7,5.7
		c0.9,3.3,1.4,6.7,1.6,10.1c0.4,4.5,0.7,9.7,1,15.5c0.7,10.5,1.4,20.1,2.1,29c0.7,8.8,1.5,17.2,2.4,25.2c0.9,7.9,2,15.8,3.2,23.7
		c1.3,7.9,2.7,16.1,4.4,24.6c1.3,6.8,2.7,13.3,4.2,19.5s3,11.5,4.5,15.9c1.2,3.6,2.6,7.1,4.2,10.4c1.3,2.5,2.5,3.7,3.5,3.5
		c1.8-0.3,3.2-4.2,4.3-11.7c1.1-7.4,1.9-16.7,2.5-27.7s1.1-22.9,1.6-35.6c0.4-12.7,0.9-24.6,1.4-35.6s1-20.1,1.4-27.4
		c0.4-7.3,1-11,1.8-11.2c0.5-0.1,0.9,0.7,1.3,2.4c1.4,7.4,1.6,32.5,0.5,75.5c-0.5,19-1.3,34.1-2.2,45.5s-2.2,20.2-3.7,26.6
		c-1.5,6.3-3.5,10.7-5.8,13.1c-2.2,2.3-5,3.8-8.1,4.5c-4.3,0.9-8.6-0.5-12.7-4c-4.1-3.5-8.2-8.6-12.1-15.3
		c-4.5-7.9-8.3-16.2-11.2-24.7c-3.8-10.8-7-21.7-9.6-32.8l-4.2-19.5l-1.9,20.7c-0.4,9.1-1.4,18.1-2.8,27.1
		c-1.2,6.7-2.6,11.9-4.1,15.4c-1.6,3.5-3.4,6-5.5,7.5c-2.1,1.4-4.5,2.4-7,2.9c-6.1,1.2-11.8-0.4-17.1-4.8
		c-5.7-4.9-10.5-10.8-14.2-17.3c-4.3-7.4-7.8-15.2-10.5-23.3c-2.6-7.5-4.7-15.1-6.3-22.9C855.1,296.3,854.1,282.4,854.8,268.5z"/>
	<path class="st0" d="M1089.9,236.5c0.8-0.1,1.3,0.8,1.7,2.8c0.8,4.3,1,12.3,0.4,24.2s-1.6,26.4-3,43.5
		c-2.3,24.6-6.6,42.8-12.7,54.6c-6.2,11.8-14.6,18.8-25.3,20.9c-6.1,1.2-12.5,0.5-18.2-2c-6.4-2.8-12.2-7.1-16.8-12.4
		c-5.6-6.4-10.2-13.6-13.6-21.4c-4.2-9.4-7.3-19.2-9.2-29.4c-2.6-12.9-3.7-26-3.5-39.1c0.1-11.6,1.7-23.1,4.8-34.3
		c2.9-10.1,6.9-18.6,11.9-25.3s11-10.8,17.9-12.1c7.4-1.5,13.3-0.1,17.7,4c4.4,4.1,7.7,11.8,9.9,22.8c1.4,7.3,2,14.7,1.8,22.2
		c-0.2,6.8-1.2,13.5-3,20c-1.5,5.4-3.9,10.6-7.3,15.1c-2.8,3.9-6.8,6.7-11.4,8l-7.5,1.9l4.3,17.7c1.8,6.7,3.9,13.3,6.3,19.8
		s4.7,12.3,7,17.4c1.8,4.3,4.3,8.4,7.3,12c2.6,2.9,4.9,4.1,7.3,3.7c3.8-0.8,7.5-4.6,11-11.7c3.5-7,6.8-16.1,9.8-27.1
		c3.2-12.2,5.7-24.7,7.4-37.2c2-14.1,3.1-28.2,3.4-42.4C1088.6,242.1,1089.1,236.7,1089.9,236.5z M1023.2,257.6
		c-0.2,5.9-0.1,12.1,0.1,18.5c0.1,4.8,0.5,9.6,1.2,14.3c0.4,2,1.5,2.8,3.2,2.5c3.3-0.6,6.1-3,8.4-7.2c2.6-4.8,4.4-10,5.4-15.4
		c1.3-6.5,2-13,2-19.6c0.1-6.8-0.5-13.5-1.8-20.2c-0.7-3.8-1.9-7.5-3.4-11.1c-1.4-3.4-3.1-4.9-4.8-4.6c-1,0.2-2.1,1.6-3.3,4.2
		c-1.4,3.1-2.5,6.4-3.4,9.7C1024.4,238.2,1023.2,247.9,1023.2,257.6L1023.2,257.6z"/>
	<path class="st0" d="M1117.2,215.7c-1.5,5.6-3.1,9.7-4.6,12.2s-4,4.2-6.8,4.7c-6.8,1.5-13.9-0.6-18.8-5.6
		c-5.4-5.1-9-11.9-10.3-19.2c-2-10.2-2.3-18.4-1-24.5s4.1-9.6,8.5-10.5c3.9-0.7,7.9-0.4,11.7,0.8c4.2,1.2,6.6,3.1,7.1,5.7
		c0.4,2.4,0.6,4.9,0.7,7.4c0.1,3.2,0.1,6.6,0,10.2c-0.1,3.6-0.1,6.9,0,10.2c0,2.5,0.2,4.9,0.7,7.4c0.6,2.8,1.3,4.2,2.4,4
		c1.3,0,2.8-2.5,4.5-7.5s3.5-12,5.4-20.9c4-19,8.7-29.1,14.3-30.2c4.6-0.8,9.3-0.3,13.6,1.5c4.7,1.9,7.5,4.6,8.2,8.3
		c0.8,2.5,1.2,6.5,1.4,12.1s0.6,13.6,1.3,24c0.7,10.2,1.3,19.7,1.8,28.6c0.6,8.9,1.2,17.5,1.9,25.9c0.7,8.4,1.7,17,2.9,25.7
		c1.2,8.8,2.8,18.2,4.8,28.5c1.8,9.1,3.6,16.8,5.4,23.2c1.8,6.4,3.6,10.9,5.4,13.5l2.4,4l2.1-3.5c2.3-4.6,4.2-13.4,5.7-26.5
		s2.9-32.4,4-58c0.8-22.8,1.5-39.4,2-49.7s1.4-15.5,2.7-15.8c1-0.2,1.6,0.3,1.9,1.4c0.3,1.7,0.3,3.4,0.2,5c-0.1,2-0.3,6.1-0.4,12.2
		c-0.1,6.2-0.3,15.3-0.6,27.5c-0.3,12.1-0.4,29.1-0.3,50.9c0.2,12.9-0.1,23.6-0.7,32c-0.4,6.9-1.4,13.6-3.2,20.3
		c-1.5,5.2-3.6,8.9-6.2,11.1c-2.9,2.4-6.3,4-10,4.6c-9.2,1.8-17.8-4.3-25.9-18.4c-8.1-14-14.7-34.2-19.8-60.6
		c-1.8-9.4-3.4-18.7-4.7-28c-1.3-9.3-2.3-17.8-3-25.5s-1.3-14.1-1.8-19.3s-0.8-8.4-1.1-9.5c-0.3-0.2-0.8,0.7-1.5,2.7
		S1117.9,212.6,1117.2,215.7z"/>
	<path class="st0" d="M177.2,492c-0.8,2.9-1.9,5.8-3.3,8.5c-1.5,2.7-3.1,5.4-4.9,7.9c-2.7,3.7-5.6,7.2-8.8,10.4
		c-3.4,3.4-7,6.5-10.7,9.3c-3.8,2.9-7.8,5.4-11.9,7.6c-4.1,2.2-8.3,4-12.6,5.6c-9.5,3.3-17.9,4.7-25.1,4.2c-6.7-0.3-13.2-3.1-18-7.7
		c-3.1-2.9-5.4-6.5-6.9-10.4c-1.5-3.7-2.4-7.7-2.7-11.7c-0.3-4-0.3-8.1,0.2-12.1c0.5-4.2,1.4-8.4,2.7-12.5
		c1.9-6.6,5.1-12.7,9.3-18.1c1.1-1.7,2.4-3.3,3.7-4.8c1.1-1.3,2.3-2.5,3.6-3.6c1.3-1.1,2.6-2.1,4-3s3.1-1.9,5.1-3
		c7.8-4.1,12.2-5.1,13.3-3.1c0.3,0.6,0.3,1,0.1,1.2c-0.5,0.3-1.2,0.5-1.8,0.4c-2,0-5,2-8.9,6.1c-3.3,3.3-6,7-8.2,11.1
		c-2.4,4.5-4.3,9.2-5.8,14.1c-1.5,5-2.4,10.2-2.8,15.5c-0.4,5-0.2,10,0.7,15c0.7,3.5,1.9,6.8,3.4,10.1c1.4,3.1,3.5,5.8,6,8
		c4.1,3.4,9.4,5.2,14.7,4.9c1.7,0,3.4-0.1,5.1-0.3c1.5-0.2,3.1-0.5,4.5-0.9c1.6-0.5,3.3-1.1,4.8-1.8c1.7-0.8,3.7-1.7,6.1-3
		c2.2-1.1,4-2.1,5.5-3c1.4-0.8,2.8-1.7,4.2-2.7c1.2-1,2.5-2,3.7-3.1s2.6-2.4,4.2-4c0.8-0.9,1.8-2,2.8-3.2s2.1-2.4,3.1-3.7
		s2-2.6,2.8-3.9c0.8-1.2,1.5-2.4,2.2-3.7c0.7-1.3,1.3-2.7,1.8-4.1c0.7-1.9,1.4-3.9,2.1-6c0.7-2.1,1.3-4.2,1.8-6.1
		c0.4-1.5,0.7-3,0.9-4.6c1-7.8-0.1-15.7-3.3-22.9c-1.2-2.7-2.9-5.1-4.9-7.3c-2.4-2.4-5.2-4.4-8.1-6c-0.8-0.4-1.9-0.9-3.2-1.5
		c-1.4-0.6-2.8-1.1-4.2-1.6c-1.5-0.5-3-0.9-4.5-1.3c-1.6-0.4-3-0.7-4.3-1c-7.8-1.3-14.5-2.5-20.1-3.6c-4.1-0.7-8.2-1.8-12.1-3.1
		c-3.4-1.1-6.8-2.5-9.9-4.2c-2.8-1.6-5.3-3.5-7.7-5.6c-2.4-2.2-4.3-4.8-5.7-7.8c-1.3-3.3-2-6.9-2-10.4c-0.1-2,0.1-4,0.6-5.9
		c0.5-2.2,1.1-4.4,1.8-6.6c0.7-2.1,1.5-4.2,2.5-6.2c0.8-1.8,1.8-3.4,2.9-5c4.2-5.5,9.6-9.9,15.9-12.8c2.9-1.4,6.1-2.2,9.4-2.4
		c3,0,6,0.8,8.6,2.4c3.1,1.7,5.7,4.1,7.8,6.9s3.6,6.1,4.2,9.6c0.8,3.7,0.8,7.6,0.1,11.3c-0.5,3.5-1.7,6.8-3.5,9.8
		c-1.5,2.2-3.3,4.1-5.4,5.6c-2,1.5-4.3,2.6-6.7,3.2c-0.9,0.2-1.8,0.2-2.6-0.1c-0.4-0.2-0.1-0.6,0.9-1.2c2.3-1.2,4.5-5.2,6.6-12.1
		c1.1-3.2,1.8-6.5,2.2-9.8c0.2-3,0-6.1-0.7-9.1c-0.5-3.1-1.7-6.1-3.3-8.8c-1.4-2.1-3.3-3.7-5.6-4.6c-4.3-1.7-9.2-0.2-14.6,4.4
		c-4.3,3.7-7.5,8.3-9.5,13.6c-2,5.1-2.5,10.7-1.4,16.1c0.1,0.8,0.2,1.5,0.4,2.3c0.1,0.6,0.3,1.2,0.6,1.8c0.2,0.5,0.5,1.1,0.9,1.8
		c0.4,0.8,0.9,1.6,1.4,2.3c1.4,2.4,3.1,4.7,5.1,6.6c2.2,2.1,4.8,3.8,7.5,5c3.6,1.7,7.3,3,11.2,4.1c4.4,1.2,9.8,2.5,16,3.8
		c4,0.8,7.4,1.5,10.1,2.1c2.8,0.6,5.1,1.1,6.9,1.6c1.9,0.5,3.4,0.9,4.6,1.3c1.2,0.4,2.4,0.8,3.6,1.3c1.2,0.4,2,0.8,3,1.2
		c0.7,0.3,1.3,0.6,2,0.8c0.8,0.4,1.6,0.8,2.3,1.3c0.9,0.6,1.9,1.3,2.9,2.1c1,0.8,1.9,1.6,2.8,2.4c0.8,0.8,1.6,1.5,2.1,2.2
		c3.4,4.3,6,9.1,7.5,14.4c1,3.8,1.4,7.7,1.2,11.6C179.3,484,178.5,488.1,177.2,492z"/>
	<path class="st0" d="M228.5,496.3c-1.4,2.2-3.4,4-5.7,5.3c-1.9,1.1-4.1,1.4-6.2,0.6c-2-0.9-3.6-2.4-4.5-4.4c-0.9-1.8-1.6-3.7-2-5.7
		c-0.5-2.6-0.7-5.2-0.7-7.8c-0.1-3.1,0.1-6.9,0.4-11.3c0.3-4.5,0.8-9.9,1.5-16.2l0.9-8.9l-3.1-7c-1-2.1-2-4.3-3.1-6.5
		s-2.1-4.3-3.2-6.4c-1-2.1-2-4-2.8-5.8c-0.9-1.8-1.6-3.2-2.2-4.3c-0.4-0.9-0.9-1.8-1.5-2.6c-0.1,0.5,0,1.1,0.1,1.6
		c0.2,0.8,0.4,1.6,0.6,2.5c1,3.6,1.7,7.3,2.1,11c0.3,2.5,0.2,5.1-0.2,7.6c-0.3,1.8-0.9,3.5-1.9,4.9c-0.9,1.2-2.1,2.3-3.5,3
		c-3.8,2-7.9,1-12.4-2.9s-8.9-10.1-13.4-18.7c-1.5-2.9-2.8-5.8-4-8.8c-1.1-2.8-2-5.6-2.7-8.5c-0.8-3.1-0.8-5.3-0.1-6.6
		c0.7-1.4,2.3-2.7,4.8-4c2.1-1.1,3.7-0.5,4.8,1.6c0.8,1.6,1.9,3.8,3,6.7c1.2,2.8,2.4,5.8,3.6,8.9c1.2,3.1,2.5,6.2,3.7,9.1
		s2.3,5.3,3.3,7.1c1.5,3.2,3.5,6.1,5.9,8.8c1.9,1.9,3.2,2.6,4.1,2.2c0.4-0.2,0.8-1.1,1.3-2.6c0.3-1.8,0.5-3.7,0.3-5.5
		c-0.1-3.4-0.4-6.7-0.9-10c-0.5-3.8-1.3-8-2.4-12.6c-1.1-4.6-2.5-9.1-4.3-13.4c-2.9-6.4-4.6-11-4.9-13.9c-0.3-2.9,0.3-4.7,1.9-5.6
		c0.9-0.4,1.8-0.8,2.7-1c0.8-0.2,1.7-0.2,2.5,0c0.9,0.1,2,1,3.1,2.7c1.8,2.7,3.4,5.5,4.8,8.4c0.8,1.6,2,3.8,3.3,6.7
		c1.3,2.9,2.8,5.8,4.3,8.8s2.9,5.8,4.1,8.4c1.2,2.6,2.2,4.5,2.8,5.6l0.6,1.1c0.1,0.2,0.2,0.3,0.4,0.4c0.1,0,0.3-0.7,0.4-2.1
		c0.1-1.4,0.2-3.2,0.3-5.3c0.1-2.1,0.1-4.4,0.2-6.7c0-2.4,0.1-4.4,0.1-6.2s-0.1-3.9-0.3-5.9c-0.2-2.1-0.3-4-0.5-5.6
		c-0.1-1.6-0.2-3-0.3-4.2c0-1.1,0-1.7,0.2-1.8s0.4,0.1,0.7,0.7c0.5,1,1,3.4,1.3,7s0.6,9.2,0.9,16.6c0.2,4.2,0.2,7.7,0.3,10.3
		s0,4.9,0.1,6.5c0,1.3,0.1,2.5,0.2,3.7c0.1,0.8,0.4,1.5,0.7,2.2c0.4,0.8,1.1,2.4,2,4.9s1.9,5.3,3,8.3s2.1,6,3.1,8.9s1.7,5.2,2.2,6.8
		c2.4,7.7,3.7,15.7,3.9,23.8C232.3,487.2,231,492.6,228.5,496.3z M217.4,497.6c1.6,1.2,3,1.5,4.4,0.8c1.3-0.7,2.3-2.4,2.5-4.9
		c0.2-3.2,0.1-6.4-0.5-9.5c-0.7-4.3-1.7-8.5-3-12.6c-1.4-4.6-3.1-9.4-5.1-14.4c-0.1-0.5-0.3-1-0.6-1.5c-0.1-0.3-0.3-0.4-0.4-0.3
		c-0.8,4.6-1.4,9.3-1.7,14c-0.2,4.4-0.3,8.3-0.1,11.8c0.1,3,0.4,6,0.9,8.9c0.2,1.8,0.7,3.6,1.5,5.3
		C215.8,496.1,216.5,497,217.4,497.6z"/>
	<path class="st0" d="M237.7,372.9c-0.7,2.1-1.4,4.2-2.1,6.6c-0.7,2.3-1.3,4.5-1.8,6.5s-0.8,3.7-1.1,5.1c-0.2,0.8-0.3,1.6-0.3,2.4
		c0.7,1.3,1.6,2.4,2.6,3.5c1.3,1.5,2.7,3,4.2,4.7s3,3.3,4.4,4.9c1.2,1.3,2.2,2.8,3.1,4.3c2.5,4.8,3.3,10.4,2.1,15.8
		c-0.5,2.5-1.5,4.8-2.9,7c-1.3,2-3.1,3.7-5.3,4.8c-2.3,1.4-5.1,1.7-7.7,1c-2.4-0.7-4.3-2.5-5.8-5.3c-0.8-1.6-1.4-4.3-1.7-8.1
		c-0.3-5-0.1-9.9,0.6-14.8l0.7-7.2l-4-4c-2.2-2.1-4.2-4.3-6.1-6.7c-1.5-2.1-2.9-4.2-4.2-6.4c-1.3-2.5-2.4-5.1-3.3-7.8
		c-0.8-2.4-1.3-4.9-1.4-7.4c-0.1-2.1,0.1-4.1,0.8-6.1c0.5-1.6,1.7-3,3.2-3.8c0.6-0.3,1.2-0.5,1.9-0.6c0.8-0.2,1.6-0.3,2.3-0.3
		s1.4,0,2.1,0.2c0.5,0.1,1,0.4,1.3,0.9c0.1,0.2,0,0.6-0.3,1.1c-0.4,0.9-0.5,1.9-0.5,2.8c0.1,1.9,0.4,3.7,0.9,5.5
		c0.9,3.1,2.2,6.2,3.8,9c0.9,1.8,1.9,3.5,2.8,5c0.7,1.2,1.4,2.3,2.3,3.3l1.7,2.3l3.2-10.4c2.8-9.1,4.7-13.9,5.7-14.5
		c0.3-0.1,0.5-0.1,0.6,0.1C239.7,366.7,239.1,368.9,237.7,372.9z M238.1,420.9c-0.2-0.5-0.4-1.1-0.6-1.6c-0.3-0.5-0.6-1.1-0.9-1.8
		c-0.6-1.2-1.4-2.5-2.2-3.8s-1.6-2.5-2.3-3.6c-0.6-0.9-1.3-1.7-2-2.6c-0.6-0.7-1-0.9-1.1-0.8c-0.2,0.1-0.5,1.1-0.7,2.8
		c-0.2,2-0.3,4-0.2,5.9c0,2.2,0.1,4.5,0.2,6.7c0.1,1.7,0.3,3.4,0.6,5.1c0.5,1.8,1.1,3.5,2,5.1c0.7,1.4,1.7,2.6,3,3.4
		c1.2,0.7,2.2,0.8,3,0.4c0.7-0.5,1.2-1.2,1.4-2c0.4-1.2,0.6-2.5,0.7-3.8c0.1-1.6,0.2-3.1,0.1-4.7
		C238.9,424.1,238.6,422.5,238.1,420.9z"/>
	<g>
		<g>
			<defs>
				<polygon id="SVGID_1_" points="764.7,66 679.9,7.2 625.5,94.8 554,75.4 594.7,187.2 712.2,162.9 829.6,138.5 822.6,19.7 				"/>
			</defs>
			<clipPath id="SVGID_2_">
				<use xlink:href="#SVGID_1_"  style="overflow:visible;"/>
			</clipPath>
			<g class="st1">
				<path class="st0" d="M871.6,90.6l-33.5-35.9l-19,4l-27.7-32.1L764.5,32L733.8,0L626.4,22.2l-13.3,41.2l-26.7,5.5l-13.9,40.5
					l-18.7,3.9l-16.7,47l35.2,36.5L855,138.2L871.6,90.6z M786.7,70.3c0.7,3.2-1.4,6.4-4.6,7c-3.2,0.7-6.4-1.4-7-4.6
					c-0.7-3.2,1.4-6.4,4.6-7c0,0,0,0,0.1,0C783,65.1,786.1,67.2,786.7,70.3z M605.7,107.8c-0.7-3.2,1.3-6.4,4.6-7.1
					c3.2-0.7,6.4,1.3,7.1,4.6s-1.3,6.4-4.6,7.1h-0.1C609.5,113,606.4,111,605.7,107.8z M548.7,157.8l12.8-35.9l36.2-7.5
					c4.3,7.6,13.9,10.3,21.5,6.1s10.3-13.9,6.1-21.5c-4.3-7.6-13.9-10.3-21.5-6.1c-4.4,2.4-7.3,6.8-8,11.8l-11.9,2.4L594,77.5
					l21.2-4.4l25.5,27.3L628,136.7l-34.7,7.2c-4.3-7.6-14-10.2-21.6-5.9s-10.2,14-5.9,21.6s14,10.2,21.6,5.9
					c4.3-2.5,7.3-6.9,7.9-11.9l40.2-8.3l14.5-41.2l33.3-6.9c4.6,7.5,14.3,9.8,21.8,5.2c7.5-4.6,9.8-14.3,5.2-21.8
					s-14.3-9.8-21.8-5.2c-4.3,2.6-7,7.1-7.5,12.1l-32.4,6.7l-26-27.8l11.5-35.6L696,17.9l18.6,20.3c-4.4,7.6-1.7,17.3,5.8,21.6
					c7.6,4.4,17.3,1.7,21.6-5.8c4.4-7.6,1.7-17.3-5.8-21.6c-3.4-1.9-7.3-2.6-11.1-1.8c-1.1,0.2-2.1,0.6-3.1,1l-14.7-16l23-4.7
					L757,38.8l-12,35.5l-16.8,3.5l-29.9-33.5l-33,6.8c-4.3-7.6-14-10.2-21.6-5.9s-10.2,14-5.9,21.6s14,10.2,21.6,5.9
					c4.3-2.5,7.3-6.9,7.9-11.9l27.4-5.7l29.9,33.5l23.1-4.8l29.1,31.4l36.9-7.6c4,7.8,13.5,10.8,21.3,6.8s10.8-13.5,6.8-21.3
					s-13.5-10.8-21.3-6.8c-4.4,2.3-7.5,6.5-8.4,11.5l-31.9,6.6l-25.6-27.7l11.9-35l21.1-4.4l20.3,23.5l-13.3,2.8
					c-4.3-7.6-14-10.2-21.6-5.9s-10.2,14-5.9,21.6s14,10.2,21.6,5.9c4.3-2.5,7.3-6.9,7.9-11.9l18.7-3.9l2.9-0.6l16.4-3.4L860.2,93
					l-12.7,36.6L768.3,146l-23.1-26c4.7-7.3,2.6-17.1-4.7-21.9c-7.3-4.7-17.1-2.6-21.9,4.7c-4.7,7.3-2.6,17.1,4.7,21.9
					c3.5,2.2,7.7,3,11.8,2.2c0.8-0.2,1.6-0.4,2.3-0.7l19.6,22.2l-100,20.8l10.3-30.4l15.5-3.3c4.3,7.6,14,10.2,21.6,5.9
					s10.2-14,5.9-21.6s-14-10.2-21.6-5.9c-4.3,2.5-7.3,6.9-7.9,11.9l-21.1,4.4l-14.1,41.3l-70,14.5L548.7,157.8z M691.1,90.1
					c-0.7-3.2,1.4-6.4,4.6-7c3.2-0.7,6.4,1.4,7,4.6c0.7,3.2-1.4,6.4-4.6,7c0,0,0,0-0.1,0C694.9,95.4,691.8,93.3,691.1,90.1
					L691.1,90.1z M585.4,150.6c0.7,3.2-1.3,6.4-4.6,7.1c-3.2,0.7-6.4-1.3-7.1-4.6c-0.7-3.2,1.3-6.4,4.6-7.1h0.1
					C581.7,145.4,584.7,147.5,585.4,150.6z M727.2,40.4c3.2-0.7,6.4,1.4,7,4.6c0.7,3.2-1.4,6.4-4.6,7c-3.2,0.7-6.4-1.4-7-4.6
					c0,0,0,0,0-0.1C721.9,44.1,724,41,727.2,40.4z M657.3,57.8c0.7,3.2-1.3,6.4-4.5,7.1c-3.2,0.7-6.4-1.3-7.1-4.5
					c-0.7-3.2,1.3-6.4,4.5-7.1h0.1C653.5,52.6,656.6,54.7,657.3,57.8z M822,101.6c-0.7-3.2,1.4-6.4,4.6-7c3.2-0.7,6.4,1.4,7,4.6
					c0.7,3.2-1.4,6.4-4.6,7c0,0,0,0-0.1,0C825.8,106.8,822.7,104.8,822,101.6z M733.1,117.2c-3.2,0.7-6.4-1.3-7.1-4.6
					c-0.7-3.2,1.3-6.4,4.6-7.1c3.2-0.7,6.4,1.3,7.1,4.6v0.1C738.3,113.4,736.3,116.5,733.1,117.2L733.1,117.2z M690.8,128.8
					c-0.7-3.2,1.4-6.4,4.6-7c3.2-0.7,6.4,1.4,7,4.6c0.7,3.2-1.4,6.4-4.6,7c0,0,0,0-0.1,0C694.6,134,691.5,132,690.8,128.8z"/>
			</g>
		</g>
	</g>
</g>
<g id="SVGID-2">
	<path class="st0" d="M594.7,191.7c-1.9,0-3.6-1.2-4.2-3L549.7,76.9c-0.6-1.6-0.2-3.3,0.9-4.6c1.1-1.2,2.9-1.7,4.5-1.3l68.3,18.5
		l52.7-84.8c0.6-1,1.7-1.8,2.9-2c1.2-0.3,2.5,0,3.5,0.7l82,56.9l55.3-44.2c1.3-1,3.1-1.3,4.6-0.6c1.5,0.7,2.6,2.2,2.7,3.8l7.1,118.8
		c0.1,2.2-1.4,4.2-3.6,4.7l-117.5,24.3l-117.5,24.3C595.3,191.7,595,191.7,594.7,191.7z M561.1,82l36.4,100l113.7-23.6l113.7-23.6
		l-6.3-106.3l-51.2,40.8c-1.5,1.2-3.7,1.3-5.4,0.2l-80.9-56.1L629.2,97c-1,1.7-3.1,2.5-5,2L561.1,82z"/>
</g>
</svg>
